<svg width="320" height="96" viewBox="0 0 320 96" fill="none" xmlns="http://www.w3.org/2000/svg">
<path d="M45.733 30.9478C53.377 23.313 65.7704 23.313 73.4144 30.9478C77.2317 34.7604 76.8443 40.074 74.0231 43.4529C72.6173 45.1367 70.6159 46.3239 68.239 46.5945C65.8656 46.8647 63.0494 46.2279 60.0086 44.1399C56.7146 41.8781 53.5851 41.1616 50.8467 41.566C48.1138 41.9696 45.8605 43.4767 44.2946 45.496C42.6595 47.6044 41.7401 50.3303 41.8211 53.0191C38.4529 45.7849 39.7569 36.9166 45.733 30.9478Z" fill="#1A1A1A"/>
<path d="M105.48 37.063C105.48 39.2033 104.94 40.8764 103.86 42.0823C102.781 43.2802 101.29 43.8792 99.3868 43.8792C98.2114 43.8792 97.168 43.6036 96.2565 43.0526C95.3449 42.5016 94.6413 41.7109 94.1456 40.6807C93.6498 39.6505 93.402 38.4446 93.402 37.063C93.402 34.9227 93.9377 33.2576 95.0091 32.0677C96.0806 30.8698 97.5678 30.2708 99.4708 30.2708C101.31 30.2708 102.769 30.8818 103.848 32.1036C104.936 33.3255 105.48 34.9786 105.48 37.063ZM95.4649 37.063C95.4649 38.7401 95.8007 40.0179 96.4724 40.8964C97.144 41.7748 98.1315 42.2141 99.4348 42.2141C100.738 42.2141 101.726 41.7788 102.397 40.9083C103.077 40.0299 103.417 38.7481 103.417 37.063C103.417 35.3939 103.077 34.1281 102.397 33.2656C101.726 32.3951 100.73 31.9599 99.4108 31.9599C98.1075 31.9599 97.124 32.3872 96.4604 33.2417C95.7967 34.0962 95.4649 35.37 95.4649 37.063Z" fill="#1A1A1A"/>
<path d="M114.235 43.8792C112.332 43.8792 110.857 43.2962 109.809 42.1302C108.77 40.9562 108.25 39.2991 108.25 37.1589C108.25 34.9627 108.778 33.2656 109.833 32.0677C110.897 30.8698 112.408 30.2708 114.367 30.2708C114.999 30.2708 115.63 30.3387 116.262 30.4745C116.894 30.6102 117.389 30.77 117.749 30.9536L117.138 32.6427C116.698 32.467 116.218 32.3233 115.698 32.2115C115.179 32.0917 114.719 32.0318 114.319 32.0318C111.648 32.0318 110.313 33.7328 110.313 37.1349C110.313 38.7481 110.637 39.9859 111.285 40.8484C111.94 41.7109 112.908 42.1422 114.187 42.1422C115.282 42.1422 116.406 41.9066 117.557 41.4354V43.1964C116.678 43.6516 115.57 43.8792 114.235 43.8792Z" fill="#1A1A1A"/>
<path d="M126.241 43.8792C124.298 43.8792 122.763 43.2882 121.635 42.1062C120.516 40.9243 119.956 39.2832 119.956 37.1828C119.956 35.0665 120.476 33.3854 121.515 32.1396C122.563 30.8937 123.966 30.2708 125.725 30.2708C127.372 30.2708 128.675 30.8139 129.635 31.9C130.594 32.9781 131.074 34.4036 131.074 36.1766V37.4344H122.019C122.059 38.9757 122.447 40.1457 123.182 40.9443C123.926 41.7429 124.969 42.1422 126.313 42.1422C127.728 42.1422 129.127 41.8467 130.51 41.2557V43.0286C129.807 43.3321 129.139 43.5477 128.508 43.6755C127.884 43.8113 127.128 43.8792 126.241 43.8792ZM125.701 31.9359C124.646 31.9359 123.802 32.2793 123.17 32.9661C122.547 33.653 122.179 34.6033 122.067 35.8172H128.939C128.939 34.5634 128.659 33.605 128.1 32.9422C127.54 32.2714 126.74 31.9359 125.701 31.9359Z" fill="#1A1A1A"/>
<path d="M142.564 43.6396L142.168 41.7708H142.072C141.417 42.5934 140.761 43.1524 140.105 43.4479C139.458 43.7354 138.646 43.8792 137.671 43.8792C136.367 43.8792 135.344 43.5438 134.6 42.8729C133.865 42.2021 133.497 41.2477 133.497 40.0099C133.497 37.3585 135.62 35.9689 139.866 35.8411L142.096 35.7693V34.9547C142.096 33.9245 141.873 33.1658 141.425 32.6786C140.985 32.1835 140.277 31.9359 139.302 31.9359C138.206 31.9359 136.967 32.2714 135.584 32.9422L134.972 31.4208C135.62 31.0694 136.327 30.7939 137.095 30.5943C137.871 30.3946 138.646 30.2948 139.422 30.2948C140.989 30.2948 142.148 30.6422 142.9 31.337C143.66 32.0318 144.039 33.1458 144.039 34.6792V43.6396H142.564ZM138.067 42.238C139.306 42.238 140.277 41.8986 140.981 41.2198C141.693 40.541 142.048 39.5906 142.048 38.3687V37.1828L140.057 37.2667C138.474 37.3226 137.331 37.5701 136.627 38.0094C135.932 38.4406 135.584 39.1155 135.584 40.0339C135.584 40.7526 135.8 41.2997 136.231 41.675C136.671 42.0503 137.283 42.238 138.067 42.238Z" fill="#1A1A1A"/>
<path d="M157.148 43.6396V35.1464C157.148 34.0762 156.905 33.2776 156.417 32.7505C155.929 32.2234 155.166 31.9599 154.126 31.9599C152.751 31.9599 151.743 32.3313 151.104 33.074C150.464 33.8167 150.144 35.0425 150.144 36.7516V43.6396H148.153V30.5104H149.772L150.096 32.3073H150.192C150.6 31.6604 151.172 31.1613 151.907 30.8099C152.643 30.4505 153.462 30.2708 154.366 30.2708C155.949 30.2708 157.141 30.6542 157.94 31.4208C158.74 32.1795 159.139 33.3974 159.139 35.0745V43.6396H157.148Z" fill="#1A1A1A"/>
<path d="M171.613 43.6396H169.622V30.5104H171.613V43.6396Z" fill="#1A1A1A"/>
<path d="M184.83 43.6396V35.1464C184.83 34.0762 184.586 33.2776 184.098 32.7505C183.611 32.2234 182.847 31.9599 181.808 31.9599C180.432 31.9599 179.425 32.3313 178.785 33.074C178.145 33.8167 177.826 35.0425 177.826 36.7516V43.6396H175.835V30.5104H177.454L177.778 32.3073H177.874C178.281 31.6604 178.853 31.1613 179.589 30.8099C180.324 30.4505 181.144 30.2708 182.047 30.2708C183.631 30.2708 184.822 30.6542 185.622 31.4208C186.421 32.1795 186.821 33.3974 186.821 35.0745V43.6396H184.83Z" fill="#1A1A1A"/>
<path d="M199.87 41.8786H199.762C198.843 43.2123 197.467 43.8792 195.636 43.8792C193.917 43.8792 192.578 43.2922 191.618 42.1182C190.667 40.9443 190.191 39.2752 190.191 37.1109C190.191 34.9467 190.671 33.2656 191.63 32.0677C192.59 30.8698 193.925 30.2708 195.636 30.2708C197.419 30.2708 198.787 30.9177 199.738 32.2115H199.894L199.81 31.2651L199.762 30.3427V25H201.753V43.6396H200.134L199.87 41.8786ZM195.888 42.2141C197.247 42.2141 198.231 41.8467 198.839 41.112C199.454 40.3693 199.762 39.1753 199.762 37.5302V37.1109C199.762 35.2502 199.45 33.9245 198.827 33.1339C198.211 32.3352 197.223 31.9359 195.864 31.9359C194.697 31.9359 193.801 32.3911 193.178 33.3016C192.562 34.204 192.254 35.4818 192.254 37.1349C192.254 38.812 192.562 40.0778 193.178 40.9323C193.793 41.7868 194.697 42.2141 195.888 42.2141Z" fill="#1A1A1A"/>
<path d="M207.858 30.5104V39.0276C207.858 40.0977 208.102 40.8964 208.589 41.4234C209.077 41.9505 209.841 42.2141 210.88 42.2141C212.256 42.2141 213.259 41.8387 213.891 41.088C214.53 40.3373 214.85 39.1115 214.85 37.4104V30.5104H216.841V43.6396H215.198L214.91 41.8786H214.802C214.394 42.5255 213.827 43.0207 213.099 43.3641C212.38 43.7075 211.556 43.8792 210.628 43.8792C209.029 43.8792 207.83 43.4998 207.03 42.7411C206.239 41.9825 205.843 40.7686 205.843 39.0995V30.5104H207.858Z" fill="#1A1A1A"/>
<path d="M229.554 40.0578C229.554 41.2797 229.099 42.222 228.187 42.8849C227.276 43.5477 225.996 43.8792 224.349 43.8792C222.606 43.8792 221.247 43.6036 220.271 43.0526V41.2078C220.903 41.5273 221.579 41.7788 222.298 41.9625C223.026 42.1462 223.726 42.238 224.397 42.238C225.437 42.238 226.236 42.0743 226.796 41.7469C227.356 41.4115 227.635 40.9043 227.635 40.2255C227.635 39.7144 227.412 39.2792 226.964 38.9198C226.524 38.5524 225.661 38.1212 224.373 37.626C223.15 37.1708 222.278 36.7755 221.759 36.4401C221.247 36.0967 220.863 35.7094 220.607 35.2781C220.359 34.8469 220.235 34.3318 220.235 33.7328C220.235 32.6627 220.671 31.8201 221.543 31.2052C222.414 30.5823 223.61 30.2708 225.129 30.2708C226.544 30.2708 227.927 30.5583 229.279 31.1333L228.571 32.7505C227.252 32.2075 226.056 31.9359 224.985 31.9359C224.041 31.9359 223.33 32.0837 222.85 32.3792C222.37 32.6747 222.13 33.0819 222.13 33.601C222.13 33.9524 222.218 34.2519 222.394 34.4995C222.578 34.747 222.87 34.9826 223.27 35.2063C223.67 35.4299 224.437 35.7533 225.573 36.1766C227.132 36.7436 228.183 37.3146 228.727 37.8896C229.279 38.4646 229.554 39.1873 229.554 40.0578Z" fill="#1A1A1A"/>
<path d="M237.051 42.238C237.402 42.238 237.742 42.2141 238.07 42.1661C238.398 42.1102 238.658 42.0543 238.85 41.9984V43.5198C238.634 43.6236 238.314 43.7075 237.89 43.7714C237.474 43.8432 237.099 43.8792 236.763 43.8792C234.22 43.8792 232.949 42.5415 232.949 39.8661V32.0557H231.066V31.0974L232.949 30.2708L233.788 27.4677H234.94V30.5104H238.754V32.0557H234.94V39.7823C234.94 40.5729 235.128 41.1799 235.503 41.6031C235.879 42.0264 236.395 42.238 237.051 42.238Z" fill="#1A1A1A"/>
<path d="M247.485 30.2708C248.069 30.2708 248.592 30.3187 249.056 30.4146L248.78 32.2594C248.237 32.1396 247.757 32.0797 247.341 32.0797C246.278 32.0797 245.366 32.5109 244.607 33.3734C243.855 34.2359 243.479 35.3101 243.479 36.5958V43.6396H241.488V30.5104H243.131L243.359 32.9422H243.455C243.943 32.0877 244.531 31.4288 245.218 30.9656C245.906 30.5024 246.662 30.2708 247.485 30.2708Z" fill="#1A1A1A"/>
<path d="M253.506 43.6396H251.515V30.5104H253.506V43.6396Z" fill="#1A1A1A"/>
<path d="M263.281 43.8792C261.338 43.8792 259.803 43.2882 258.675 42.1062C257.556 40.9243 256.996 39.2832 256.996 37.1828C256.996 35.0665 257.516 33.3854 258.555 32.1396C259.603 30.8937 261.006 30.2708 262.765 30.2708C264.412 30.2708 265.715 30.8139 266.675 31.9C267.635 32.9781 268.114 34.4036 268.114 36.1766V37.4344H259.059C259.099 38.9757 259.487 40.1457 260.222 40.9443C260.966 41.7429 262.009 42.1422 263.353 42.1422C264.768 42.1422 266.167 41.8467 267.551 41.2557V43.0286C266.847 43.3321 266.179 43.5477 265.548 43.6755C264.924 43.8113 264.168 43.8792 263.281 43.8792ZM262.741 31.9359C261.686 31.9359 260.842 32.2793 260.21 32.9661C259.587 33.653 259.219 34.6033 259.107 35.8172H265.979C265.979 34.5634 265.7 33.605 265.14 32.9422C264.58 32.2714 263.781 31.9359 262.741 31.9359Z" fill="#1A1A1A"/>
<path d="M280 40.0578C280 41.2797 279.544 42.222 278.633 42.8849C277.721 43.5477 276.442 43.8792 274.795 43.8792C273.052 43.8792 271.692 43.6036 270.717 43.0526V41.2078C271.349 41.5273 272.024 41.7788 272.744 41.9625C273.471 42.1462 274.171 42.238 274.843 42.238C275.882 42.238 276.682 42.0743 277.241 41.7469C277.801 41.4115 278.081 40.9043 278.081 40.2255C278.081 39.7144 277.857 39.2792 277.409 38.9198C276.97 38.5524 276.106 38.1212 274.819 37.626C273.595 37.1708 272.724 36.7755 272.204 36.4401C271.692 36.0967 271.309 35.7094 271.053 35.2781C270.805 34.8469 270.681 34.3318 270.681 33.7328C270.681 32.6627 271.117 31.8201 271.988 31.2052C272.86 30.5823 274.055 30.2708 275.574 30.2708C276.99 30.2708 278.373 30.5583 279.724 31.1333L279.017 32.7505C277.697 32.2075 276.502 31.9359 275.43 31.9359C274.487 31.9359 273.775 32.0837 273.296 32.3792C272.816 32.6747 272.576 33.0819 272.576 33.601C272.576 33.9524 272.664 34.2519 272.84 34.4995C273.024 34.747 273.316 34.9826 273.715 35.2063C274.115 35.4299 274.883 35.7533 276.018 36.1766C277.577 36.7436 278.629 37.3146 279.172 37.8896C279.724 38.4646 280 39.1873 280 40.0578Z" fill="#1A1A1A"/>
<path d="M99.3868 65.3458C97.4838 65.3458 96.0086 64.7628 94.9611 63.5969C93.9217 62.4229 93.402 60.7658 93.402 58.6255C93.402 56.4293 93.9297 54.7323 94.9851 53.5344C96.0486 52.3365 97.5598 51.7375 99.5188 51.7375C100.15 51.7375 100.782 51.8054 101.414 51.9411C102.045 52.0769 102.541 52.2366 102.901 52.4203L102.289 54.1094C101.85 53.9337 101.37 53.7899 100.85 53.6781C100.33 53.5583 99.8706 53.4984 99.4708 53.4984C96.8002 53.4984 95.4649 55.1995 95.4649 58.6016C95.4649 60.2148 95.7887 61.4526 96.4364 62.3151C97.092 63.1776 98.0595 63.6089 99.3388 63.6089C100.434 63.6089 101.558 63.3733 102.709 62.9021V64.663C101.83 65.1182 100.722 65.3458 99.3868 65.3458Z" fill="#1A1A1A"/>
<path d="M117.185 58.5297C117.185 60.67 116.646 62.3431 115.566 63.549C114.487 64.7469 112.996 65.3458 111.093 65.3458C109.917 65.3458 108.874 65.0703 107.962 64.5193C107.051 63.9682 106.347 63.1776 105.851 62.1474C105.356 61.1172 105.108 59.9113 105.108 58.5297C105.108 56.3894 105.644 54.7243 106.715 53.5344C107.786 52.3365 109.274 51.7375 111.177 51.7375C113.016 51.7375 114.475 52.3484 115.554 53.5703C116.642 54.7922 117.185 56.4453 117.185 58.5297ZM107.171 58.5297C107.171 60.2068 107.507 61.4846 108.178 62.363C108.85 63.2415 109.837 63.6807 111.141 63.6807C112.444 63.6807 113.431 63.2455 114.103 62.375C114.783 61.4965 115.123 60.2148 115.123 58.5297C115.123 56.8606 114.783 55.5948 114.103 54.7323C113.431 53.8618 112.436 53.4266 111.117 53.4266C109.813 53.4266 108.83 53.8538 108.166 54.7083C107.503 55.5628 107.171 56.8366 107.171 58.5297Z" fill="#1A1A1A"/>
<path d="M129.683 65.1063V56.613C129.683 55.5429 129.439 54.7443 128.951 54.2172C128.464 53.6901 127.7 53.4266 126.661 53.4266C125.285 53.4266 124.278 53.7979 123.638 54.5406C122.998 55.2833 122.679 56.5092 122.679 58.2182V65.1063H120.688V51.9771H122.307L122.631 53.774H122.727C123.134 53.1271 123.706 52.628 124.442 52.2766C125.177 51.9172 125.997 51.7375 126.9 51.7375C128.484 51.7375 129.675 52.1208 130.475 52.8875C131.274 53.6462 131.674 54.8641 131.674 56.5411V65.1063H129.683Z" fill="#1A1A1A"/>
<path d="M141.029 65.3458C139.126 65.3458 137.651 64.7628 136.603 63.5969C135.564 62.4229 135.044 60.7658 135.044 58.6255C135.044 56.4293 135.572 54.7323 136.627 53.5344C137.691 52.3365 139.202 51.7375 141.161 51.7375C141.793 51.7375 142.424 51.8054 143.056 51.9411C143.688 52.0769 144.183 52.2366 144.543 52.4203L143.931 54.1094C143.492 53.9337 143.012 53.7899 142.492 53.6781C141.972 53.5583 141.513 53.4984 141.113 53.4984C138.442 53.4984 137.107 55.1995 137.107 58.6016C137.107 60.2148 137.431 61.4526 138.079 62.3151C138.734 63.1776 139.702 63.6089 140.981 63.6089C142.076 63.6089 143.2 63.3733 144.351 62.9021V64.663C143.472 65.1182 142.364 65.3458 141.029 65.3458Z" fill="#1A1A1A"/>
<path d="M153.035 65.3458C151.092 65.3458 149.556 64.7549 148.429 63.5729C147.31 62.391 146.75 60.7498 146.75 58.6495C146.75 56.5332 147.27 54.8521 148.309 53.6062C149.357 52.3604 150.76 51.7375 152.519 51.7375C154.166 51.7375 155.469 52.2806 156.429 53.3667C157.388 54.4448 157.868 55.8703 157.868 57.6432V58.901H148.813C148.853 60.4424 149.241 61.6123 149.976 62.4109C150.72 63.2095 151.763 63.6089 153.107 63.6089C154.522 63.6089 155.921 63.3134 157.304 62.7224V64.4953C156.601 64.7988 155.933 65.0144 155.301 65.1422C154.678 65.278 153.922 65.3458 153.035 65.3458ZM152.495 53.4026C151.439 53.4026 150.596 53.746 149.964 54.4328C149.341 55.1196 148.973 56.07 148.861 57.2839H155.733C155.733 56.03 155.453 55.0717 154.894 54.4089C154.334 53.738 153.534 53.4026 152.495 53.4026Z" fill="#1A1A1A"/>
<path d="M167.391 65.3458C166.536 65.3458 165.752 65.1901 165.04 64.8786C164.337 64.5592 163.745 64.072 163.265 63.4172H163.121C163.217 64.1839 163.265 64.9106 163.265 65.5974V71H161.274V51.9771H162.893L163.169 53.774H163.265C163.777 53.0552 164.373 52.5361 165.052 52.2167C165.732 51.8972 166.512 51.7375 167.391 51.7375C169.134 51.7375 170.477 52.3325 171.421 53.5224C172.373 54.7123 172.848 56.3814 172.848 58.5297C172.848 60.6859 172.365 62.363 171.397 63.5609C170.438 64.7509 169.102 65.3458 167.391 65.3458ZM167.103 53.4266C165.76 53.4266 164.788 53.7979 164.189 54.5406C163.589 55.2833 163.281 56.4653 163.265 58.0865V58.5297C163.265 60.3745 163.573 61.6962 164.189 62.4948C164.804 63.2854 165.792 63.6807 167.151 63.6807C168.287 63.6807 169.174 63.2215 169.814 62.3031C170.462 61.3847 170.785 60.1189 170.785 58.5057C170.785 56.8686 170.462 55.6148 169.814 54.7443C169.174 53.8658 168.271 53.4266 167.103 53.4266Z" fill="#1A1A1A"/>
<path d="M180.584 63.7047C180.936 63.7047 181.276 63.6807 181.604 63.6328C181.931 63.5769 182.191 63.521 182.383 63.4651V64.9865C182.167 65.0903 181.848 65.1741 181.424 65.238C181.008 65.3099 180.632 65.3458 180.296 65.3458C177.754 65.3458 176.482 64.0082 176.482 61.3328V53.5224H174.599V52.5641L176.482 51.7375L177.322 48.9344H178.473V51.9771H182.287V53.5224H178.473V61.249C178.473 62.0396 178.661 62.6465 179.037 63.0698C179.413 63.4931 179.929 63.7047 180.584 63.7047Z" fill="#1A1A1A"/>
<path d="M193.393 65.1063H191.403V46.4667H193.393V65.1063Z" fill="#1A1A1A"/>
<path d="M205.699 65.1063L205.303 63.2375H205.207C204.552 64.0601 203.896 64.6191 203.24 64.9146C202.593 65.2021 201.781 65.3458 200.806 65.3458C199.502 65.3458 198.479 65.0104 197.735 64.3396C197 63.6688 196.632 62.7144 196.632 61.4766C196.632 58.8252 198.755 57.4356 203 57.3078L205.231 57.2359V56.4214C205.231 55.3911 205.007 54.6325 204.56 54.1453C204.12 53.6502 203.412 53.4026 202.437 53.4026C201.341 53.4026 200.102 53.738 198.719 54.4089L198.107 52.8875C198.755 52.5361 199.462 52.2606 200.23 52.0609C201.005 51.8613 201.781 51.7615 202.557 51.7615C204.124 51.7615 205.283 52.1089 206.035 52.8036C206.794 53.4984 207.174 54.6125 207.174 56.1458V65.1063H205.699ZM201.201 63.7047C202.441 63.7047 203.412 63.3653 204.116 62.6865C204.827 62.0076 205.183 61.0573 205.183 59.8354V58.6495L203.192 58.7333C201.609 58.7892 200.466 59.0368 199.762 59.476C199.066 59.9073 198.719 60.5821 198.719 61.5005C198.719 62.2193 198.935 62.7663 199.366 63.1417C199.806 63.517 200.418 63.7047 201.201 63.7047Z" fill="#1A1A1A"/>
<path d="M217.405 51.7615C219.132 51.7615 220.471 52.3524 221.423 53.5344C222.382 54.7083 222.862 56.3734 222.862 58.5297C222.862 60.6859 222.378 62.363 221.411 63.5609C220.451 64.7509 219.116 65.3458 217.405 65.3458C216.549 65.3458 215.766 65.1901 215.054 64.8786C214.35 64.5592 213.759 64.072 213.279 63.4172H213.135L212.715 65.1063H211.288V46.4667H213.279V50.9948C213.279 52.009 213.247 52.9194 213.183 53.726H213.279C214.207 52.4163 215.582 51.7615 217.405 51.7615ZM217.117 53.4266C215.758 53.4266 214.778 53.8179 214.179 54.6005C213.579 55.3752 213.279 56.6849 213.279 58.5297C213.279 60.3745 213.587 61.6962 214.203 62.4948C214.818 63.2854 215.806 63.6807 217.165 63.6807C218.388 63.6807 219.3 63.2375 219.9 62.351C220.499 61.4566 220.799 60.1748 220.799 58.5057C220.799 56.7967 220.499 55.5229 219.9 54.6844C219.3 53.8458 218.372 53.4266 217.117 53.4266Z" fill="#1A1A1A"/>
<path d="M73.712 58.2918C73.6141 58.3938 73.515 58.495 73.4145 58.5953C65.7705 66.2301 53.3771 66.2301 45.7331 58.5953C40.7166 53.5846 44.2319 44.0925 51.0713 43.0825C53.3552 42.7453 56.1002 43.3166 59.1389 45.4031C59.2004 45.4454 59.2619 45.4871 59.3234 45.5283C55.7862 57.0307 66.9206 61.9399 73.712 58.2918Z" fill="black" fill-opacity="0.59"/>
</svg>
