<svg width="24" height="24" viewBox="0 0 24 24"  xmlns="http://www.w3.org/2000/svg">
<path d="M4.93333 19.1333C3.11667 17.3333 2 14.8333 2 12.0667C2 9.3 3.11667 6.8 4.93333 5L7.3 7.36667C6.08333 8.56667 5.33333 10.2333 5.33333 12.0667C5.33333 13.9 6.08333 15.5667 7.28333 16.7833L4.93333 19.1333ZM19.0667 19.1333C20.8833 17.3333 22 14.8333 22 12.0667C22 9.3 20.8833 6.8 19.0667 5L16.7 7.36667C17.9167 8.56667 18.6667 10.2333 18.6667 12.0667C18.6667 13.9 17.9167 15.5667 16.7167 16.7833L19.0667 19.1333ZM12 8.73333C10.1667 8.73333 8.66667 10.2333 8.66667 12.0667C8.66667 13.9 10.1667 15.4 12 15.4C13.8333 15.4 15.3333 13.9 15.3333 12.0667C15.3333 10.2333 13.8333 8.73333 12 8.73333Z" fill="currentColor"/>
</svg>
