<svg width="24" height="24" viewBox="0 0 24 24"  xmlns="http://www.w3.org/2000/svg">
<path d="M2 4.22222V8.66667H4.22222V4.22222H8.66667V2H4.22222C3 2 2 3 2 4.22222Z" fill="currentColor"/>
<path d="M4.22222 15.3334H2V19.7779C2 21.0001 3 22.0001 4.22222 22.0001H8.66667V19.7779H4.22222V15.3334Z" fill="currentColor"/>
<path d="M15.3333 19.7779H19.7778V15.3334H22V19.7779C22 21.0001 21 22.0001 19.7778 22.0001H15.3333V19.7779Z" fill="currentColor"/>
<path d="M19.7778 2H15.3333V4.22222H19.7778V8.66667H22V4.22222C22 3 21 2 19.7778 2Z" fill="currentColor"/>
<path d="M6 12.24C6 13.9 6.67 15.4 7.76 16.48L9.17 15.07C8.45 14.34 8 13.34 8 12.24C8 11.14 8.45 10.14 9.18 9.42L7.76 8C6.67 9.08 6 10.58 6 12.24Z" fill="currentColor"/>
<path d="M18 12.24C18 13.9 17.33 15.4 16.24 16.48L14.83 15.07C15.55 14.34 16 13.34 16 12.24C16 11.14 15.55 10.14 14.82 9.42L16.24 8C17.33 9.08 18 10.58 18 12.24Z" fill="currentColor"/>
<path d="M10 12.24C10 11.14 10.9 10.24 12 10.24C13.1 10.24 14 11.14 14 12.24C14 13.34 13.1 14.24 12 14.24C10.9 14.24 10 13.34 10 12.24Z" fill="currentColor"/>
</svg>
