<svg width="24" height="24" viewBox="0 0 24 24"  xmlns="http://www.w3.org/2000/svg">
<path fill-rule="evenodd" clip-rule="evenodd" d="M3 2C2.44772 2 2 2.44772 2 3V21C2 21.5523 2.44772 22 3 22H21C21.5523 22 22 21.5523 22 21V3C22 2.44772 21.5523 2 21 2H3ZM4 20V4H20V20H4Z" fill="currentColor"/>
<path d="M14.1 12C14.1 11.5029 14.5029 11.1 15 11.1C15.4971 11.1 15.9 11.5029 15.9 12C15.9 12.4971 15.4971 12.9 15 12.9C14.5029 12.9 14.1 12.4971 14.1 12Z" fill="currentColor"/>
<path d="M9 11.1C8.66863 11.1 8.4 11.3686 8.4 11.7V12.3C8.4 12.6314 8.66863 12.9 9 12.9H12.6C12.9314 12.9 13.2 12.6314 13.2 12.3V11.7C13.2 11.3686 12.9314 11.1 12.6 11.1H9Z" fill="currentColor"/>
<path fill-rule="evenodd" clip-rule="evenodd" d="M12.9 6.9C12.9 7.29187 12.6496 7.62524 12.3 7.74879V9H15.6V7.74879C15.2504 7.62524 15 7.29187 15 6.9C15 6.40294 15.4029 6 15.9 6C16.3971 6 16.8 6.40294 16.8 6.9C16.8 7.29187 16.5496 7.62524 16.2 7.74879V9H17.4C17.7313 9 18 9.26865 18 9.6V14.4C18 14.7313 17.7313 15 17.4 15H16.2V16.2512C16.5496 16.3748 16.8 16.7081 16.8 17.1C16.8 17.5971 16.3971 18 15.9 18C15.4029 18 15 17.5971 15 17.1C15 16.7081 15.2504 16.3748 15.6 16.2512V15H12.3V16.2512C12.6496 16.3748 12.9 16.7081 12.9 17.1C12.9 17.5971 12.4971 18 12 18C11.5029 18 11.1 17.5971 11.1 17.1C11.1 16.7081 11.3504 16.3748 11.7 16.2512V15H8.4V16.2512C8.74956 16.3748 9 16.7081 9 17.1C9 17.5971 8.59706 18 8.1 18C7.60294 18 7.2 17.5971 7.2 17.1C7.2 16.7081 7.45044 16.3748 7.8 16.2512V15H6.6C6.26865 15 6 14.7313 6 14.4V9.6C6 9.26865 6.26865 9 6.6 9H7.8V7.74879C7.45044 7.62524 7.2 7.29187 7.2 6.9C7.2 6.40294 7.60294 6 8.1 6C8.59706 6 9 6.40294 9 6.9C9 7.29187 8.74956 7.62524 8.4 7.74879V9H11.7V7.74879C11.3504 7.62524 11.1 7.29187 11.1 6.9C11.1 6.40294 11.5029 6 12 6C12.4971 6 12.9 6.40294 12.9 6.9ZM7.2 13.8H16.8V10.2H7.2V13.8Z" fill="currentColor"/>
</svg>
