<svg width="24" height="24" viewBox="0 0 24 24"  xmlns="http://www.w3.org/2000/svg">
<path d="M15.0002 8.53024L9.957 5L4.66106 9.88855C4.62089 9.92564 4.58817 9.96778 4.56299 10.0131C4.91424 10.0564 5.30345 10.1012 5.72989 10.1461L5.84349 10.158L9.5002 6.78256V10.4534C9.82342 10.4727 10.1568 10.4911 10.5002 10.5082V6.6009L14.7135 9.55019C14.8009 9.61137 14.901 9.6407 15.0002 9.64061V8.53024Z" fill="currentColor"/>
<path fill-rule="evenodd" clip-rule="evenodd" d="M16 11.6406V8.64062H19.5C19.7761 8.64062 20 8.86448 20 9.14062V11.6406H22V14.8557C21.4527 14.9082 20.8391 14.8694 20.4912 14.725C20.3149 14.6417 20.1428 14.554 19.9748 14.462C19.8063 14.3707 19.6498 14.2583 19.5056 14.125C19.3133 13.975 19.105 13.9 18.8806 13.9C18.6562 13.9 18.4479 13.975 18.2556 14.125C17.9351 14.3917 17.5825 14.604 17.1979 14.762C16.8133 14.9207 16.4127 15 15.996 15C15.5793 15 15.1787 14.9207 14.7941 14.762C14.4095 14.604 14.0569 14.3917 13.7364 14.125C13.5441 13.975 13.3357 13.9 13.1114 13.9C12.887 13.9 12.6787 13.975 12.4864 14.125C12.1659 14.3917 11.8133 14.604 11.4287 14.762C11.0441 14.9207 10.6434 15 10.2268 15C9.8101 15 9.40946 14.9207 9.02484 14.762C8.64023 14.604 8.28766 14.3917 7.96715 14.125C7.77484 13.975 7.56651 13.9 7.34215 13.9C7.11779 13.9 6.90946 13.975 6.71715 14.125C6.57292 14.2583 6.41683 14.3707 6.24888 14.462C6.08029 14.554 5.90785 14.6417 5.73157 14.725C5.48533 14.7964 5.19244 14.8648 4.89673 14.9134C4.6447 13.9322 3.97231 12.8042 3.33873 12.3328C2.64617 11.8175 2 11.3368 2 10.6406C2 10.6406 7 11.6406 16 11.6406ZM19 9.64062H17V10.6406H19V9.64062Z" fill="currentColor"/>
<path d="M5.525 18.612C5.025 18.7373 4.51667 18.8 4 18.8C3.71667 18.8 3.47933 18.704 3.288 18.512C3.096 18.3207 3 18.0833 3 17.8C3 17.5167 3.096 17.2793 3.288 17.088C3.47933 16.896 3.71667 16.8 4 16.8C4.43333 16.8 4.86267 16.7457 5.288 16.637C5.71267 16.529 6.11667 16.3583 6.5 16.125C6.65 16.0417 6.81667 16 7 16C7.18333 16 7.35 16.0417 7.5 16.125C7.88333 16.3583 8.28767 16.529 8.713 16.637C9.13767 16.7457 9.56667 16.8 10 16.8C10.4333 16.8 10.8627 16.7457 11.288 16.637C11.7127 16.529 12.1167 16.3583 12.5 16.125C12.65 16.0417 12.821 16 13.013 16C13.2043 16 13.3667 16.0417 13.5 16.125C13.8833 16.3583 14.2877 16.529 14.713 16.637C15.1377 16.7457 15.5667 16.8 16 16.8C16.4333 16.8 16.8627 16.7457 17.288 16.637C17.7127 16.529 18.1167 16.3583 18.5 16.125C18.6333 16.0417 18.8 16 19 16C19.2 16 19.3667 16.0417 19.5 16.125C19.8833 16.3583 20.2873 16.529 20.712 16.637C21.1373 16.7457 21.5667 16.8 22 16.8C22.2833 16.8 22.5207 16.896 22.712 17.088C22.904 17.2793 23 17.5167 23 17.8C23 18.0833 22.904 18.3207 22.712 18.512C22.5207 18.704 22.2833 18.8 22 18.8C21.4833 18.8 20.975 18.7373 20.475 18.612C19.975 18.4873 19.4833 18.3 19 18.05C18.5167 18.3 18.025 18.4873 17.525 18.612C17.025 18.7373 16.5167 18.8 16 18.8C15.4833 18.8 14.975 18.7373 14.475 18.612C13.975 18.4873 13.4833 18.3 13 18.05C12.5167 18.3 12.025 18.4873 11.525 18.612C11.025 18.7373 10.5167 18.8 10 18.8C9.48333 18.8 8.975 18.7373 8.475 18.612C7.975 18.4873 7.48333 18.3 7 18.05C6.51667 18.3 6.025 18.4873 5.525 18.612Z" fill="currentColor"/>
</svg>
