<svg width="24" height="24" viewBox="0 0 24 24"  xmlns="http://www.w3.org/2000/svg">
<path d="M3.525 18.612C3.025 18.7373 2.51667 18.8 2 18.8C1.71667 18.8 1.47933 18.704 1.288 18.512C1.096 18.3207 1 18.0833 1 17.8C1 17.5167 1.096 17.2793 1.288 17.088C1.47933 16.896 1.71667 16.8 2 16.8C2.43333 16.8 2.86267 16.7457 3.288 16.637C3.71267 16.529 4.11667 16.3583 4.5 16.125C4.65 16.0417 4.81667 16 5 16C5.18333 16 5.35 16.0417 5.5 16.125C5.88333 16.3583 6.28767 16.529 6.713 16.637C7.13767 16.7457 7.56667 16.8 8 16.8C8.43333 16.8 8.86267 16.7457 9.288 16.637C9.71267 16.529 10.1167 16.3583 10.5 16.125C10.65 16.0417 10.821 16 11.013 16C11.2043 16 11.3667 16.0417 11.5 16.125C11.8833 16.3583 12.2877 16.529 12.713 16.637C13.1377 16.7457 13.5667 16.8 14 16.8C14.4333 16.8 14.8627 16.7457 15.288 16.637C15.7127 16.529 16.1167 16.3583 16.5 16.125C16.6333 16.0417 16.8 16 17 16C17.2 16 17.3667 16.0417 17.5 16.125C17.8833 16.3583 18.2873 16.529 18.712 16.637C19.1373 16.7457 19.5667 16.8 20 16.8C20.2833 16.8 20.5207 16.896 20.712 17.088C20.904 17.2793 21 17.5167 21 17.8C21 18.0833 20.904 18.3207 20.712 18.512C20.5207 18.704 20.2833 18.8 20 18.8C19.4833 18.8 18.975 18.7373 18.475 18.612C17.975 18.4873 17.4833 18.3 17 18.05C16.5167 18.3 16.025 18.4873 15.525 18.612C15.025 18.7373 14.5167 18.8 14 18.8C13.4833 18.8 12.975 18.7373 12.475 18.612C11.975 18.4873 11.4833 18.3 11 18.05C10.5167 18.3 10.025 18.4873 9.525 18.612C9.025 18.7373 8.51667 18.8 8 18.8C7.48333 18.8 6.975 18.7373 6.475 18.612C5.975 18.4873 5.48333 18.3 5 18.05C4.51667 18.3 4.025 18.4873 3.525 18.612Z" fill="currentColor"/>
<path fill-rule="evenodd" clip-rule="evenodd" d="M8.5 11H2L3.73157 14.725C3.90785 14.6417 4.08029 14.554 4.24888 14.462C4.41683 14.3707 4.57292 14.2583 4.71715 14.125C4.90946 13.975 5.11779 13.9 5.34215 13.9C5.56651 13.9 5.77484 13.975 5.96715 14.125C6.28766 14.3917 6.64023 14.604 7.02484 14.762C7.40946 14.9207 7.8101 15 8.22676 15C8.64343 15 9.04407 14.9207 9.42869 14.762C9.8133 14.604 10.1659 14.3917 10.4864 14.125C10.6787 13.975 10.887 13.9 11.1114 13.9C11.3357 13.9 11.5441 13.975 11.7364 14.125C12.0569 14.3917 12.4095 14.604 12.7941 14.762C13.1787 14.9207 13.5793 15 13.996 15C14.4127 15 14.8133 14.9207 15.1979 14.762C15.5825 14.604 15.9351 14.3917 16.2556 14.125C16.4479 13.975 16.6562 13.9 16.8806 13.9C17.105 13.9 17.3133 13.975 17.5056 14.125C17.6498 14.2583 17.8063 14.3707 17.9748 14.462C18.1428 14.554 18.3149 14.6417 18.4912 14.725C19.1539 15 20.2801 14.892 20.5769 14.5C20.6229 14.4522 20.6732 14.3913 20.7267 14.3199L22 11H15.5L14 9H13V8H11V9H10L8.5 11ZM10.5 10H13.5L14.25 11H9.75L10.5 10Z" fill="currentColor"/>
</svg>
