<svg width="24" height="24" viewBox="0 0 24 24"  xmlns="http://www.w3.org/2000/svg">
<path d="M5.03662 8.9999L6.03662 7L5.53662 6H9.03662L11.0366 10H22.0366L21.1969 13.3591C21.1544 13.4137 21.1142 13.4612 21.0769 13.5C20.7801 13.892 19.1539 14 18.4912 13.725C18.3149 13.6417 18.1428 13.554 17.9748 13.462C17.8063 13.3707 17.6498 13.2583 17.5056 13.125C17.3133 12.975 17.105 12.9 16.8806 12.9C16.6562 12.9 16.4479 12.975 16.2556 13.125C15.9351 13.3917 15.5825 13.604 15.1979 13.762C14.8133 13.9207 14.4127 14 13.996 14C13.5793 14 13.1787 13.9207 12.7941 13.762C12.4095 13.604 12.0569 13.3917 11.7364 13.125C11.5441 12.975 11.3357 12.9 11.1114 12.9C10.887 12.9 10.6787 12.975 10.4864 13.125C10.1659 13.3917 9.8133 13.604 9.42869 13.762C9.04407 13.9207 8.64343 14 8.22676 14C7.8101 14 7.40946 13.9207 7.02484 13.762C6.64023 13.604 6.28766 13.3917 5.96715 13.125C5.77484 12.975 5.56651 12.9 5.34215 12.9C5.11779 12.9 4.90946 12.975 4.71715 13.125C4.70309 13.138 4.68892 13.1508 4.67463 13.1634C4.43758 12.8067 4.10856 12.3982 3.76314 11.9694C2.94581 10.9546 2.03662 9.82577 2.03662 9L5.03662 8.9999Z" fill="currentColor"/>
<path d="M3.525 17.612C3.025 17.7373 2.51667 17.8 2 17.8C1.71667 17.8 1.47933 17.704 1.288 17.512C1.096 17.3207 1 17.0833 1 16.8C1 16.5167 1.096 16.2793 1.288 16.088C1.47933 15.896 1.71667 15.8 2 15.8C2.43333 15.8 2.86267 15.7457 3.288 15.637C3.71267 15.529 4.11667 15.3583 4.5 15.125C4.65 15.0417 4.81667 15 5 15C5.18333 15 5.35 15.0417 5.5 15.125C5.88333 15.3583 6.28767 15.529 6.713 15.637C7.13767 15.7457 7.56667 15.8 8 15.8C8.43333 15.8 8.86267 15.7457 9.288 15.637C9.71267 15.529 10.1167 15.3583 10.5 15.125C10.65 15.0417 10.821 15 11.013 15C11.2043 15 11.3667 15.0417 11.5 15.125C11.8833 15.3583 12.2877 15.529 12.713 15.637C13.1377 15.7457 13.5667 15.8 14 15.8C14.4333 15.8 14.8627 15.7457 15.288 15.637C15.7127 15.529 16.1167 15.3583 16.5 15.125C16.6333 15.0417 16.8 15 17 15C17.2 15 17.3667 15.0417 17.5 15.125C17.8833 15.3583 18.2873 15.529 18.712 15.637C19.1373 15.7457 19.5667 15.8 20 15.8C20.2833 15.8 20.5207 15.896 20.712 16.088C20.904 16.2793 21 16.5167 21 16.8C21 17.0833 20.904 17.3207 20.712 17.512C20.5207 17.704 20.2833 17.8 20 17.8C19.4833 17.8 18.975 17.7373 18.475 17.612C17.975 17.4873 17.4833 17.3 17 17.05C16.5167 17.3 16.025 17.4873 15.525 17.612C15.025 17.7373 14.5167 17.8 14 17.8C13.4833 17.8 12.975 17.7373 12.475 17.612C11.975 17.4873 11.4833 17.3 11 17.05C10.5167 17.3 10.025 17.4873 9.525 17.612C9.025 17.7373 8.51667 17.8 8 17.8C7.48333 17.8 6.975 17.7373 6.475 17.612C5.975 17.4873 5.48333 17.3 5 17.05C4.51667 17.3 4.025 17.4873 3.525 17.612Z" fill="currentColor"/>
</svg>
