<svg width="24" height="24" viewBox="0 0 24 24"  xmlns="http://www.w3.org/2000/svg">
<path d="M12 7H16V9H12V7Z" fill="currentColor"/>
<path d="M12 10H16V12H12V10Z" fill="currentColor"/>
<path d="M22 16.575V12.9999L2 13C2 14.9184 2.96524 16.1018 4.89572 16.6456C5.01526 16.5864 5.13298 16.5252 5.24888 16.462C5.41683 16.3707 5.57292 16.2583 5.71715 16.125C5.90946 15.975 6.11779 15.9 6.34215 15.9C6.56651 15.9 6.77484 15.975 6.96715 16.125C7.28766 16.3917 7.64023 16.604 8.02484 16.762C8.40946 16.9207 8.8101 17 9.22676 17C9.64343 17 10.0441 16.9207 10.4287 16.762C10.8133 16.604 11.1659 16.3917 11.4864 16.125C11.6787 15.975 11.887 15.9 12.1114 15.9C12.3357 15.9 12.5441 15.975 12.7364 16.125C13.0569 16.3917 13.4095 16.604 13.7941 16.762C14.1787 16.9207 14.5793 17 14.996 17C15.4127 17 15.8133 16.9207 16.1979 16.762C16.5825 16.604 16.9351 16.3917 17.2556 16.125C17.4479 15.975 17.6562 15.9 17.8806 15.9C18.105 15.9 18.3133 15.975 18.5056 16.125C18.6498 16.2583 18.8063 16.3707 18.9748 16.462C19.1428 16.554 19.3149 16.6417 19.4912 16.725C20.1094 16.9816 21.5664 16.9048 22 16.575Z" fill="currentColor"/>
<path d="M11 10H7V12H11V10Z" fill="currentColor"/>
<path d="M17 10H21V12H17V10Z" fill="currentColor"/>
<path d="M17 7H21V9H17V7Z" fill="currentColor"/>
<path d="M4.525 20.612C4.025 20.7373 3.51667 20.8 3 20.8C2.71667 20.8 2.47933 20.704 2.288 20.512C2.096 20.3207 2 20.0833 2 19.8C2 19.5167 2.096 19.2793 2.288 19.088C2.47933 18.896 2.71667 18.8 3 18.8C3.43333 18.8 3.86267 18.7457 4.288 18.637C4.71267 18.529 5.11667 18.3583 5.5 18.125C5.65 18.0417 5.81667 18 6 18C6.18333 18 6.35 18.0417 6.5 18.125C6.88333 18.3583 7.28767 18.529 7.713 18.637C8.13767 18.7457 8.56667 18.8 9 18.8C9.43333 18.8 9.86267 18.7457 10.288 18.637C10.7127 18.529 11.1167 18.3583 11.5 18.125C11.65 18.0417 11.821 18 12.013 18C12.2043 18 12.3667 18.0417 12.5 18.125C12.8833 18.3583 13.2877 18.529 13.713 18.637C14.1377 18.7457 14.5667 18.8 15 18.8C15.4333 18.8 15.8627 18.7457 16.288 18.637C16.7127 18.529 17.1167 18.3583 17.5 18.125C17.6333 18.0417 17.8 18 18 18C18.2 18 18.3667 18.0417 18.5 18.125C18.8833 18.3583 19.2873 18.529 19.712 18.637C20.1373 18.7457 20.5667 18.8 21 18.8C21.2833 18.8 21.5207 18.896 21.712 19.088C21.904 19.2793 22 19.5167 22 19.8C22 20.0833 21.904 20.3207 21.712 20.512C21.5207 20.704 21.2833 20.8 21 20.8C20.4833 20.8 19.975 20.7373 19.475 20.612C18.975 20.4873 18.4833 20.3 18 20.05C17.5167 20.3 17.025 20.4873 16.525 20.612C16.025 20.7373 15.5167 20.8 15 20.8C14.4833 20.8 13.975 20.7373 13.475 20.612C12.975 20.4873 12.4833 20.3 12 20.05C11.5167 20.3 11.025 20.4873 10.525 20.612C10.025 20.7373 9.51667 20.8 9 20.8C8.48333 20.8 7.975 20.7373 7.475 20.612C6.975 20.4873 6.48333 20.3 6 20.05C5.51667 20.3 5.025 20.4873 4.525 20.612Z" fill="currentColor"/>
</svg>
