<svg width="24" height="24" viewBox="0 0 24 24"  xmlns="http://www.w3.org/2000/svg">
<path fill-rule="evenodd" clip-rule="evenodd" d="M8.50003 7L8.00003 9.9999L2.69373 9.99999C2.35246 9.99999 2.11148 10.3343 2.2194 10.6581L3.47994 14.4397C3.76138 14.7363 4.0746 14.9981 4.41959 15.225C4.61702 15.1417 4.81015 15.054 4.99897 14.962C5.18707 14.8707 5.36189 14.7583 5.52343 14.625C5.73882 14.475 5.97215 14.4 6.22343 14.4C6.47471 14.4 6.70805 14.475 6.92343 14.625C7.28241 14.8917 7.67728 15.104 8.10805 15.262C8.53882 15.4207 8.98753 15.5 9.4542 15.5C9.92087 15.5 10.3696 15.4207 10.8004 15.262C11.2311 15.104 11.626 14.8917 11.985 14.625C12.2004 14.475 12.4337 14.4 12.685 14.4C12.9363 14.4 13.1696 14.475 13.385 14.625C13.7439 14.8917 14.1388 15.104 14.5696 15.262C15.0004 15.4207 15.4491 15.5 15.9157 15.5C16.3824 15.5 16.8311 15.4207 17.2619 15.262C17.6927 15.104 18.0875 14.8917 18.4465 14.625C18.6619 14.475 18.8952 14.4 19.1465 14.4C19.3978 14.4 19.6311 14.475 19.8465 14.625C20.008 14.7583 20.1832 14.8707 20.372 14.962C20.5602 15.054 20.7529 15.1417 20.9504 15.225C21.3406 14.9683 21.6905 14.667 22 14.3212V12H14L13 10V7H12V5H11V7H8.50003ZM12 8H9.50003L9.00003 10H12V8Z" fill="currentColor"/>
<path d="M4.525 19.112C4.025 19.2373 3.51667 19.3 3 19.3C2.71667 19.3 2.47933 19.204 2.288 19.012C2.096 18.8207 2 18.5833 2 18.3C2 18.0167 2.096 17.7793 2.288 17.588C2.47933 17.396 2.71667 17.3 3 17.3C3.43333 17.3 3.86267 17.2457 4.288 17.137C4.71267 17.029 5.11667 16.8583 5.5 16.625C5.65 16.5417 5.81667 16.5 6 16.5C6.18333 16.5 6.35 16.5417 6.5 16.625C6.88333 16.8583 7.28767 17.029 7.713 17.137C8.13767 17.2457 8.56667 17.3 9 17.3C9.43333 17.3 9.86267 17.2457 10.288 17.137C10.7127 17.029 11.1167 16.8583 11.5 16.625C11.65 16.5417 11.821 16.5 12.013 16.5C12.2043 16.5 12.3667 16.5417 12.5 16.625C12.8833 16.8583 13.2877 17.029 13.713 17.137C14.1377 17.2457 14.5667 17.3 15 17.3C15.4333 17.3 15.8627 17.2457 16.288 17.137C16.7127 17.029 17.1167 16.8583 17.5 16.625C17.6333 16.5417 17.8 16.5 18 16.5C18.2 16.5 18.3667 16.5417 18.5 16.625C18.8833 16.8583 19.2873 17.029 19.712 17.137C20.1373 17.2457 20.5667 17.3 21 17.3C21.2833 17.3 21.5207 17.396 21.712 17.588C21.904 17.7793 22 18.0167 22 18.3C22 18.5833 21.904 18.8207 21.712 19.012C21.5207 19.204 21.2833 19.3 21 19.3C20.4833 19.3 19.975 19.2373 19.475 19.112C18.975 18.9873 18.4833 18.8 18 18.55C17.5167 18.8 17.025 18.9873 16.525 19.112C16.025 19.2373 15.5167 19.3 15 19.3C14.4833 19.3 13.975 19.2373 13.475 19.112C12.975 18.9873 12.4833 18.8 12 18.55C11.5167 18.8 11.025 18.9873 10.525 19.112C10.025 19.2373 9.51667 19.3 9 19.3C8.48333 19.3 7.975 19.2373 7.475 19.112C6.975 18.9873 6.48333 18.8 6 18.55C5.51667 18.8 5.025 18.9873 4.525 19.112Z" fill="currentColor"/>
</svg>
