<svg width="24" height="24" viewBox="0 0 24 24"  xmlns="http://www.w3.org/2000/svg">
<path d="M13.7061 5.95701C13.7061 5.95701 12.0632 3.35505 13.9621 1.37454C16.0339 0.531979 17.872 1.37428 17.872 1.37428C17.872 1.37428 16.5823 2.89782 17.4861 5.44676C17.4861 5.44676 15.6074 5.20304 13.7061 5.95701Z" fill="currentColor"/>
<path d="M8.96983 6.12744C8.96983 6.12744 7.80959 4.26447 9.48252 2.55029C9.95594 2.16098 11.1967 2.15123 11.7578 2.19502C11.543 2.76493 11.3257 4.18348 11.9545 5.74463C11.9545 5.74463 10.6884 5.5421 8.96983 6.12744Z" fill="currentColor"/>
<path d="M14.2573 7.36519C11.2897 10.3751 14.2575 14.2569 14.2575 14.2569C16.8776 13.2263 18.5151 13.9248 18.5151 13.9248C16.0761 9.25294 18.7783 7.36518 18.7783 7.36518C18.7783 7.36518 16.8774 6.33258 14.2573 7.36519Z" fill="currentColor"/>
<path d="M8.86129 13.436C8.86129 13.436 6.52239 10.2429 9.08349 7.64616C11.1385 6.93213 12.3651 7.32638 12.3651 7.32638C12.3651 7.32638 10.5599 9.67711 11.9728 13.1319C11.9728 13.1319 10.4874 12.781 8.86129 13.436Z" fill="currentColor"/>
<path d="M22.0366 14.3891C9.5 16.8891 2.03662 13.3891 2.03662 13.3891L1 12.8891V13.3891L2.78662 14.3891L5.14974 18.0154C5.18294 17.9977 5.21598 17.98 5.24888 17.962C5.41683 17.8707 5.57292 17.7583 5.71715 17.625C5.90946 17.475 6.11779 17.4 6.34215 17.4C6.56651 17.4 6.77484 17.475 6.96715 17.625C7.28766 17.8917 7.64023 18.104 8.02484 18.262C8.40946 18.4207 8.8101 18.5 9.22676 18.5C9.64343 18.5 10.0441 18.4207 10.4287 18.262C10.8133 18.104 11.1659 17.8917 11.4864 17.625C11.6787 17.475 11.887 17.4 12.1114 17.4C12.3357 17.4 12.5441 17.475 12.7364 17.625C13.0569 17.8917 13.4095 18.104 13.7941 18.262C14.1787 18.4207 14.5793 18.5 14.996 18.5C15.4127 18.5 15.8133 18.4207 16.1979 18.262C16.5825 18.104 16.9351 17.8917 17.2556 17.625C17.4479 17.475 17.6562 17.4 17.8806 17.4C18.105 17.4 18.3133 17.475 18.5056 17.625C18.6498 17.7583 18.8063 17.8707 18.9748 17.962C19.1428 18.054 19.3149 18.1417 19.4912 18.225C19.7435 18.3297 20.1355 18.3789 20.5406 18.378L22.0366 14.3891Z" fill="currentColor"/>
<path d="M4.525 22.112C4.025 22.2373 3.51667 22.3 3 22.3C2.71667 22.3 2.47933 22.204 2.288 22.012C2.096 21.8207 2 21.5833 2 21.3C2 21.0167 2.096 20.7793 2.288 20.588C2.47933 20.396 2.71667 20.3 3 20.3C3.43333 20.3 3.86267 20.2457 4.288 20.137C4.71267 20.029 5.11667 19.8583 5.5 19.625C5.65 19.5417 5.81667 19.5 6 19.5C6.18333 19.5 6.35 19.5417 6.5 19.625C6.88333 19.8583 7.28767 20.029 7.713 20.137C8.13767 20.2457 8.56667 20.3 9 20.3C9.43333 20.3 9.86267 20.2457 10.288 20.137C10.7127 20.029 11.1167 19.8583 11.5 19.625C11.65 19.5417 11.821 19.5 12.013 19.5C12.2043 19.5 12.3667 19.5417 12.5 19.625C12.8833 19.8583 13.2877 20.029 13.713 20.137C14.1377 20.2457 14.5667 20.3 15 20.3C15.4333 20.3 15.8627 20.2457 16.288 20.137C16.7127 20.029 17.1167 19.8583 17.5 19.625C17.6333 19.5417 17.8 19.5 18 19.5C18.2 19.5 18.3667 19.5417 18.5 19.625C18.8833 19.8583 19.2873 20.029 19.712 20.137C20.1373 20.2457 20.5667 20.3 21 20.3C21.2833 20.3 21.5207 20.396 21.712 20.588C21.904 20.7793 22 21.0167 22 21.3C22 21.5833 21.904 21.8207 21.712 22.012C21.5207 22.204 21.2833 22.3 21 22.3C20.4833 22.3 19.975 22.2373 19.475 22.112C18.975 21.9873 18.4833 21.8 18 21.55C17.5167 21.8 17.025 21.9873 16.525 22.112C16.025 22.2373 15.5167 22.3 15 22.3C14.4833 22.3 13.975 22.2373 13.475 22.112C12.975 21.9873 12.4833 21.8 12 21.55C11.5167 21.8 11.025 21.9873 10.525 22.112C10.025 22.2373 9.51667 22.3 9 22.3C8.48333 22.3 7.975 22.2373 7.475 22.112C6.975 21.9873 6.48333 21.8 6 21.55C5.51667 21.8 5.025 21.9873 4.525 22.112Z" fill="currentColor"/>
</svg>
