<svg width="24" height="24" viewBox="0 0 24 24"  xmlns="http://www.w3.org/2000/svg">
<path fill-rule="evenodd" clip-rule="evenodd" d="M18.2132 4.84772C17.1309 4.01199 15.8015 3.55876 14.4313 3.55831C13.061 3.55786 11.7264 4.01022 10.6345 4.84523L9.69431 3.60855C11.0592 2.56479 12.7274 1.99934 14.4403 1.9999C16.1531 2.00046 17.8148 2.56701 19.1677 3.61166C20.5205 4.65631 21.4889 6.12069 21.9227 7.77769C22.3564 9.43468 22.2313 11.1917 21.5667 12.7762L20.1324 12.1793C20.6641 10.9117 20.7642 9.50614 20.4172 8.18054C20.0702 6.85494 19.2955 5.68344 18.2132 4.84772ZM14.4502 10.5391C14.7923 10.5849 15.1491 10.452 15.3753 10.159C15.4552 10.0557 15.5121 9.94199 15.5457 9.82331C15.5797 9.70425 15.591 9.58096 15.5799 9.4595C15.5688 9.33492 15.534 9.21215 15.4771 9.09884C15.4122 8.96882 15.3179 8.85127 15.195 8.75637C14.9662 8.5797 14.6849 8.51735 14.4206 8.5609C14.1801 8.60069 13.9533 8.72819 13.7923 8.93669C13.5661 9.22963 13.5278 9.60843 13.6587 9.92788L12.3546 11.6168L6.81409 7.33852C5.59845 8.91281 5.05781 10.9056 5.31124 12.8783C5.56543 14.8516 6.59199 16.6428 8.16647 17.8586C9.74096 19.0743 11.7335 19.6145 13.7069 19.3613C15.6796 19.1076 17.4709 18.0805 18.6865 16.5062L13.146 12.2279L14.4502 10.5391ZM14.4133 6.67513C15.0984 6.67535 15.7631 6.90197 16.3043 7.31983C16.8454 7.73769 17.2328 8.32345 17.4063 8.98624C17.5798 9.64904 17.5297 10.3518 17.2639 10.9856L18.6982 11.5825C19.0969 10.6318 19.172 9.57759 18.9118 8.58339C18.6515 7.5892 18.0704 6.71057 17.2587 6.08377C16.447 5.45698 15.45 5.11706 14.4223 5.11672C13.3946 5.11638 12.3937 5.45565 11.5747 6.08191L12.5149 7.31859C13.0609 6.90108 13.7282 6.6749 14.4133 6.67513ZM13 20.5354C13.4671 20.5354 13.9259 20.4998 14.3739 20.4312L16 22.0679H2L5.97259 17.1587C7.62194 19.2172 10.157 20.5354 13 20.5354Z" fill="currentColor"/>
</svg>
