<svg width="224" height="224" viewBox="0 0 224 224" fill="none" xmlns="http://www.w3.org/2000/svg">
<path d="M116.701 116.923C98.3078 176.761 155.93 202.404 191.346 183.693C190.913 184.142 190.474 184.588 190.031 185.032C150.197 224.865 85.6145 224.865 45.781 185.032C28.5699 167.819 30.2918 140.07 44.61 121.585C51.682 112.454 61.6691 105.859 73.599 104.095C85.5004 102.336 99.8051 105.317 115.64 116.203C115.994 116.446 116.348 116.686 116.701 116.923Z" fill="rgb(83, 83, 83)" fill-opacity="0.7"/>
<path d="M45.7814 40.7818C85.6148 0.948366 150.198 0.948374 190.031 40.7819C209.923 60.674 207.905 88.397 193.203 106.026C185.877 114.811 175.448 121.005 163.062 122.417C150.694 123.827 136.018 120.504 120.172 109.611C103.007 97.8095 86.699 94.0715 72.4292 96.1814C58.188 98.287 46.4459 106.15 38.2856 116.686C29.7652 127.686 24.9738 141.908 25.3962 155.936C7.84433 118.193 14.6394 71.9238 45.7814 40.7818Z" fill="rgb(83, 83, 83)"/>
</svg>
