<svg width="36" height="36" viewBox="0 0 36 36" fill="none" xmlns="http://www.w3.org/2000/svg">
<path d="M2 18L33.9993 18.1673" stroke="#3D3D3D" stroke-width="1.5" stroke-linecap="round"/>
<circle cx="18" cy="18" r="10.5" fill="#F0F0F0" stroke="#F0F0F0"/>
<path fill-rule="evenodd" clip-rule="evenodd" d="M23 18C23 20.7614 20.7614 23 18 23C15.2386 23 13 20.7614 13 18C13 15.2386 15.2386 13 18 13C20.7614 13 23 15.2386 23 18ZM21 18C21 19.6569 19.6569 21 18 21C16.3431 21 15 19.6569 15 18C15 16.3431 16.3431 15 18 15C19.6569 15 21 16.3431 21 18Z" fill="#3D3D3D"/>
<path fill-rule="evenodd" clip-rule="evenodd" d="M28 18C28 23.5228 23.5228 28 18 28C12.4772 28 8 23.5228 8 18C8 12.4772 12.4772 8 18 8C23.5228 8 28 12.4772 28 18ZM26 18C26 22.4183 22.4183 26 18 26C13.5817 26 10 22.4183 10 18C10 13.5817 13.5817 10 18 10C22.4183 10 26 13.5817 26 18Z" fill="#3D3D3D"/>
</svg>
