<svg width="24" height="24" viewBox="0 0 24 24" fill="none" xmlns="http://www.w3.org/2000/svg">
<path d="M18 15.6076V22H6V15.6076C6.40062 16.2725 6.90862 16.8653 7.5 17.3621V20.5H16.5V17.3621C17.0914 16.8653 17.5994 16.2725 18 15.6076Z" fill="#3D3D3D"/>
<path d="M18 8.39241V6.99988C18 3.68617 15.3137 0.999878 12 0.999878C8.68629 0.999878 6 3.68617 6 6.99988V8.39241C6.40409 7.72179 6.91744 7.12443 7.51539 6.62499C7.7059 4.31511 9.64096 2.49988 12 2.49988C14.359 2.49988 16.2941 4.31511 16.4846 6.62499C17.0826 7.12443 17.5959 7.72179 18 8.39241Z" fill="#3D3D3D"/>
<path fill-rule="evenodd" clip-rule="evenodd" d="M16.5 8.03126C17.4335 9.08896 18 10.4783 18 12C18 13.5217 17.4335 14.911 16.5 15.9687C15.4006 17.2144 13.792 18 12 18C10.208 18 8.59942 17.2144 7.5 15.9687C6.56645 14.911 6 13.5217 6 12C6 10.4783 6.56645 9.08896 7.5 8.03126C8.59942 6.78563 10.208 6 12 6C13.792 6 15.4006 6.78563 16.5 8.03126ZM15.8978 14.2504C16.2808 13.5884 16.5 12.8198 16.5 12C16.5 11.1802 16.2808 10.4116 15.8978 9.74963L14.5987 10.4996C14.4728 10.2819 14.3173 10.0765 14.1321 9.88952C14.6687 10.4315 15 11.1771 15 12C15 12.8268 14.6655 13.5755 14.1245 14.1181C14.313 13.9291 14.4711 13.7211 14.5987 13.5004L15.8978 14.2504ZM8.10224 9.74963C7.71922 10.4116 7.5 11.1802 7.5 12C7.5 12.8198 7.71922 13.5884 8.10224 14.2504L9.40128 13.5004C9.52962 13.7223 9.68876 13.9314 9.87868 14.1213C10.0686 14.3112 10.2777 14.4704 10.4996 14.5987L9.74962 15.8978C10.4116 16.2808 11.1802 16.5 12 16.5C12.8198 16.5 13.5884 16.2808 14.2504 15.8978L13.5004 14.5987C13.7211 14.4711 13.9291 14.313 14.1181 14.1245C13.5755 14.6655 12.8268 15 12 15C10.3431 15 9 13.6569 9 12C9 11.1732 9.33448 10.4245 9.8755 9.88186C9.68698 10.0709 9.52891 10.2789 9.40128 10.4996L8.10224 9.74963ZM9.74911 8.10253L10.4996 9.40128C10.2789 9.52891 10.0709 9.68698 9.88186 9.8755C10.4245 9.33448 11.1732 9 12 9C12.8229 9 13.5685 9.33134 14.1105 9.8679C13.9235 9.68273 13.7181 9.52719 13.5004 9.40128L14.2504 8.10224C13.5884 7.71922 12.8198 7.5 12 7.5C11.18 7.5 10.4112 7.71933 9.74911 8.10253ZM12 13.5C12.8284 13.5 13.5 12.8284 13.5 12C13.5 11.1716 12.8284 10.5 12 10.5C11.1716 10.5 10.5 11.1716 10.5 12C10.5 12.8284 11.1716 13.5 12 13.5Z" fill="#3D3D3D"/>
</svg>
