<svg width="24" height="24" viewBox="0 0 24 24" fill="none" xmlns="http://www.w3.org/2000/svg">
<path d="M9 12H11V14H9V12Z" fill="white"/>
<path d="M11 9H9V11H11V9Z" fill="white"/>
<path d="M9 15H11V17H9V15Z" fill="white"/>
<path d="M11 18H9V20H11V18Z" fill="white"/>
<path d="M13 12H15V14H13V12Z" fill="white"/>
<path d="M15 9H13V11H15V9Z" fill="white"/>
<path d="M13 15H15V17H13V15Z" fill="white"/>
<path d="M15 18H13V20H15V18Z" fill="white"/>
<path fill-rule="evenodd" clip-rule="evenodd" d="M6 6C6 3.23858 8.23858 1 11 1H13C15.7614 1 18 3.23858 18 6V23H6V6ZM11 2.5H11.0144H12.9856H13C13.1162 2.5 13.2312 2.50567 13.3445 2.51674C15.1158 2.68979 16.5 4.18325 16.5 6V7.25L13.3445 2.51674C12.7049 1.55734 11.2951 1.55734 10.6555 2.51674L7.5 7.25V6C7.5 4.18325 8.88421 2.68979 10.6555 2.51674C10.7688 2.50567 10.8838 2.5 11 2.5ZM7.5 9V21.5H16.5V9L12.9856 2.5C12.562 1.71659 11.438 1.71659 11.0144 2.5L7.5 9Z" fill="white"/>
<path fill-rule="evenodd" clip-rule="evenodd" d="M12.9856 2.5H11.0144L7.5 9V21.5H16.5V9L12.9856 2.5ZM9 12H11V14H9V12ZM11 9H9V11H11V9ZM9 15H11V17H9V15ZM11 18H9V20H11V18ZM13 12H15V14H13V12ZM15 9H13V11H15V9ZM13 15H15V17H13V15ZM15 18H13V20H15V18Z" fill="white"/>
<path d="M16.5 6C16.5 4.18325 15.1158 2.68979 13.3445 2.51674L16.5 7.25V6Z" fill="white"/>
<path d="M7.5 7.25L10.6555 2.51674C8.88421 2.68979 7.5 4.18325 7.5 6V7.25Z" fill="white"/>
<path d="M9 12H11V14H9V12Z" fill="#535353"/>
<path d="M11 9H9V11H11V9Z" fill="#535353"/>
<path d="M9 15H11V17H9V15Z" fill="#535353"/>
<path d="M11 18H9V20H11V18Z" fill="#535353"/>
<path d="M13 12H15V14H13V12Z" fill="#535353"/>
<path d="M15 9H13V11H15V9Z" fill="#535353"/>
<path d="M13 15H15V17H13V15Z" fill="#535353"/>
<path d="M15 18H13V20H15V18Z" fill="#535353"/>
<path fill-rule="evenodd" clip-rule="evenodd" d="M6 6C6 3.23858 8.23858 1 11 1H13C15.7614 1 18 3.23858 18 6V23H6V6ZM11 2.5H13C14.933 2.5 16.5 4.067 16.5 6V7.25C14.3593 4.0389 9.64073 4.0389 7.5 7.25V6C7.5 4.067 9.067 2.5 11 2.5ZM7.5 9V21.5H16.5V9C14.5661 5.42321 9.43388 5.42321 7.5 9Z" fill="#535353"/>
</svg>
