<svg width="24" height="24" viewBox="0 0 24 24" fill="none" xmlns="http://www.w3.org/2000/svg">
<path fill-rule="evenodd" clip-rule="evenodd" d="M9 11C9 9.89543 9.89543 9 11 9H13C14.1046 9 15 9.89543 15 11V15C15 16.1046 14.1046 17 13 17H11C9.89543 17 9 16.1046 9 15V11ZM10.5 11C10.5 10.7239 10.7239 10.5 11 10.5H13C13.2761 10.5 13.5 10.7239 13.5 11V15C13.5 15.2761 13.2761 15.5 13 15.5H11C10.7239 15.5 10.5 15.2761 10.5 15V11Z" fill="white"/>
<path fill-rule="evenodd" clip-rule="evenodd" d="M18 8.26607V22.5H6V8.26607C6 8.26071 6.00001 8.25536 6.00002 8.25H5.5C5.08579 8.25 4.75 7.91421 4.75 7.5C4.75 7.08579 5.08579 6.75 5.5 6.75H6.14449C6.68397 3.95093 8.69277 1.60241 11.4702 0.676607L12 0.5L12.5298 0.676607C15.3072 1.60241 17.316 3.95093 17.8555 6.75H18.5C18.9142 6.75 19.25 7.08579 19.25 7.5C19.25 7.91421 18.9142 8.25 18.5 8.25H18C18 8.25536 18 8.26071 18 8.26607ZM16.5 8.25L16.5 8.26607V18.25H7.5V8.26607L7.50002 8.25H9.375C10.516 6.18531 13.484 6.18531 14.625 8.25H16.5ZM16.3212 6.75C15.8062 4.60194 14.2174 2.82029 12.0555 2.09963L12 2.08114L11.9445 2.09963C9.78256 2.82029 8.19378 4.60194 7.67883 6.75H8.625L9.02682 6.30353C10.6158 4.53801 13.3842 4.53801 14.9732 6.30353L15.375 6.75H16.3212ZM7.5 21V19.75H16.5V21H7.5Z" fill="white"/>
<path d="M7.5 19.75V21H16.5V19.75H7.5Z" fill="white"/>
<path fill-rule="evenodd" clip-rule="evenodd" d="M16.5 8.26607L16.5 8.25H14.625C13.484 6.18531 10.516 6.18531 9.375 8.25H7.50002L7.5 8.26607V18.25H16.5V8.26607ZM9 11C9 9.89543 9.89543 9 11 9H13C14.1046 9 15 9.89543 15 11V15C15 16.1046 14.1046 17 13 17H11C9.89543 17 9 16.1046 9 15V11Z" fill="white"/>
<path d="M12.0555 2.09963C14.2174 2.82029 15.8062 4.60194 16.3212 6.75H15.375L14.9732 6.30353C13.3842 4.53801 10.6158 4.53801 9.02682 6.30353L8.625 6.75H7.67883C8.19378 4.60194 9.78256 2.82029 11.9445 2.09963L12 2.08114L12.0555 2.09963Z" fill="white"/>
<path d="M11 10.5C10.7239 10.5 10.5 10.7239 10.5 11V15C10.5 15.2761 10.7239 15.5 11 15.5H13C13.2761 15.5 13.5 15.2761 13.5 15V11C13.5 10.7239 13.2761 10.5 13 10.5H11Z" fill="white"/>
<path fill-rule="evenodd" clip-rule="evenodd" d="M9 11C9 9.89543 9.89543 9 11 9H13C14.1046 9 15 9.89543 15 11V15C15 16.1046 14.1046 17 13 17H11C9.89543 17 9 16.1046 9 15V11ZM10.5 11C10.5 10.7239 10.7239 10.5 11 10.5H13C13.2761 10.5 13.5 10.7239 13.5 11V15C13.5 15.2761 13.2761 15.5 13 15.5H11C10.7239 15.5 10.5 15.2761 10.5 15V11Z" fill="#535353"/>
<path fill-rule="evenodd" clip-rule="evenodd" d="M18 8.26607V22.5H6V8.26607C6 8.26071 6.00001 8.25536 6.00002 8.25H5.5C5.08579 8.25 4.75 7.91421 4.75 7.5C4.75 7.08579 5.08579 6.75 5.5 6.75H6.14449C6.68397 3.95093 8.69277 1.60241 11.4702 0.676607L12 0.5L12.5298 0.676607C15.3072 1.60241 17.316 3.95093 17.8555 6.75H18.5C18.9142 6.75 19.25 7.08579 19.25 7.5C19.25 7.91421 18.9142 8.25 18.5 8.25H18C18 8.25536 18 8.26071 18 8.26607ZM16.5 8.25L16.5 8.26607V18.25H7.5V8.26607L7.50002 8.25H9.375C10.516 6.18531 13.484 6.18531 14.625 8.25H16.5ZM16.3212 6.75C15.8062 4.60194 14.2174 2.82029 12.0555 2.09963L12 2.08114L11.9445 2.09963C9.78256 2.82029 8.19378 4.60194 7.67883 6.75H8.625L9.02682 6.30353C10.6158 4.53801 13.3842 4.53801 14.9732 6.30353L15.375 6.75H16.3212ZM7.5 21V19.75H16.5V21H7.5Z" fill="#535353"/>
</svg>
