<svg width="24" height="24" viewBox="0 0 24 24" fill="none" xmlns="http://www.w3.org/2000/svg">
<path fill-rule="evenodd" clip-rule="evenodd" d="M6 21.9607V10.5651C6.035 6.90422 7 3.78733 12.0001 2C17 3.5 17.9648 6.90415 17.9998 10.5648V21.9607H6ZM15.4998 20.4607V10.5723C15.4709 7.78553 14.1013 5.31822 12.0001 3.78733C9.89863 5.31821 8.52886 7.78563 8.5 10.5725V20.4607H15.4998Z" fill="white"/>
<path d="M15.4998 10.5723V20.4607H8.5V10.5725C8.52886 7.78563 9.89863 5.31821 12.0001 3.78733C14.1013 5.31822 15.4709 7.78553 15.4998 10.5723Z" fill="white"/>
<path fill-rule="evenodd" clip-rule="evenodd" d="M12.8449 4.38223C12.5763 4.23505 12.2942 4.10693 12 3.99995C11.7058 4.10693 11.4237 4.23505 11.1551 4.38223L10.194 2.62825C10.5513 2.43249 10.9262 2.2623 11.3165 2.12037L12 1.87183L12.6835 2.12037C13.0738 2.2623 13.4487 2.43249 13.806 2.62825L12.8449 4.38223ZM9.68778 5.50775L8.24295 4.12483C7.67347 4.71981 7.19795 5.39871 6.83341 6.13723L8.62684 7.02247C8.9012 6.46662 9.25917 5.95556 9.68778 5.50775ZM8.07051 8.78604L6.09371 8.4823C6.03184 8.88497 6 9.29544 6 9.71076V10.5682H8V9.71076C8 9.39772 8.02399 9.08879 8.07051 8.78604ZM8 12.2831H6V13.9979H8V12.2831ZM8 15.7128H6V17.4277H8V15.7128ZM8 19.1425H6V22H9V20H8V19.1425ZM11 20V22H13V20H11ZM15 20V22H18V19.1425H16V20H15ZM16 17.4277H18V15.7128H16V17.4277ZM16 13.9979H18V12.2831H16V13.9979ZM16 10.5682H18V9.71076C18 9.29545 17.9682 8.88498 17.9063 8.48231L15.9295 8.78604C15.976 9.08879 16 9.39773 16 9.71076V10.5682ZM15.3732 7.02247L17.1666 6.13723C16.8021 5.39871 16.3265 4.71981 15.757 4.12484L14.3122 5.50776C14.7408 5.95556 15.0988 6.46663 15.3732 7.02247Z" fill="#535353"/>
</svg>
