<svg width="24" height="24" viewBox="0 0 24 24" fill="none" xmlns="http://www.w3.org/2000/svg">
<path d="M13 17V7H15V17H13Z" fill="#3D3D3D"/>
<path d="M9 7V17H11V7H9Z" fill="#3D3D3D"/>
<path fill-rule="evenodd" clip-rule="evenodd" d="M15.1307 4L12 0.347549L8.86933 4H8C6.89543 4 6 4.89543 6 6V18C6 19.1046 6.89543 20 8 20H16C17.1046 20 18 19.1046 18 18V6C18 4.89543 17.1046 4 16 4H15.1307ZM13.1551 4L12 2.65244L10.8449 4H13.1551ZM7.5 6C7.5 5.72386 7.72386 5.5 8 5.5H16C16.2761 5.5 16.5 5.72386 16.5 6V18C16.5 18.2761 16.2761 18.5 16 18.5H8C7.72386 18.5 7.5 18.2761 7.5 18V6Z" fill="#3D3D3D"/>
</svg>
