<svg width="24" height="24" viewBox="0 0 24 24" fill="none" xmlns="http://www.w3.org/2000/svg">
<path fill-rule="evenodd" clip-rule="evenodd" d="M10 21H6.54546L6.21132 11.9572C6.07765 8.33964 7.58421 4.85506 10.3112 2.47431L12 1L13.6888 2.47431C16.4158 4.85505 17.9223 8.33964 17.7887 11.9572L17.4545 21H14V22C14 22.5523 13.5523 23 13 23H11C10.4477 23 10 22.5523 10 22V21ZM11.2977 3.60429L12 2.99119L12.7023 3.60429C15.0884 5.68744 16.4067 8.73645 16.2897 11.9018L16.0089 19.5H14V18C14 17.4477 13.5523 17 13 17H11C10.4477 17 10 17.4477 10 18V19.5H7.99105L7.7103 11.9018C7.59334 8.73645 8.91158 5.68744 11.2977 3.60429Z" fill="white"/>
<path d="M12 2.99119L11.2977 3.60429C8.91158 5.68744 7.59334 8.73645 7.7103 11.9018L7.99105 19.5H10V18C10 17.4477 10.4477 17 11 17H13C13.5523 17 14 17.4477 14 18V19.5H16.0089L16.2897 11.9018C16.4067 8.73645 15.0884 5.68744 12.7023 3.60429L12 2.99119Z" fill="white"/>
<path fill-rule="evenodd" clip-rule="evenodd" d="M10 21H6.54546L6.21132 11.9572C6.07765 8.33964 7.58421 4.85506 10.3112 2.47431L12 1L13.6888 2.47431C16.4158 4.85505 17.9223 8.33964 17.7887 11.9572L17.4545 21H14V22C14 22.5523 13.5523 23 13 23H11C10.4477 23 10 22.5523 10 22V21ZM11.2977 3.60429L12 2.99119L12.7023 3.60429C15.0884 5.68744 16.4067 8.73645 16.2897 11.9018L16.0089 19.5H14V18C14 17.4477 13.5523 17 13 17H11C10.4477 17 10 17.4477 10 18V19.5H7.99105L7.7103 11.9018C7.59334 8.73645 8.91158 5.68744 11.2977 3.60429Z" fill="#535353"/>
</svg>
