<svg width="24" height="24" viewBox="0 0 24 24" fill="none" xmlns="http://www.w3.org/2000/svg">
<path fill-rule="evenodd" clip-rule="evenodd" d="M12 2.58114L11.9445 2.59963C9.78256 3.32029 8.19378 5.10194 7.67883 7.25H9.375L10.875 9.25H13.125L14.625 7.25H16.3212C15.8062 5.10194 14.2174 3.32029 12.0555 2.59963L12 2.58114ZM7.5 8.76607L7.50002 8.75H8.625L10.125 10.75H13.875L15.375 8.75H16.5L16.5 8.76607V21.5H7.5V8.76607ZM18 23H6V8.76607C6 5.32263 8.20344 2.26552 11.4702 1.17661L12 1L12.5298 1.17661C15.7966 2.26552 18 5.32263 18 8.76607V23ZM10.5 20C11.3284 20 12 19.3284 12 18.5C12 17.6716 11.3284 17 10.5 17C9.67157 17 9 17.6716 9 18.5C9 19.3284 9.67157 20 10.5 20ZM12 14.5C12 15.3284 11.3284 16 10.5 16C9.67157 16 9 15.3284 9 14.5C9 13.6716 9.67157 13 10.5 13C11.3284 13 12 13.6716 12 14.5ZM15 13H13V20H15V13Z" fill="#3D3D3D"/>
</svg>
