<svg width="24" height="24" viewBox="0 0 24 24" fill="none" xmlns="http://www.w3.org/2000/svg">
<path fill-rule="evenodd" clip-rule="evenodd" d="M12.7496 21H15.9996L16.4214 19.3128C17.9127 13.3479 16.6185 7.05783 12.9595 2.18358C12.6557 1.77897 12.3357 1.38411 11.9996 1C11.6635 1.38411 11.3435 1.77897 11.0397 2.18358C7.38069 7.05783 6.08658 13.3479 7.5778 19.3128L7.99962 21H11.2496V23C11.2496 23.4142 11.5854 23.75 11.9996 23.75C12.4138 23.75 12.7496 23.4142 12.7496 23V21ZM14.8285 19.5L14.9662 18.9489C16.3143 13.5567 15.2047 7.8775 11.9996 3.41074C8.79449 7.8775 7.68495 13.5567 9.03302 18.9489L9.17078 19.5H11.2496L11.2496 11.7993C10.8013 11.54 10.4996 11.0552 10.4996 10.5C10.4996 9.67157 11.1712 9 11.9996 9C12.828 9 13.4996 9.67157 13.4996 10.5C13.4996 11.0552 13.198 11.54 12.7496 11.7993L12.7496 19.5H14.8285Z" fill="white"/>
<path d="M14.9662 18.9489L14.8285 19.5H12.7496L12.7496 11.7993C13.198 11.54 13.4996 11.0552 13.4996 10.5C13.4996 9.67157 12.828 9 11.9996 9C11.1712 9 10.4996 9.67157 10.4996 10.5C10.4996 11.0552 10.8013 11.54 11.2496 11.7993L11.2496 19.5H9.17078L9.03302 18.9489C7.68495 13.5567 8.79449 7.8775 11.9996 3.41074C15.2047 7.8775 16.3143 13.5567 14.9662 18.9489Z" fill="white"/>
<path fill-rule="evenodd" clip-rule="evenodd" d="M12.7496 21H15.9996L16.4214 19.3128C17.9127 13.3479 16.6185 7.05783 12.9595 2.18358C12.6557 1.77897 12.3357 1.38411 11.9996 1C11.6635 1.38411 11.3435 1.77897 11.0397 2.18358C7.38069 7.05783 6.08658 13.3479 7.5778 19.3128L7.99962 21H11.2496V23C11.2496 23.4142 11.5854 23.75 11.9996 23.75C12.4138 23.75 12.7496 23.4142 12.7496 23V21ZM14.8285 19.5L14.9662 18.9489C16.3143 13.5567 15.2047 7.8775 11.9996 3.41074C8.79449 7.8775 7.68495 13.5567 9.03302 18.9489L9.17078 19.5H11.2496L11.2496 11.7993C10.8013 11.54 10.4996 11.0552 10.4996 10.5C10.4996 9.67157 11.1712 9 11.9996 9C12.828 9 13.4996 9.67157 13.4996 10.5C13.4996 11.0552 13.198 11.54 12.7496 11.7993L12.7496 19.5H14.8285Z" fill="#535353"/>
</svg>
