<svg width="24" height="24" viewBox="0 0 24 24" fill="none" xmlns="http://www.w3.org/2000/svg">
<path d="M11 13C10.4477 13 10 13.4477 10 14C10 14.5523 10.4477 15 11 15H13C13.5523 15 14 14.5523 14 14C14 13.4477 13.5523 13 13 13H11Z" fill="#3D3D3D"/>
<path d="M10 10.5C10 9.94771 10.4477 9.5 11 9.5H13C13.5523 9.5 14 9.94771 14 10.5C14 11.0523 13.5523 11.5 13 11.5H11C10.4477 11.5 10 11.0523 10 10.5Z" fill="#3D3D3D"/>
<path d="M11 6C10.4477 6 10 6.44772 10 7C10 7.55228 10.4477 8 11 8H13C13.5523 8 14 7.55228 14 7C14 6.44772 13.5523 6 13 6H11Z" fill="#3D3D3D"/>
<path fill-rule="evenodd" clip-rule="evenodd" d="M7 18H5.75C5.33579 18 5 18.3358 5 18.75C5 19.1642 5.33579 19.5 5.75 19.5H7V22H17V19.5H18.25C18.6642 19.5 19 19.1642 19 18.75C19 18.3358 18.6642 18 18.25 18H17V8.13589C17 4.52847 15.1638 2.32578 12.4415 1.18502L12 1L11.5585 1.18502C8.8362 2.32578 7 4.52847 7 8.13589V18ZM8.5 8.13589C8.5 6.59736 8.88734 5.45436 9.48804 4.5945C10.0693 3.76246 10.9128 3.10684 12 2.62785C13.0872 3.10684 13.9307 3.76246 14.512 4.5945C15.1127 5.45436 15.5 6.59736 15.5 8.13589V18H14C14 17.1716 13.3284 16.5 12.5 16.5H11.5C10.6716 16.5 10 17.1716 10 18H8.5V8.13589ZM8.5 20.5V19.5H15.5V20.5H8.5Z" fill="#3D3D3D"/>
</svg>
