<svg width="24" height="24" viewBox="0 0 24 24" fill="none" xmlns="http://www.w3.org/2000/svg">
<path d="M12 4C11.1716 4 10.5 4.67157 10.5 5.5C10.5 6.32843 11.1716 7 12 7C12.8284 7 13.5 6.32843 13.5 5.5C13.5 4.67157 12.8284 4 12 4Z" fill="white"/>
<path d="M10.5 10C10.5 9.17157 11.1716 8.5 12 8.5C12.8284 8.5 13.5 9.17157 13.5 10C13.5 10.8284 12.8284 11.5 12 11.5C11.1716 11.5 10.5 10.8284 10.5 10Z" fill="white"/>
<path d="M10.5 14.5C10.5 13.6716 11.1716 13 12 13C12.8284 13 13.5 13.6716 13.5 14.5C13.5 15.3284 12.8284 16 12 16C11.1716 16 10.5 15.3284 10.5 14.5Z" fill="white"/>
<path fill-rule="evenodd" clip-rule="evenodd" d="M9.46884 4.49701C8.87899 5.30296 8.5 6.37019 8.5 7.81153V18.5H10C10 17.6716 10.6716 17 11.5 17H12.5C13.3284 17 14 17.6716 14 18.5H15.5V7.81153C15.5 6.37019 15.121 5.30296 14.5312 4.49701C13.9532 3.70733 13.1055 3.07751 12 2.61652C10.8945 3.07751 10.0468 3.70733 9.46884 4.49701ZM12 4C11.1716 4 10.5 4.67157 10.5 5.5C10.5 6.32843 11.1716 7 12 7C12.8284 7 13.5 6.32843 13.5 5.5C13.5 4.67157 12.8284 4 12 4ZM10.5 10C10.5 9.17157 11.1716 8.5 12 8.5C12.8284 8.5 13.5 9.17157 13.5 10C13.5 10.8284 12.8284 11.5 12 11.5C11.1716 11.5 10.5 10.8284 10.5 10ZM10.5 14.5C10.5 13.6716 11.1716 13 12 13C12.8284 13 13.5 13.6716 13.5 14.5C13.5 15.3284 12.8284 16 12 16C11.1716 16 10.5 15.3284 10.5 14.5Z" fill="white"/>
<path d="M8.5 20V20.5H15.5V20H8.5Z" fill="white"/>
<path d="M12 4C11.1716 4 10.5 4.67157 10.5 5.5C10.5 6.32843 11.1716 7 12 7C12.8284 7 13.5 6.32843 13.5 5.5C13.5 4.67157 12.8284 4 12 4Z" fill="#535353"/>
<path d="M10.5 10C10.5 9.17157 11.1716 8.5 12 8.5C12.8284 8.5 13.5 9.17157 13.5 10C13.5 10.8284 12.8284 11.5 12 11.5C11.1716 11.5 10.5 10.8284 10.5 10Z" fill="#535353"/>
<path d="M10.5 14.5C10.5 13.6716 11.1716 13 12 13C12.8284 13 13.5 13.6716 13.5 14.5C13.5 15.3284 12.8284 16 12 16C11.1716 16 10.5 15.3284 10.5 14.5Z" fill="#535353"/>
<path fill-rule="evenodd" clip-rule="evenodd" d="M7 18.5H5.75C5.33579 18.5 5 18.8358 5 19.25C5 19.6642 5.33579 20 5.75 20H7V22H17V20H18.25C18.6642 20 19 19.6642 19 19.25C19 18.8358 18.6642 18.5 18.25 18.5H17V7.81153C17 4.36809 15.1638 2.26552 12.4415 1.17661L12 1L11.5585 1.17661C8.8362 2.26552 7 4.36809 7 7.81153V18.5ZM8.5 7.81153C8.5 6.37019 8.87899 5.30296 9.46884 4.49701C10.0468 3.70733 10.8945 3.07751 12 2.61652C13.1055 3.07751 13.9532 3.70733 14.5312 4.49701C15.121 5.30296 15.5 6.37019 15.5 7.81153V18.5H14C14 17.6716 13.3284 17 12.5 17H11.5C10.6716 17 10 17.6716 10 18.5H8.5V7.81153ZM8.5 20.5V20H15.5V20.5H8.5Z" fill="#535353"/>
</svg>
