<svg width="24" height="24" viewBox="0 0 24 24" fill="none" xmlns="http://www.w3.org/2000/svg">
<path fill-rule="evenodd" clip-rule="evenodd" d="M12.8449 4.38228C12.5763 4.2351 12.2942 4.10698 12 4C11.7058 4.10698 11.4237 4.2351 11.1551 4.38228L10.194 2.62829C10.5513 2.43254 10.9262 2.26234 11.3165 2.12041L12 1.87187L12.6835 2.12041C13.0738 2.26234 13.4487 2.43254 13.806 2.62829L12.8449 4.38228ZM9.68778 5.5078L8.24295 4.12488C7.67347 4.71985 7.19795 5.39875 6.83341 6.13728L8.62684 7.02251C8.9012 6.46667 9.25917 5.9556 9.68778 5.5078ZM8.07051 8.78609L6.09371 8.48235C6.03184 8.88502 6 9.29549 6 9.7108V10.5682H8V9.7108C8 9.39777 8.02399 9.08883 8.07051 8.78609ZM8 12.2831H6V13.998H8V12.2831ZM8 15.7128H6V17.4277H8V15.7128ZM8 19.1426H6V22H9V20H8V19.1426ZM11 20V22H13V20H11ZM15 20V22H18V19.1426H16V20H15ZM16 17.4277H18V15.7128H16V17.4277ZM16 13.998H18V12.2831H16V13.998ZM16 10.5682H18V9.7108C18 9.29549 17.9682 8.88502 17.9063 8.48235L15.9295 8.78609C15.976 9.08884 16 9.39777 16 9.7108V10.5682ZM15.3732 7.02251L17.1666 6.13728C16.8021 5.39876 16.3265 4.71986 15.757 4.12488L14.3122 5.5078C14.7408 5.9556 15.0988 6.46667 15.3732 7.02251Z" fill="#3D3D3D"/>
</svg>
