<svg width="24" height="24" viewBox="0 0 24 24" fill="none" xmlns="http://www.w3.org/2000/svg">
<path d="M13 17V6.99998H15V17H13Z" fill="white"/>
<path d="M9 6.99998V17H11V6.99998H9Z" fill="white"/>
<path fill-rule="evenodd" clip-rule="evenodd" d="M15.1307 3.99998L12 0.347534L8.86933 3.99998H8C6.89543 3.99998 6 4.89542 6 5.99998V18C6 19.1046 6.89543 20 8 20H16C17.1046 20 18 19.1046 18 18V5.99998C18 4.89542 17.1046 3.99998 16 3.99998H15.1307ZM13.1551 3.99998L12 2.65242L10.8449 3.99998H13.1551ZM7.5 5.99998C7.5 5.72384 7.72386 5.49998 8 5.49998H16C16.2761 5.49998 16.5 5.72384 16.5 5.99998V18C16.5 18.2761 16.2761 18.5 16 18.5H8C7.72386 18.5 7.5 18.2761 7.5 18V5.99998Z" fill="white"/>
<path fill-rule="evenodd" clip-rule="evenodd" d="M8 5.49998C7.72386 5.49998 7.5 5.72384 7.5 5.99998V18C7.5 18.2761 7.72386 18.5 8 18.5H16C16.2761 18.5 16.5 18.2761 16.5 18V5.99998C16.5 5.72384 16.2761 5.49998 16 5.49998H8ZM13 17V6.99998H15V17H13ZM9 6.99998V17H11V6.99998H9Z" fill="white"/>
<path d="M12 2.65242L13.1551 3.99998H10.8449L12 2.65242Z" fill="white"/>
<path d="M13 17V6.99998H15V17H13Z" fill="#535353"/>
<path d="M9 6.99998V17H11V6.99998H9Z" fill="#535353"/>
<path fill-rule="evenodd" clip-rule="evenodd" d="M15.1307 3.99998L12 0.347534L8.86933 3.99998H8C6.89543 3.99998 6 4.89542 6 5.99998V18C6 19.1046 6.89543 20 8 20H16C17.1046 20 18 19.1046 18 18V5.99998C18 4.89542 17.1046 3.99998 16 3.99998H15.1307ZM13.1551 3.99998L12 2.65242L10.8449 3.99998H13.1551ZM7.5 5.99998C7.5 5.72384 7.72386 5.49998 8 5.49998H16C16.2761 5.49998 16.5 5.72384 16.5 5.99998V18C16.5 18.2761 16.2761 18.5 16 18.5H8C7.72386 18.5 7.5 18.2761 7.5 18V5.99998Z" fill="#535353"/>
</svg>
