<svg width="24" height="24" viewBox="0 0 24 24" fill="currentColor" xmlns="http://www.w3.org/2000/svg">
<path d="M2 9C2 11.5093 3.42193 13.6866 5.504 14.7699L5.63134 13.6936C4.05304 12.7268 3 10.9864 3 9C3 5.96243 5.46243 3.5 8.5 3.5C9.45818 3.5 10.3591 3.74502 11.1436 4.17583L12 3.52182C10.9897 2.875 9.78864 2.5 8.5 2.5C4.91015 2.5 2 5.41015 2 9Z" fill="currentColor"/>
<path d="M15 9C15 7.08606 14.1728 5.36533 12.8564 4.17583L12 4.75716C13.1766 5.72889 13.9422 7.18061 13.9969 8.81249L14.996 9.23013C14.9987 9.15375 15 9.07703 15 9Z" fill="currentColor"/>
<path d="M15.5 2.5C14.2114 2.5 13.0103 2.875 12 3.52182L11.1436 4.17583C9.82721 5.36533 9 7.08606 9 9C9 9.07703 9.00134 9.15375 9.004 9.23013L10.0031 8.81249C10.0578 7.18061 10.8234 5.72889 12 4.75716L12.8564 4.17583C13.6409 3.74502 14.5418 3.5 15.5 3.5C18.5376 3.5 21 5.96243 21 9C21 10.9864 19.947 12.7268 18.3687 13.6936L18.496 14.7699C20.5781 13.6866 22 11.5093 22 9C22 5.41015 19.0899 2.5 15.5 2.5Z" fill="currentColor"/>
<path fill-rule="evenodd" clip-rule="evenodd" d="M18.5 15C18.5 14.923 18.4987 14.8463 18.496 14.7699L18.3687 13.6936C17.9719 11.7489 16.7068 10.1203 14.996 9.23013L13.9969 8.81249C13.3677 8.6096 12.6967 8.5 12 8.5C11.3033 8.5 10.6323 8.6096 10.0031 8.81249L9.004 9.23013C7.29322 10.1203 6.02814 11.7489 5.63134 13.6936L5.504 14.7699C5.50134 14.8463 5.5 14.923 5.5 15C5.5 18.5899 8.41015 21.5 12 21.5C15.5899 21.5 18.5 18.5899 18.5 15ZM6.56527 14.1501C6.8176 12.5234 7.78272 11.1325 9.13134 10.3065L10.0653 9.84993C10.6671 9.62373 11.3191 9.5 12 9.5C12.6809 9.5 13.3329 9.62373 13.9347 9.84993L14.8687 10.3065C16.2173 11.1325 17.1824 12.5234 17.4347 14.1501L17.4969 15.1875C17.398 18.1383 14.9748 20.5 12 20.5C9.02519 20.5 6.60199 18.1383 6.50314 15.1875L6.56527 14.1501Z" fill="currentColor"/>
<path d="M12.8564 13.8242C13.865 12.9128 14.5864 11.6895 14.8687 10.3065L13.9347 9.84993C13.7238 11.2097 13.0148 12.4048 12 13.2428L12.8564 13.8242Z" fill="currentColor"/>
<path d="M9.13134 10.3065C9.41355 11.6895 10.135 12.9128 11.1436 13.8242L12 14.4782C13.0103 15.125 14.2114 15.5 15.5 15.5C16.1967 15.5 16.8677 15.3904 17.4969 15.1875L17.4347 14.1501C16.8329 14.3763 16.1809 14.5 15.5 14.5C14.5418 14.5 13.6409 14.255 12.8564 13.8242L12 13.2428C10.9852 12.4048 10.2762 11.2097 10.0653 9.84993L9.13134 10.3065Z" fill="currentColor"/>
<path d="M11.1436 13.8242C10.3591 14.255 9.45818 14.5 8.5 14.5C7.81911 14.5 7.16711 14.3763 6.56527 14.1501L6.50314 15.1875C7.13229 15.3904 7.80335 15.5 8.5 15.5C9.78864 15.5 10.9897 15.125 12 14.4782L11.1436 13.8242Z" fill="currentColor"/>
</svg>
