<svg width="24" height="24" viewBox="0 0 24 24" fill="currentColor" xmlns="http://www.w3.org/2000/svg">
<path d="M16.6621 20.5282C17.7258 20.5282 18.636 20.1515 19.3929 19.3982C20.1498 18.6448 20.5283 17.7353 20.5283 16.6695V15.2728H12.8109V16.6695C12.8109 17.7353 13.1868 18.6448 13.9388 19.3982C14.6907 20.1515 15.5984 20.5282 16.6621 20.5282ZM12.8109 13.4902H15.7783V9.94237C14.9442 10.1446 14.2531 10.569 13.7049 11.2157C13.1567 11.8625 12.8587 12.6206 12.8109 13.4902ZM17.5609 13.4902H20.5283C20.4804 12.6206 20.1824 11.8625 19.6343 11.2157C19.0861 10.569 18.3949 10.1446 17.5609 9.94237V13.4902ZM16.6728 22.3532C15.0853 22.3532 13.7405 21.8021 12.6387 20.6998C11.5368 19.5975 10.9859 18.2541 10.9859 16.6695V13.8108C10.9859 12.2349 11.5371 10.8936 12.6396 9.78702C13.742 8.68044 15.0857 8.12714 16.6705 8.12714C18.2553 8.12714 19.601 8.68044 20.7076 9.78702C21.8141 10.8936 22.3674 12.2349 22.3674 13.8108V16.6695C22.3674 18.2541 21.8152 19.5975 20.7108 20.6998C19.6064 21.8021 18.2604 22.3532 16.6728 22.3532ZM3.62718 20.3532C3.0854 20.3532 2.61988 20.1586 2.23063 19.7693C1.84136 19.3801 1.64673 18.9146 1.64673 18.3728V5.62714C1.64673 5.08148 1.84136 4.61263 2.23063 4.22059C2.61988 3.82858 3.0854 3.63257 3.62718 3.63257H20.3728C20.9185 3.63257 21.3873 3.82858 21.7794 4.22059C22.1714 4.61263 22.3674 5.08148 22.3674 5.62714V9.39019C22.0877 9.04558 21.7821 8.73605 21.4506 8.46162C21.119 8.18719 20.7598 7.94055 20.3728 7.72172V5.62714H3.62718V18.3728H9.71848C9.78298 18.7309 9.88117 19.0757 10.0131 19.4072C10.1449 19.7386 10.3058 20.054 10.4957 20.3532H3.62718Z" fill="currentColor"/>
</svg>
