<svg width="24" height="24" viewBox="0 0 24 24" fill="currentColor" xmlns="http://www.w3.org/2000/svg">
<path d="M12.1315 8.00003C14.5889 7.9961 17.0266 8.38598 19.3529 9.15092L17.0291 14.5752C15.4456 14.1066 13.7993 13.8684 12.1409 13.871C11.7434 13.8717 11.3467 13.8861 10.9513 13.9143L11.499 15.8858C11.7137 15.8763 11.9288 15.8714 12.1441 15.871C14.1993 15.8678 16.2336 16.2832 18.1229 17.0921L18.126 17.0935L22.0132 8.02003L22.0117 8.01938C21.3976 7.75636 20.7743 7.51849 20.1432 7.30609C17.5649 6.43827 14.8578 5.99566 12.1283 6.00003C9.39891 6.0044 6.69322 6.45567 4.11766 7.33174C3.48678 7.54633 2.8637 7.78641 2.25 8.05165L6.16616 17.1126C6.92519 16.7845 7.70791 16.5201 8.50624 16.3209L7.97079 14.3933C7.73089 14.4539 7.49225 14.5198 7.25505 14.5908L4.9139 9.17403C7.23771 8.40164 9.67417 8.00396 12.1315 8.00003Z" fill="currentColor"/>
<path d="M9.95479 17.7994C9.77761 17.9798 9.66833 18.2271 9.66833 18.5C9.66833 19.0522 10.1161 19.5 10.6683 19.5C11.2206 19.5 11.6683 19.0522 11.6683 18.5C11.6683 18.034 11.3496 17.6424 10.9182 17.5314L8.6501 9.36618L7.68658 9.63382L9.95479 17.7994Z" fill="currentColor"/>
</svg>
