<svg width="24" height="24" viewBox="0 0 24 24" fill="currentColor" xmlns="http://www.w3.org/2000/svg">
<path d="M8.13498 8.09015L8.06198 9.99987H8.93789L8.8649 8.09015L10.562 9.11446L10.9999 8.38529L9.21162 7.49987L10.9999 6.61446L10.562 5.88529L8.8649 6.9096L8.93789 4.99987H8.06198L8.13498 6.9096L6.4379 5.88529L5.99994 6.61446L7.78826 7.49987L5.99994 8.38529L6.4379 9.11446L8.13498 8.09015Z" fill="currentColor"/>
<path d="M15.135 8.09015L15.062 9.99987H15.9379L15.8649 8.09015L17.562 9.11446L17.9999 8.38529L16.2116 7.49987L17.9999 6.61446L17.562 5.88529L15.8649 6.9096L15.9379 4.99987H15.062L15.135 6.9096L13.4379 5.88529L12.9999 6.61446L14.7883 7.49987L12.9999 8.38529L13.4379 9.11446L15.135 8.09015Z" fill="currentColor"/>
<path d="M12.062 15.9999L12.135 14.0902L10.4379 15.1145L9.99994 14.3853L11.7883 13.4999L9.99994 12.6145L10.4379 11.8853L12.135 12.9096L12.062 10.9999H12.9379L12.8649 12.9096L14.562 11.8853L14.9999 12.6145L13.2116 13.4999L14.9999 14.3853L14.562 15.1145L12.8649 14.0902L12.9379 15.9999H12.062Z" fill="currentColor"/>
<path fill-rule="evenodd" clip-rule="evenodd" d="M11.1544 20.6613C11.5468 21.2827 12.453 21.2827 12.8454 20.6613L23.0311 4.53399C23.4516 3.86812 22.9731 3 22.1856 3L1.81424 3C1.02668 3 0.548197 3.86812 0.968745 4.53399L11.1544 20.6613ZM11.9999 20.1273L1.81424 4L22.1856 4L11.9999 20.1273Z" fill="currentColor"/>
</svg>
