<svg width="24" height="24" viewBox="0 0 24 24" fill="currentColor" xmlns="http://www.w3.org/2000/svg">
<path fill-rule="evenodd" clip-rule="evenodd" d="M22 13.5358V4.3C22 3.96667 21.8472 3.72083 21.5417 3.5625C21.2361 3.40417 20.9259 3.39167 20.6111 3.525L15.6667 5.3L8.36111 3L2.75 4.775C2.52778 4.85833 2.34722 4.98333 2.20833 5.15C2.06944 5.31667 2 5.50833 2 5.725V19.675C2 20.0083 2.15278 20.2583 2.45833 20.425C2.76389 20.5917 3.07407 20.6 3.38889 20.45L8.36111 18.675L12.9363 20.131C12.7146 19.6096 12.571 19.0469 12.5204 18.4577L9.27778 17.475V4.85L14.7222 6.5V12.257C14.9218 11.9207 15.119 11.6004 15.3058 11.3041C15.7066 10.6684 16.0744 10.1206 16.3423 9.731C16.3582 9.70793 16.3737 9.68541 16.3889 9.66344V6.5L20.3333 5.15V10.7409C20.4491 10.9188 20.5701 11.1073 20.6942 11.3041C21.1075 11.9595 21.5714 12.7325 22 13.5358ZM7.61111 17.475L3.66667 18.825V6.025L7.61111 4.85V17.475Z" fill="currentColor"/>
<path fill-rule="evenodd" clip-rule="evenodd" d="M14 18.0073C14 16.2777 15.9145 13.1122 17.0945 11.3255C17.6201 10.5296 18 10.0073 18 10.0073C18 10.0073 18.3799 10.5296 18.9055 11.3255C20.0855 13.1122 22 16.2777 22 18.0073C22 20.2165 20.2091 22.0073 18 22.0073C15.7909 22.0073 14 20.2165 14 18.0073ZM18 20.5073C16.6193 20.5073 15.5 19.388 15.5 18.0073C15.5 17.7052 15.6422 17.1295 16.0018 16.298C16.3418 15.5117 16.8071 14.6502 17.2904 13.8345C17.5315 13.4278 17.7731 13.039 18 12.6845L18.001 12.686L18 20.5073Z" fill="currentColor"/>
</svg>
