<svg width="24" height="24" viewBox="0 0 24 24" fill="currentColor" xmlns="http://www.w3.org/2000/svg">
<path fill-rule="evenodd" clip-rule="evenodd" d="M5.988 15.637C7.31267 17.5957 9.31667 19.7167 12 22C14.6833 19.7167 16.6877 17.5957 18.013 15.637C19.3377 13.679 20 11.8667 20 10.2C20 7.7 19.1957 5.70833 17.587 4.225C15.979 2.74167 14.1167 2 12 2C9.88333 2 8.021 2.74167 6.413 4.225C4.80433 5.70833 4 7.7 4 10.2C4 11.8667 4.66267 13.679 5.988 15.637ZM9.01758 15.0611H15.0059V13.5376H11.2734V13.4556L12.375 12.4185C13.1094 11.7466 13.6211 11.229 13.9102 10.8657C14.2031 10.5025 14.418 10.1489 14.5547 9.8052C14.6953 9.45754 14.7656 9.08645 14.7656 8.69191C14.7656 8.23879 14.6523 7.83645 14.4258 7.48488C14.1992 7.13332 13.8809 6.85988 13.4707 6.66457C13.0605 6.46926 12.5879 6.3716 12.0527 6.3716C11.6465 6.3716 11.2793 6.41262 10.9512 6.49465C10.623 6.57277 10.3203 6.68605 10.043 6.83449C9.76562 6.98293 9.41602 7.23684 8.99414 7.59621L9.97852 8.76223C10.3184 8.48098 10.6445 8.26418 10.957 8.11184C11.2695 7.95949 11.5918 7.88332 11.9238 7.88332C12.2402 7.88332 12.4922 7.9673 12.6797 8.13527C12.8711 8.30324 12.9668 8.5591 12.9668 8.90285C12.9668 9.13332 12.9238 9.35598 12.8379 9.57082C12.752 9.78566 12.6113 10.02 12.416 10.2739C12.2207 10.5239 11.8047 10.9751 11.168 11.6275L9.01758 13.8013V15.0611Z" fill="currentColor"/>
</svg>
