<svg width="24" height="24" viewBox="0 0 24 24" fill="currentColor" xmlns="http://www.w3.org/2000/svg">
<path d="M6 2H8V6H6V2Z" fill="currentColor"/>
<path d="M6 8H2V6H6V8Z" fill="currentColor"/>
<path d="M8 8V12H6V8H8Z" fill="currentColor"/>
<path d="M8 8H12V6H8V8Z" fill="currentColor"/>
<path fill-rule="evenodd" clip-rule="evenodd" d="M13 10H20C21.1 10 22 10.9 22 12V18C22 19.1 21.1 20 20 20H15L11 22V12C11 10.9 11.9 10 13 10ZM14.67 18H20V12H13V18.67L14.67 18Z" fill="currentColor"/>
<path fill-rule="evenodd" clip-rule="evenodd" d="M17 12V15.5H15.5V12H13V18.67L14.67 18H20V12H17ZM15.5 16.5H17V18H15.5V16.5Z" fill="currentColor"/>
</svg>
