<svg width="24" height="24" viewBox="0 0 24 24"  xmlns="http://www.w3.org/2000/svg">
<path fill-rule="evenodd" clip-rule="evenodd" d="M3 2L21 2C21.5523 2 22 2.44771 22 3L22 21C22 21.5523 21.5523 22 21 22L3 22C2.44772 22 2 21.5523 2 21L2 3C2 2.44772 2.44771 2 3 2ZM1 3C1 1.89543 1.89543 1 3 1L21 1C22.1046 1 23 1.89543 23 3L23 21C23 22.1046 22.1046 23 21 23L3 23C1.89543 23 1 22.1046 1 21L1 3ZM16 12C16 14.2091 14.2091 16 12 16C9.79086 16 8 14.2091 8 12C8 9.79086 9.79086 8 12 8C14.2091 8 16 9.79086 16 12ZM18 12C18 15.3137 15.3137 18 12 18C8.68629 18 6 15.3137 6 12C6 8.68629 8.68629 6 12 6C15.3137 6 18 8.68629 18 12Z" fill="currentColor"/>
</svg>
