<svg width="24" height="24" viewBox="0 0 24 24" fill="currentColor" xmlns="http://www.w3.org/2000/svg">
<path d="M2 4.22222V8.66667H4.22222V4.22222H8.66667V2H4.22222C3 2 2 3 2 4.22222Z" fill="currentColor"/>
<path d="M4.22222 15.3334H2V19.7779C2 21.0001 3 22.0001 4.22222 22.0001H8.66667V19.7779H4.22222V15.3334Z" fill="currentColor"/>
<path d="M15.3333 19.7779H19.7778V15.3334H22V19.7779C22 21.0001 21 22.0001 19.7778 22.0001H15.3333V19.7779Z" fill="currentColor"/>
<path d="M19.7778 2H15.3333V4.22222H19.7778V8.66667H22V4.22222C22 3 21 2 19.7778 2Z" fill="currentColor"/>
<path fill-rule="evenodd" clip-rule="evenodd" d="M12.9426 18.1224L6.50019 11.68L17.2318 7.05166L12.9426 18.1224ZM12.1865 14.5379L9.99812 12.3495L13.6435 10.7773L12.1865 14.5379Z" fill="currentColor"/>
</svg>
