<svg width="24" height="24" viewBox="0 0 24 24"  xmlns="http://www.w3.org/2000/svg">
<path fill-rule="evenodd" clip-rule="evenodd" d="M12 2L21 2C21.5523 2 22 2.44771 22 3L22 21C22 21.5523 21.5523 22 21 22L3 22C2.44772 22 2 21.5523 2 21L2 3C2 2.44772 2.44771 2 3 2L12 2ZM12 2L18 20L6 20L12 2ZM1 3C1 1.89543 1.89543 1 3 1L21 1C22.1046 1 23 1.89543 23 3L23 21C23 22.1046 22.1046 23 21 23L3 23C1.89543 23 1 22.1046 1 21L1 3ZM8.41625 18.2L12 7.44876L15.5837 18.2L8.41625 18.2Z" fill="currentColor"/>
</svg>
