<svg width="24" height="24" viewBox="0 0 24 24" fill="currentColor" xmlns="http://www.w3.org/2000/svg">
<path fill-rule="evenodd" clip-rule="evenodd" d="M21.4737 20.4537L19.4767 20.3433C19.4922 20.0644 19.5 19.7832 19.5 19.5C19.5 19.2168 19.4922 18.9356 19.4767 18.6567L21.4737 18.5463C21.4912 18.862 21.5 19.18 21.5 19.5C21.5 19.82 21.4912 20.138 21.4737 20.4537ZM21.2623 16.651C21.1556 16.0188 21.0141 15.3984 20.8396 14.7919L18.9175 15.3447C19.0713 15.8792 19.1961 16.4262 19.2902 16.9838L21.2623 16.651ZM20.21 12.9926L18.3626 13.7587C18.1469 13.2387 17.9028 12.7333 17.632 12.2444L19.3816 11.2754C19.6885 11.8296 19.9654 12.4027 20.21 12.9926ZM18.3657 9.66192L16.7356 10.8206C16.41 10.3625 16.0592 9.9234 15.6853 9.50526L17.1761 8.17207C17.5995 8.64557 17.9968 9.14295 18.3657 9.66192ZM15.8279 6.8239L14.4947 8.31473C14.0766 7.94081 13.6375 7.59004 13.1794 7.26441L14.3381 5.63427C14.8571 6.00316 15.3544 6.40046 15.8279 6.8239ZM12.7246 4.61839L11.7556 6.36797C11.2667 6.09722 10.7613 5.85307 10.2413 5.63742L11.0074 3.78997C11.5973 4.03459 12.1704 4.31146 12.7246 4.61839ZM9.20811 3.16038L8.65528 5.08246C8.12076 4.92872 7.57383 4.80389 7.01625 4.70981L7.34901 2.73769C7.98125 2.84437 8.60163 2.98595 9.20811 3.16038ZM5.45372 2.5263L5.34329 4.52325C5.06436 4.50783 4.7832 4.5 4.5 4.5C4.2168 4.5 3.93564 4.50783 3.65671 4.52325L3.54628 2.5263C3.86197 2.50884 4.17995 2.5 4.5 2.5C4.82005 2.5 5.13803 2.50884 5.45372 2.5263Z" fill="currentColor"/>
<path d="M7 19.5C7 20.8807 5.88074 22 4.5 22C3.11926 22 2 20.8807 2 19.5C2 18.1193 3.11926 17 4.5 17C5.88074 17 7 18.1193 7 19.5Z" fill="currentColor"/>
</svg>
