<svg width="24" height="24" viewBox="0 0 24 24" fill="currentColor" xmlns="http://www.w3.org/2000/svg">
<path d="M9.4 6.4H10.069C10.58 6.4 11 6.82 11 7.331V18.069C11 18.58 10.58 19 10.062 19H5.931C5.42 19 5 18.58 5 18.062V7.331C5 6.82 5.42 6.4 5.931 6.4H6.6V5H9.4V6.4Z" fill="currentColor"/>
<path d="M17.4 6.4H18.069C18.58 6.4 19 6.82 19 7.331V18.069C19 18.58 18.58 19 18.062 19H13.931C13.42 19 13 18.58 13 18.062V7.331C13 6.82 13.42 6.4 13.931 6.4H14.6V5H17.4V6.4Z" fill="currentColor"/>
<path fill-rule="evenodd" clip-rule="evenodd" d="M2 4C2 2.89543 2.89543 2 4 2H20C21.1046 2 22 2.89543 22 4V20C22 21.1046 21.1046 22 20 22H4C2.89543 22 2 21.1046 2 20V4ZM4 3.5H20C20.2761 3.5 20.5 3.72386 20.5 4V20C20.5 20.2761 20.2761 20.5 20 20.5H4C3.72386 20.5 3.5 20.2761 3.5 20V4C3.5 3.72386 3.72386 3.5 4 3.5Z" fill="currentColor"/>
</svg>
