<svg width="24" height="24" viewBox="0 0 24 24" fill="currentColor" xmlns="http://www.w3.org/2000/svg">
<path d="M15.1468 12.69C14.1646 13.2513 13.843 14.5149 14.4375 15.4774L17.9336 21.1383C17.9688 21.1953 17.9391 21.2701 17.8744 21.2875L15.3354 21.9678C12.7878 22.6504 10.2884 20.7237 10.3001 18.0863L10.3134 15.0998C10.3185 13.9685 9.38497 13.0582 8.25416 13.0918L1.60362 13.2891C1.53666 13.2911 1.48673 13.2279 1.50406 13.1632L2.18439 10.6242C2.86703 8.07658 5.78526 6.87542 8.0635 8.20432L10.6432 9.70909C11.6204 10.2791 12.8755 9.92579 13.4119 8.9297L16.5663 3.0715C16.5981 3.01252 16.6777 3.00083 16.7251 3.0482L18.5838 4.9069C20.4487 6.77188 20.0299 9.89973 17.7399 11.2083L15.1468 12.69Z" fill="currentColor"/>
<path fill-rule="evenodd" clip-rule="evenodd" d="M15.2883 14.952L18.7844 20.6129C19.1716 21.2398 18.845 22.0627 18.1332 22.2534L15.5942 22.9337C12.4097 23.787 9.28548 21.3787 9.30016 18.0818L9.31346 15.0954C9.31598 14.5297 8.84922 14.0746 8.28381 14.0913L1.63327 14.2886C0.896753 14.3105 0.347426 13.6162 0.538138 12.9044L1.21847 10.3654C2.07176 7.18086 5.71955 5.6794 8.56735 7.34053L11.1471 8.8453C11.6357 9.1303 12.2632 8.95365 12.5314 8.4556L15.6858 2.5974C16.0352 1.94862 16.9111 1.82006 17.4322 2.34109L19.2909 4.19979C21.6221 6.53102 21.0985 10.4408 18.236 12.0765L15.643 13.5583C15.1519 13.8389 14.9911 14.4707 15.2883 14.952ZM18.5838 4.9069C20.4487 6.77188 20.0299 9.89973 17.7399 11.2083L15.1468 12.69C14.1646 13.2513 13.843 14.5149 14.4375 15.4774L17.9336 21.1383C17.9688 21.1953 17.9391 21.2701 17.8744 21.2875L15.3354 21.9678C12.7878 22.6504 10.2884 20.7237 10.3001 18.0863L10.3134 15.0998C10.3185 13.9685 9.38497 13.0582 8.25416 13.0918L1.60362 13.2891C1.53666 13.2911 1.48673 13.2279 1.50406 13.1632L2.18439 10.6242C2.86703 8.07658 5.78526 6.87542 8.0635 8.20432L10.6432 9.70909C11.6204 10.2791 12.8755 9.92579 13.4119 8.9297L16.5663 3.0715C16.5981 3.01252 16.6777 3.00083 16.7251 3.0482L18.5838 4.9069Z" fill="currentColor"/>
<path d="M12.4227 11.0508C13.2229 11.2652 13.6978 12.0877 13.4834 12.8879C13.269 13.6881 12.4465 14.1629 11.6463 13.9485C10.8461 13.7341 10.3712 12.9116 10.5856 12.1114C10.8 11.3112 11.6225 10.8363 12.4227 11.0508Z" fill="currentColor"/>
<path fill-rule="evenodd" clip-rule="evenodd" d="M14.2296 2.74357C11.6421 2.16183 8.92937 2.63183 6.68833 4.05017C6.45499 4.19785 6.14612 4.12841 5.99844 3.89507C5.85076 3.66173 5.92021 3.35286 6.15354 3.20518C8.61869 1.645 11.6027 1.12801 14.449 1.76792C14.7184 1.82849 14.8877 2.096 14.8271 2.36541C14.7666 2.63483 14.4991 2.80414 14.2296 2.74357ZM13.3719 4.61233C12.3777 4.44398 11.3607 4.46509 10.3744 4.67454C10.1043 4.7319 9.83881 4.55943 9.78144 4.28931C9.72408 4.01919 9.89656 3.75371 10.1667 3.69635C11.2763 3.46072 12.4204 3.43698 13.5388 3.62636C13.8111 3.67247 13.9944 3.93056 13.9483 4.20282C13.9022 4.47509 13.6441 4.65843 13.3719 4.61233ZM22.5072 11.5737C22.7831 11.5625 23.0159 11.777 23.0271 12.0529C23.1457 14.9679 22.1014 17.8106 20.1241 19.9556C19.9369 20.1587 19.6206 20.1715 19.4176 19.9844C19.2145 19.7972 19.2017 19.4809 19.3888 19.2779C21.1864 17.3278 22.1357 14.7436 22.0279 12.0936C22.0167 11.8177 22.2313 11.5849 22.5072 11.5737ZM20.2743 14.6527C20.5369 14.7381 20.6806 15.0202 20.5952 15.2828C20.2444 16.3616 19.6929 17.3643 18.9697 18.2382C18.7937 18.4509 18.4785 18.4807 18.2657 18.3046C18.053 18.1285 18.0233 17.8134 18.1993 17.6006C18.8422 16.8238 19.3324 15.9325 19.6442 14.9736C19.7296 14.711 20.0117 14.5674 20.2743 14.6527ZM3.89454 14.9927C4.15338 14.8965 4.4412 15.0283 4.53741 15.2872C4.88869 16.2323 5.41547 17.1025 6.09001 17.8519C6.27475 18.0572 6.25812 18.3733 6.05287 18.5581C5.84762 18.7428 5.53148 18.7262 5.34674 18.5209C4.58788 17.6778 3.99525 16.6988 3.60006 15.6356C3.50385 15.3767 3.63569 15.0889 3.89454 14.9927ZM1.86388 15.1503C2.12749 15.0681 2.40786 15.2151 2.49012 15.4787C3.28011 18.0105 5.04348 20.1247 7.39233 21.3564C7.63689 21.4846 7.73119 21.7868 7.60295 22.0314C7.47471 22.2759 7.1725 22.3702 6.92794 22.242C4.34421 20.8872 2.4045 18.5615 1.53551 15.7766C1.45326 15.513 1.60027 15.2326 1.86388 15.1503Z" fill="currentColor"/>
</svg>
