<svg width="24" height="24" viewBox="0 0 24 24" fill="currentColor" xmlns="http://www.w3.org/2000/svg">
<path d="M11.9517 15.0554C11.1553 14.2519 9.85157 14.2684 9.07569 15.0917L4.51256 19.9338C4.46662 19.9826 4.38667 19.9733 4.35318 19.9153L3.03888 17.6388C1.72014 15.3547 2.93428 12.4418 5.48492 11.7705L8.37308 11.0104C9.46713 10.7225 10.1048 9.58519 9.7797 8.5016L7.86784 2.12874C7.84859 2.06457 7.89664 2 7.96362 2H10.5922C13.2297 2 15.1452 4.50791 14.4513 7.05247L13.6655 9.93376C13.3678 11.0252 14.0339 12.1461 15.1349 12.4063L21.6099 13.9371C21.6751 13.9525 21.707 14.0264 21.6735 14.0844L20.3592 16.3608C19.0404 18.645 15.9108 19.0499 14.0541 17.1766L11.9517 15.0554Z" fill="currentColor"/>
<path fill-rule="evenodd" clip-rule="evenodd" d="M9.80345 15.7775L5.24032 20.6197C4.73497 21.1559 3.85558 21.0534 3.48715 20.4153L2.17286 18.1388C0.524423 15.2836 2.04211 11.6426 5.23041 10.8035L8.11856 10.0434C8.66559 9.8994 8.98441 9.33074 8.82188 8.78895L6.91002 2.41608C6.69829 1.71031 7.22677 1 7.96362 1H10.5922C13.8891 1 16.2835 4.13489 15.416 7.31559L14.6302 10.1969C14.4814 10.7426 14.8145 11.303 15.3649 11.4332L21.84 12.9639C22.557 13.1334 22.9079 13.9463 22.5395 14.5844L21.2252 16.8608C19.5768 19.716 15.6647 20.2222 13.3438 17.8806L11.2415 15.7594C10.8433 15.3576 10.1914 15.3658 9.80345 15.7775ZM20.3592 16.3608C19.0404 18.645 15.9108 19.0499 14.0541 17.1766L11.9517 15.0554C11.1553 14.2519 9.85157 14.2684 9.07569 15.0917L4.51256 19.9338C4.46662 19.9826 4.38667 19.9733 4.35318 19.9153L3.03888 17.6388C1.72014 15.3547 2.93428 12.4418 5.48492 11.7705L8.37308 11.0104C9.46713 10.7225 10.1048 9.58519 9.7797 8.5016L7.86784 2.12874C7.84859 2.06457 7.89664 2 7.96362 2H10.5922C13.2297 2 15.1452 4.50791 14.4513 7.05247L13.6655 9.93376C13.3678 11.0252 14.0339 12.1461 15.1349 12.4063L21.6099 13.9371C21.6751 13.9525 21.707 14.0264 21.6735 14.0844L20.3592 16.3608Z" fill="currentColor"/>
<path d="M12.8307 12C12.8307 12.8284 12.1591 13.5 11.3307 13.5C10.5022 13.5 9.83068 12.8284 9.83068 12C9.83068 11.1716 10.5022 10.5 11.3307 10.5C12.1591 10.5 12.8307 11.1716 12.8307 12Z" fill="currentColor"/>
</svg>
