<svg width="24" height="24" viewBox="0 0 24 24"  xmlns="http://www.w3.org/2000/svg">
<path fill-rule="evenodd" clip-rule="evenodd" d="M2 3C2 2.44772 2.44772 2 3 2H21C21.5523 2 22 2.44772 22 3V21C22 21.5523 21.5523 22 21 22H3C2.44772 22 2 21.5523 2 21V3ZM4 4V20H20V4H4Z" fill="currentColor"/>
<path d="M13.0062 9L10.0031 6L7.00005 9L9.01237 9L9.01848 13L11 13L10.9939 9L13.0062 9Z" fill="currentColor"/>
<path d="M10.9938 15L13.997 18L17 15L14.9877 15L14.9815 11L13 11L13.0062 15L10.9938 15Z" fill="currentColor"/>
</svg>
