<svg width="24" height="24" viewBox="0 0 24 24" fill="currentColor" xmlns="http://www.w3.org/2000/svg">
<path fill-rule="evenodd" clip-rule="evenodd" d="M12 2C17.5228 2 22 6.47715 22 12C22 17.5228 17.5228 22 12 22C6.47715 22 2 17.5228 2 12C2 6.47715 6.47715 2 12 2ZM12 4C16.4183 4 20 7.58172 20 12C20 16.4183 16.4183 20 12 20C7.58172 20 4 16.4183 4 12C4 7.58172 7.58172 4 12 4Z" fill="currentColor"/>
<path d="M12 6C13.1046 6 14 6.89543 14 8L14 16C14 17.1046 13.1046 18 12 18C10.8954 18 10 17.1046 10 16L10 8C10 6.89543 10.8954 6 12 6Z" fill="currentColor"/>
</svg>
