<svg width="24" height="24" viewBox="0 0 24 24" fill="currentColor" xmlns="http://www.w3.org/2000/svg">
<path fill-rule="evenodd" clip-rule="evenodd" d="M2 3C2 2.44772 2.44772 2 3 2H21C21.5523 2 22 2.44772 22 3V21C22 21.5523 21.5523 22 21 22H3C2.44772 22 2 21.5523 2 21V3ZM4 4V20H20V4H4ZM12.3 7.74879C12.6496 7.62524 12.9 7.29187 12.9 6.9C12.9 6.40294 12.4971 6 12 6C11.5029 6 11.1 6.40294 11.1 6.9C11.1 7.29187 11.3504 7.62524 11.7 7.74879V9H8.4V7.74879C8.74956 7.62524 9 7.29187 9 6.9C9 6.40294 8.59706 6 8.1 6C7.60294 6 7.2 6.40294 7.2 6.9C7.2 7.29187 7.45044 7.62524 7.8 7.74879V9H6.6C6.26865 9 6 9.26865 6 9.6V14.4C6 14.7313 6.26865 15 6.6 15H7.8V16.2512C7.45044 16.3748 7.2 16.7081 7.2 17.1C7.2 17.5971 7.60294 18 8.1 18C8.59706 18 9 17.5971 9 17.1C9 16.7081 8.74956 16.3748 8.4 16.2512V15H11.7V16.2512C11.3504 16.3748 11.1 16.7081 11.1 17.1C11.1 17.5971 11.5029 18 12 18C12.4971 18 12.9 17.5971 12.9 17.1C12.9 16.7081 12.6496 16.3748 12.3 16.2512V15H15.6V16.2512C15.2504 16.3748 15 16.7081 15 17.1C15 17.5971 15.4029 18 15.9 18C16.3971 18 16.8 17.5971 16.8 17.1C16.8 16.7081 16.5496 16.3748 16.2 16.2512V15H17.4C17.7313 15 18 14.7313 18 14.4V9.6C18 9.26865 17.7313 9 17.4 9H16.2V7.74879C16.5496 7.62524 16.8 7.29187 16.8 6.9C16.8 6.40294 16.3971 6 15.9 6C15.4029 6 15 6.40294 15 6.9C15 7.29187 15.2504 7.62524 15.6 7.74879V9H12.3V7.74879ZM7.2 10.2H16.8V13.8H7.2V10.2ZM9 11.1C8.66863 11.1 8.4 11.3686 8.4 11.7V12.3C8.4 12.6314 8.66863 12.9 9 12.9H12.6C12.9314 12.9 13.2 12.6314 13.2 12.3V11.7C13.2 11.3686 12.9314 11.1 12.6 11.1H9ZM14.1 12C14.1 11.5029 14.5029 11.1 15 11.1C15.4971 11.1 15.9 11.5029 15.9 12C15.9 12.4971 15.4971 12.9 15 12.9C14.5029 12.9 14.1 12.4971 14.1 12Z" fill="currentColor"/>
</svg>
