<svg width="24" height="24" viewBox="0 0 24 24" fill="currentColor" xmlns="http://www.w3.org/2000/svg">
<path d="M19.1029 8.15092C16.7766 7.38598 14.3389 6.9961 11.8815 7.00003C9.42417 7.00396 6.98771 7.40165 4.6639 8.17403L7.00505 13.5908C8.10096 13.2627 9.2274 13.045 10.3675 12.9414L10.3858 14.9488C8.84812 15.1054 7.34044 15.497 5.91616 16.1126L2 7.05165C2.6137 6.78641 3.23678 6.54633 3.86766 6.33174C6.44322 5.45567 9.14891 5.0044 11.8783 5.00003C14.6078 4.99566 17.3149 5.43827 19.8932 6.30609C20.5243 6.51849 21.1476 6.75636 21.7617 7.01938L21.7632 7.02003L17.876 16.0935L17.8729 16.0921C16.4424 15.4797 14.9288 15.0927 13.3859 14.9424L13.3675 12.9324C14.524 13.0306 15.667 13.2461 16.7791 13.5752L19.1029 8.15092Z" fill="currentColor"/>
<path d="M12.0406 10.4326C11.6813 9.76176 11.1352 9.25593 10.4892 9.01173C9.89826 8.78833 9.24003 8.79484 8.61901 9.09379C8.00336 9.39016 7.46407 9.95369 7.05273 10.7763L7.94716 11.2236C8.28582 10.5463 8.68403 10.1723 9.05276 9.99483C9.41611 9.81991 9.78913 9.81614 10.1356 9.94713C10.8417 10.214 11.4999 11.083 11.4999 12.335V16.1338C11.2011 16.3067 11 16.6299 11 17C11 17.5523 11.4477 18 12 18C12.5523 18 13 17.5523 13 17C13 16.6298 12.7989 16.3066 12.4999 16.1338V12.4777C12.4999 11.2268 13.158 10.3584 13.8642 10.0916C14.2107 9.96069 14.5838 9.96446 14.9472 10.1393C15.316 10.3167 15.7142 10.6904 16.0528 11.3672L16.9471 10.9198C16.5357 10.0975 15.9964 9.53434 15.3808 9.23816C14.7598 8.93941 14.1017 8.93291 13.5107 9.15615C12.9117 9.38245 12.3986 9.83359 12.0406 10.4326Z" fill="currentColor"/>
</svg>
