<svg width="24" height="24" viewBox="0 0 24 24" fill="currentColor" xmlns="http://www.w3.org/2000/svg">
<path d="M6.80902 2H17.191C17.5627 2 17.8044 2.39116 17.6382 2.72361L14 10L21.2764 6.3618C21.6088 6.19558 22 6.43733 22 6.80902V17.191C22 17.5627 21.6088 17.8044 21.2764 17.6382L14 14H10L2.72361 17.6382C2.39116 17.8044 2 17.5627 2 17.191V6.80902C2 6.43733 2.39116 6.19558 2.72361 6.3618L10 10L6.3618 2.72361C6.19558 2.39116 6.43733 2 6.80902 2Z" fill="currentColor"/>
<path d="M14 12.8819L21 16.3819V7.61792L14 11.1179V12.8819Z" fill="currentColor"/>
<path d="M16.3811 3L13 9.76224V13H9.7637L3 16.3819V7.61792L9.76416 11H11V9.76562L7.61719 3H16.3811Z" fill="currentColor"/>
</svg>
