<svg width="24" height="24" viewBox="0 0 24 24" fill="currentColor" xmlns="http://www.w3.org/2000/svg">
<path d="M6.80902 2H17.191C17.5627 2 17.8044 2.39116 17.6382 2.72361L14 10L21.2764 6.3618C21.6088 6.19558 22 6.43733 22 6.80902V17.191C22 17.5627 21.6088 17.8044 21.2764 17.6382L14 14H10L2.72361 17.6382C2.39116 17.8044 2 17.5627 2 17.191V6.80902C2 6.43733 2.39116 6.19558 2.72361 6.3618L10 10L6.3618 2.72361C6.19558 2.39116 6.43733 2 6.80902 2Z" fill="currentColor"/>
<path d="M8.11888 4L7.61888 3H16.3828L15.8828 4H8.11888Z" fill="currentColor"/>
<path d="M6 14.8819L3 16.3819V7.61792L6 9.11792V14.8819Z" fill="currentColor"/>
<path d="M15.3828 5L13 9.76562V11H14.2358L21 7.61792V16.3819L14.2363 13H9.7637L7 14.3819V9.61792L9.76416 11H11V9.76224L8.61888 5H15.3828Z" fill="currentColor"/>
<path d="M10.58 16.8816C10.4743 16.6265 10.5955 16.334 10.8506 16.2283C11.1057 16.1227 11.3982 16.2438 11.5039 16.4989L13.4173 21.1183C13.523 21.3735 13.4018 21.6659 13.1467 21.7716C12.8916 21.8773 12.5991 21.7561 12.4934 21.501L10.58 16.8816Z" fill="currentColor"/>
<path fill-rule="evenodd" clip-rule="evenodd" d="M12.4278 16.1163L14.3412 20.7356C14.6582 21.501 14.2948 22.3785 13.5294 22.6955C12.764 23.0125 11.8866 22.6491 11.5696 21.8837L9.65613 17.2643C9.33911 16.4989 9.70256 15.6215 10.4679 15.3045C11.2333 14.9874 12.1107 15.3509 12.4278 16.1163ZM11.5039 16.4989L13.4173 21.1183C13.523 21.3735 13.4018 21.6659 13.1467 21.7716C12.8916 21.8773 12.5991 21.7561 12.4934 21.501L10.58 16.8816C10.4743 16.6265 10.5955 16.334 10.8506 16.2283C11.1057 16.1227 11.3982 16.2438 11.5039 16.4989Z" fill="currentColor"/>
</svg>
