<svg width="24" height="24" viewBox="0 0 24 24" fill="currentColor" xmlns="http://www.w3.org/2000/svg">
<path d="M13 9.87398C14.7252 9.42994 16 7.86384 16 6C16 3.79086 14.2091 2 12 2C9.79086 2 8 3.79086 8 6C8 7.86384 9.27477 9.42994 11 9.87398V17C11 17.5523 11.4477 18 12 18C12.5523 18 13 17.5523 13 17V9.87398Z" fill="currentColor"/>
<path d="M10 15.0867V17C10 18.1046 10.8954 19 12 19C13.1046 19 14 18.1046 14 17V15.0867C18.008 15.4404 21 16.8343 21 18.5C21 20.433 16.9706 22 12 22C7.02944 22 3 20.433 3 18.5C3 16.8343 5.99202 15.4404 10 15.0867Z" fill="currentColor"/>
</svg>
