<svg width="24" height="24" viewBox="0 0 24 24" fill="currentColor" xmlns="http://www.w3.org/2000/svg">
<path fill-rule="evenodd" clip-rule="evenodd" d="M2.59149 11.5C3.05816 11.5133 3.52483 11.5089 3.99149 11.5044C4.22483 11.5022 4.45816 11.5 4.69149 11.5C5.09149 11.5 5.49149 11.5011 5.89149 11.5022C6.69141 11.5044 7.49158 11.5067 8.29149 11.5C8.71149 11.49 8.91149 11.59 8.93149 12.13C8.94149 12.52 8.85149 12.75 8.54149 13C7.33149 13.99 6.3915 15.21 5.95149 16.73C5.53149 18.22 6.12149 19.98 7.52149 20.91C8.56149 21.6 9.74149 21.78 10.9315 21.95C11.0115 21.97 11.0915 21.99 11.1715 22H11.2115C11.6015 21.93 11.6015 21.63 11.6015 21.33C11.6015 20.7163 11.6004 20.1037 11.5993 19.4915C11.597 18.2682 11.5948 17.0463 11.6015 15.82C11.6037 15.7635 11.5983 15.7032 11.5928 15.6422C11.5732 15.4226 11.5528 15.1939 11.8815 15.1C12.4815 14.92 12.6615 14.97 12.9915 15.38C13.8215 16.42 14.8415 17.25 16.0615 17.78C18.3415 18.77 20.7215 17.63 21.4815 15.34C21.7515 14.53 21.9415 13.7 22.0015 12.85C22.0215 12.53 21.8415 12.37 21.4215 12.37C20.9486 12.3633 20.4712 12.3656 19.9923 12.3678C19.7524 12.3689 19.5117 12.37 19.2715 12.37C18.1015 12.37 16.9315 12.37 15.7715 12.36C15.7239 12.36 15.6728 12.3647 15.6206 12.3695C15.3985 12.3899 15.1582 12.412 15.1015 12.08C15.0921 12.0222 15.08 11.9638 15.068 11.9054C15.0028 11.5903 14.9371 11.2731 15.2915 11.02C16.2415 10.32 16.9915 9.43 17.5415 8.39C18.2915 6.96 18.4115 5.54 17.5015 4.12C16.9615 3.28 16.2115 2.74 15.2915 2.46C14.5615 2.23 13.8215 2.01 13.0415 2C12.4852 2 12.4815 2.1579 12.4717 2.58154L12.4715 2.59C12.4565 3.11454 12.4584 3.63908 12.4602 4.16783C12.4609 4.34449 12.4615 4.52224 12.4615 4.7C12.4615 4.99988 12.4609 5.29913 12.4602 5.59807V5.59935C12.4584 6.49621 12.4565 7.39033 12.4715 8.29C12.4715 8.71 12.3715 8.91 11.8415 8.93C11.4515 8.95 11.2115 8.86 10.9615 8.54C10.1715 7.54 9.17149 6.78 8.00149 6.23C5.93149 5.25 3.50149 6.14 2.63149 8.29C2.29149 9.14 2.05149 10.01 2.00149 10.93C1.98149 11.48 2.16149 11.49 2.59149 11.5ZM12.0015 10.31C12.9315 10.31 13.6915 11.07 13.6915 12C13.6915 12.93 12.9315 13.69 12.0015 13.69C11.0715 13.69 10.3115 12.93 10.3115 12C10.3115 11.07 11.0715 10.31 12.0015 10.31ZM14.38 4.27588L14.4518 9.12215C15.4187 8.12183 15.8723 7.53769 16.1356 6.41296C16.3728 5.39931 15.1603 4.27588 14.38 4.27588ZM9.11928 9.44208L4.27301 9.51383C4.27301 8.73353 5.39644 7.52101 6.41009 7.75827C7.53482 8.02153 8.11896 8.47511 9.11928 9.44208ZM9.59959 19.6504L9.52783 14.8041C8.56086 15.8044 8.10728 16.3886 7.84402 17.5133C7.60677 18.527 8.81928 19.6504 9.59959 19.6504ZM14.8418 14.4315L19.688 14.3597C19.688 15.14 18.5646 16.3525 17.551 16.1153C16.4262 15.852 15.8421 15.3984 14.8418 14.4315Z" fill="currentColor"/>
</svg>
