<svg width="24" height="24" viewBox="0 0 24 24" fill="currentColor" xmlns="http://www.w3.org/2000/svg">
<path d="M4.42121 3.25072L2.99869 1.8282L7.94844 1.12109L7.24133 6.07084L5.85129 4.68079C3.73251 7.65073 1.98455 13.5277 5.60614 18.6345L7.24084 16.9998L7.94795 21.9495L2.9982 21.2424L4.17451 20.0661C-0.481232 13.8221 1.86139 6.64434 4.42121 3.25072Z" fill="currentColor"/>
<path fill-rule="evenodd" clip-rule="evenodd" d="M15.5 6.5V4.5H19.5V6.5H20C20.2761 6.5 20.5 6.72386 20.5 7V10H21.0056C21.5579 10 22.0056 10.4477 22.0056 11V15.3281H21.3204C21.0519 15.3281 20.7789 15.298 20.5056 15.238V11.5H8.60984C8.75503 12.3678 9.07855 13.4405 9.77074 14.3551C9.98594 14.6395 10.2458 14.9207 10.5636 15.1814C10.2149 15.279 9.86462 15.3281 9.52189 15.3281H8.62666C7.44781 13.8119 7.11701 12.0086 7.02957 10.9366C6.98664 10.4102 7.417 10 7.94508 10H12.3857L13.1892 6.87548C13.246 6.65449 13.4452 6.5 13.6734 6.5H15.5ZM18 6V6.5H17V6H18ZM19 8H14.4488L13.9345 10H19V8Z" fill="currentColor"/>
<path d="M18.6469 16C17.671 16.6568 16.5592 16.9891 15.4473 16.9891C14.3354 16.9891 13.7236 16.6568 12.7477 16C11.7718 16.6568 10.6599 17.02 9.54805 17.02H8.75781L8.98047 18.5655H9.54805C10.6519 18.5655 11.7398 18.295 12.7477 17.8005C13.7555 18.295 14.3514 18.55 15.4473 18.55C16.5432 18.55 17.639 18.3027 18.6469 17.8005C19.6548 18.3027 20.2427 18.5655 21.3465 18.5655H22V17.02H21.3465C20.2347 17.02 19.6228 16.6568 18.6469 16Z" fill="currentColor"/>
</svg>
