<svg width="24" height="24" viewBox="0 0 24 24" fill="currentColor" xmlns="http://www.w3.org/2000/svg">
<path d="M11.1409 1.51681C11.5032 0.82773 12.4968 0.827732 12.8591 1.51681L22.8888 20.5936C23.2254 21.2338 22.7573 22 22.0297 22H1.97033C1.24266 22 0.774615 21.2338 1.11121 20.5936L11.1409 1.51681Z" fill="currentColor"/>
<path fill-rule="evenodd" clip-rule="evenodd" d="M13.2402 14.8352H11C11 13.0132 11 9.99164 11 8.16962H13.2402V14.8352ZM13.2402 19.5008H11V17.168H13.2402V19.5008Z" fill="currentColor"/>
<path d="M11 14.8352H13.2402V8.16962H11C11 9.99164 11 13.0132 11 14.8352Z" fill="currentColor"/>
<path d="M11 19.5008H13.2402V17.168H11V19.5008Z" fill="currentColor"/>
</svg>
