<svg width="24" height="24" viewBox="0 0 24 24" fill="currentColor" xmlns="http://www.w3.org/2000/svg">
<path fill-rule="evenodd" clip-rule="evenodd" d="M22 12C22 17.5228 17.5228 22 12 22C6.47715 22 2 17.5228 2 12C2 6.47715 6.47715 2 12 2C17.5228 2 22 6.47715 22 12ZM6.93275 6L6 6.93326L8.88423 9.81908L8.69239 10.0177H6.04631V13.989H8.69239L12 17.2984V12.9366L14.7652 15.7033C14.3352 16.0276 13.8523 16.2857 13.323 16.4379V17.8014C14.2095 17.6029 15.0232 17.1925 15.7111 16.6431L17.0673 18L18 17.0667L6.93275 6ZM16.6306 12.0033C16.6306 12.5461 16.5314 13.0689 16.3594 13.5521L17.3716 14.5648C17.742 13.7904 17.9537 12.9233 17.9537 12.0033C17.9537 9.17044 15.9757 6.80088 13.323 6.19857V7.56205C15.2348 8.13127 16.6306 9.90513 16.6306 12.0033ZM12 6.70822L10.7563 7.95257L12 9.19691V6.70822ZM14.9768 12.0033C14.9768 10.8318 14.3021 9.8257 13.323 9.33591V10.5207L14.9636 12.1622C14.9702 12.1092 14.9768 12.0563 14.9768 12.0033Z" fill="currentColor"/>
<path d="M6 6.93326L6.93275 6L18 17.0667L17.0673 18L15.7111 16.6431C15.0232 17.1925 14.2095 17.6029 13.323 17.8014V16.4379C13.8523 16.2857 14.3352 16.0276 14.7652 15.7033L12 12.9366V17.2984L8.69239 13.989H6.04631V10.0177H8.69239L8.88423 9.81908L6 6.93326Z" fill="currentColor" />
<path d="M13.323 9.33591C14.3021 9.8257 14.9768 10.8318 14.9768 12.0033C14.9768 12.0563 14.9702 12.1092 14.9636 12.1622L13.323 10.5207V9.33591Z" fill="currentColor" />
<path d="M10.7563 7.95257L12 6.70822V9.19691L10.7563 7.95257Z" fill="currentColor" />
<path d="M16.3594 13.5521C16.5314 13.0689 16.6306 12.5461 16.6306 12.0033C16.6306 9.90513 15.2348 8.13127 13.323 7.56205V6.19857C15.9757 6.80088 17.9537 9.17044 17.9537 12.0033C17.9537 12.9233 17.742 13.7904 17.3716 14.5648L16.3594 13.5521Z" fill="currentColor" />
</svg>
