<svg width="24" height="24" viewBox="0 0 24 24" fill="currentColor" xmlns="http://www.w3.org/2000/svg">
<path fill-rule="evenodd" clip-rule="evenodd" d="M22 12C22 17.5228 17.5228 22 12 22C6.47715 22 2 17.5228 2 12C2 6.47715 6.47715 2 12 2C17.5228 2 22 6.47715 22 12ZM18.293 19.7072L12.0001 13.4143L5.70718 19.7072L4.29297 18.293L10.5859 12.0001L4.29297 5.70718L5.70718 4.29297L12.0001 10.5859L18.293 4.29297L19.7072 5.70718L13.4143 12.0001L19.7072 18.293L18.293 19.7072Z" fill="currentColor"/>
<path d="M12.0001 13.4143L18.293 19.7072L19.7072 18.293L13.4143 12.0001L19.7072 5.70718L18.293 4.29297L12.0001 10.5859L5.70718 4.29297L4.29297 5.70718L10.5859 12.0001L4.29297 18.293L5.70718 19.7072L12.0001 13.4143Z" fill="currentColor" />
</svg>
