<svg width="24" height="24" viewBox="0 0 24 24" fill="currentColor" xmlns="http://www.w3.org/2000/svg">
<path fill-rule="evenodd" clip-rule="evenodd" d="M12 3.5C7.30843 3.5 3.5 7.30843 3.5 12C3.5 16.6916 7.30843 20.5 12 20.5C16.6916 20.5 20.5 16.6916 20.5 12C20.5 7.30843 16.6916 3.5 12 3.5ZM12 2C6.48 2 2 6.48 2 12C2 17.52 6.48 22 12 22C17.52 22 22 17.52 22 12C22 6.48 17.52 2 12 2Z" fill="currentColor"/>
<path fill-rule="evenodd" clip-rule="evenodd" d="M11 7H13V13H11V7ZM13 15V17H11V15H13Z" fill="currentColor"/>
</svg>
