<svg width="24" height="24" viewBox="0 0 24 24" fill="currentColor" xmlns="http://www.w3.org/2000/svg">
<path fill-rule="evenodd" clip-rule="evenodd" d="M22 12C22 17.5228 17.5228 22 12 22C6.47715 22 2 17.5228 2 12C2 6.47715 6.47715 2 12 2C17.5228 2 22 6.47715 22 12ZM11.7317 7.78607L12.9196 6.5L18 12L12.9197 17.5L11.7317 16.2139L14.7772 12.911H6V11.089H14.7772L11.7317 7.78607Z" fill="currentColor"/>
<path d="M12.9196 6.5L11.7317 7.78607L14.7772 11.089H6V12.911H14.7772L11.7317 16.2139L12.9197 17.5L18 12L12.9196 6.5Z" fill="currentColor" />
</svg>
