<svg width="24" height="24" viewBox="0 0 24 24" fill="currentColor" xmlns="http://www.w3.org/2000/svg">
<mask id="mask0_29002_245347" style="mask-type:alpha" maskUnits="userSpaceOnUse" x="0" y="0" width="24" height="24">
<rect width="24" height="24" fill="currentColor"/>
</mask>
<g mask="url(#mask0_29002_245347)">
<path d="M10.186 16.5259H8.82812V12.8081C8.82812 12.7056 8.82959 12.5796 8.83252 12.4302C8.83545 12.2778 8.83984 12.1226 8.8457 11.9644C8.85156 11.8032 8.85742 11.6582 8.86328 11.5293C8.83105 11.5674 8.76514 11.6333 8.66553 11.7271C8.56885 11.8179 8.47803 11.8999 8.39307 11.9731L7.65479 12.5664L7 11.749L9.06982 10.1011H10.186V16.5259Z" fill="currentColor"/>
<path d="M15.9351 13.3135C15.9351 13.832 15.894 14.2949 15.812 14.7021C15.7329 15.1094 15.604 15.4551 15.4253 15.7393C15.2495 16.0234 15.0181 16.2402 14.731 16.3896C14.4438 16.5391 14.0952 16.6138 13.6851 16.6138C13.1694 16.6138 12.7461 16.4834 12.415 16.2227C12.084 15.959 11.8394 15.5811 11.6812 15.0889C11.5229 14.5938 11.4438 14.002 11.4438 13.3135C11.4438 12.6191 11.5156 12.0259 11.6592 11.5337C11.8057 11.0386 12.043 10.6592 12.3711 10.3955C12.6992 10.1318 13.1372 10 13.6851 10C14.1978 10 14.6196 10.1318 14.9507 10.3955C15.2847 10.6562 15.5322 11.0342 15.6934 11.5293C15.8545 12.0215 15.9351 12.6162 15.9351 13.3135ZM12.793 13.3135C12.793 13.8027 12.8193 14.2114 12.8721 14.5396C12.9277 14.8647 13.02 15.1094 13.1489 15.2734C13.2778 15.4375 13.4565 15.5195 13.6851 15.5195C13.9106 15.5195 14.0879 15.439 14.2168 15.2778C14.3486 15.1138 14.4424 14.8691 14.498 14.5439C14.5537 14.2158 14.5815 13.8057 14.5815 13.3135C14.5815 12.8242 14.5537 12.4155 14.498 12.0874C14.4424 11.7593 14.3486 11.5132 14.2168 11.3491C14.0879 11.1821 13.9106 11.0986 13.6851 11.0986C13.4565 11.0986 13.2778 11.1821 13.1489 11.3491C13.02 11.5132 12.9277 11.7593 12.8721 12.0874C12.8193 12.4155 12.793 12.8242 12.793 13.3135Z" fill="currentColor"/>
<path d="M12 22C10.75 22 9.57933 21.7627 8.488 21.288C7.396 20.8127 6.446 20.1707 5.638 19.362C4.82933 18.554 4.18733 17.604 3.712 16.512C3.23733 15.4207 3 14.25 3 13C3 11.75 3.23733 10.579 3.712 9.487C4.18733 8.39567 4.82933 7.44567 5.638 6.637C6.446 5.829 7.396 5.18767 8.488 4.713C9.57933 4.23767 10.75 4 12 4H12.15L10.6 2.45L12 1L16 5L12 9L10.6 7.55L12.15 6H12C10.05 6 8.396 6.679 7.038 8.037C5.67933 9.39567 5 11.05 5 13C5 14.95 5.67933 16.604 7.038 17.962C8.396 19.3207 10.05 20 12 20C13.95 20 15.604 19.3207 16.962 17.962C18.3207 16.604 19 14.95 19 13H21C21 14.25 20.7627 15.4207 20.288 16.512C19.8127 17.604 19.171 18.554 18.363 19.362C17.5543 20.1707 16.6043 20.8127 15.513 21.288C14.421 21.7627 13.25 22 12 22Z" fill="currentColor"/>
</g>
</svg>
