<svg width="24" height="24" viewBox="0 0 24 24" fill="currentColor" xmlns="http://www.w3.org/2000/svg">
<path d="M18 10.5V12.5H22V10.5H18ZM16 17.11C16.96 17.82 18.21 18.76 19.2 19.5C19.6 18.97 20 18.43 20.4 17.9C19.41 17.16 18.16 16.22 17.2 15.5C16.8 16.04 16.4 16.58 16 17.11ZM20.4 5.1C20 4.57 19.6 4.03 19.2 3.5C18.21 4.24 16.96 5.18 16 5.9C16.4 6.43 16.8 6.97 17.2 7.5C18.16 6.78 19.41 5.85 20.4 5.1ZM4 8C2.9 8 2 8.9 2 10L2 12.84C2 13.94 2.9 14.84 4 14.84H4.5V18.84H7.5V14.84H8L13 18.5V4.5L8 8H4ZM15.5 11.5C15.5 10.17 14.92 8.97 14 8.15V14.84C14.92 14.03 15.5 12.83 15.5 11.5Z" fill="currentColor"/>
</svg>
