<svg width="24" height="24" viewBox="0 0 24 24" fill="currentColor" xmlns="http://www.w3.org/2000/svg">
<path d="M2.9998 22.9999C2.71647 22.9999 2.47914 22.9039 2.2878 22.7119C2.0958 22.5206 1.9998 22.2832 1.9998 21.9999C1.9998 21.7166 2.0958 21.4792 2.2878 21.2879C2.47914 21.0959 2.71647 20.9999 2.9998 20.9999C3.43314 20.9999 3.86247 20.9456 4.2878 20.8369C4.71247 20.7289 5.11647 20.5582 5.4998 20.3249C5.6498 20.2416 5.81647 20.1999 5.9998 20.1999C6.18314 20.1999 6.3498 20.2416 6.4998 20.3249C6.88314 20.5582 7.28747 20.7289 7.7128 20.8369C8.13747 20.9456 8.56647 20.9999 8.9998 20.9999C9.43314 20.9999 9.86247 20.9456 10.2878 20.8369C10.7125 20.7289 11.1165 20.5582 11.4998 20.3249C11.6498 20.2416 11.8208 20.1999 12.0128 20.1999C12.2041 20.1999 12.3665 20.2416 12.4998 20.3249C12.8831 20.5582 13.2875 20.7289 13.7128 20.8369C14.1375 20.9456 14.5665 20.9999 14.9998 20.9999C15.4331 20.9999 15.8625 20.9456 16.2878 20.8369C16.7125 20.7289 17.1165 20.5582 17.4998 20.3249C17.6331 20.2416 17.7998 20.1999 17.9998 20.1999C18.1998 20.1999 18.3665 20.2416 18.4998 20.3249C18.8831 20.5582 19.2871 20.7289 19.7118 20.8369C20.1371 20.9456 20.5665 20.9999 20.9998 20.9999C21.2831 20.9999 21.5205 21.0959 21.7118 21.2879C21.9038 21.4792 21.9998 21.7166 21.9998 21.9999C21.9998 22.2832 21.9038 22.5206 21.7118 22.7119C21.5205 22.9039 21.2831 22.9999 20.9998 22.9999C20.4831 22.9999 19.9748 22.9372 19.4748 22.8119C18.9748 22.6872 18.4831 22.4999 17.9998 22.2499C17.5165 22.4999 17.0248 22.6872 16.5248 22.8119C16.0248 22.9372 15.5165 22.9999 14.9998 22.9999C14.4831 22.9999 13.9748 22.9372 13.4748 22.8119C12.9748 22.6872 12.4831 22.4999 11.9998 22.2499C11.5165 22.4999 11.0248 22.6872 10.5248 22.8119C10.0248 22.9372 9.51647 22.9999 8.9998 22.9999C8.48314 22.9999 7.9748 22.9372 7.4748 22.8119C6.9748 22.6872 6.48314 22.4999 5.9998 22.2499C5.51647 22.4999 5.0248 22.6872 4.5248 22.8119C4.0248 22.9372 3.51647 22.9999 2.9998 22.9999ZM11.9998 9.49989C11.4498 9.49989 10.9791 9.30389 10.5878 8.91189C10.1958 8.52056 9.9998 8.04989 9.9998 7.49989C9.9998 6.94989 10.1958 6.47923 10.5878 6.08789C10.9791 5.69589 11.4498 5.49989 11.9998 5.49989C12.5498 5.49989 13.0208 5.69589 13.4128 6.08789C13.8041 6.47923 13.9998 6.94989 13.9998 7.49989C13.9998 8.04989 13.8041 8.52056 13.4128 8.91189C13.0208 9.30389 12.5498 9.49989 11.9998 9.49989ZM8.9998 18.9999C8.5498 18.9999 8.1248 18.9166 7.7248 18.7499C7.3248 18.5832 6.95814 18.3666 6.6248 18.0999C6.44147 17.9499 6.22914 17.8749 5.9878 17.8749C5.7458 17.8749 5.53314 17.9499 5.3498 18.0999C5.13314 18.2666 4.90814 18.4166 4.6748 18.5499C4.44147 18.6832 4.19147 18.7916 3.9248 18.8749L3.2248 18.6749C2.99147 18.6082 2.75814 18.5332 2.5248 18.4499C2.04147 18.2999 1.7998 17.9832 1.7998 17.4999C1.7998 17.0166 2.04147 16.6999 2.5248 16.5499C3.25814 16.3166 4.02047 16.1039 4.8118 15.9119C5.6038 15.7206 6.3748 15.5582 7.1248 15.4249L8.4748 11.2499C8.65814 10.6832 9.0038 10.3082 9.5118 10.1249C10.0205 9.94156 10.4998 9.96656 10.9498 10.1999L13.4998 11.4999L16.3248 9.99989L17.9748 6.2999L17.6248 5.34989C17.5915 5.21656 17.5748 5.09156 17.5748 4.97489C17.5748 4.85823 17.5998 4.73323 17.6498 4.59989L18.3998 2.92489C18.5165 2.65823 18.7038 2.47489 18.9618 2.37489C19.2205 2.27489 19.4748 2.28323 19.7248 2.39989L21.0748 3.02489C21.3415 3.14156 21.5248 3.32889 21.6248 3.58689C21.7248 3.84556 21.7165 4.09989 21.5998 4.34989L20.8498 6.02489C20.7998 6.15823 20.7248 6.26656 20.6248 6.34989C20.5248 6.43323 20.4081 6.49989 20.2748 6.54989L19.3498 6.89989L15.6498 15.2499C16.6331 15.3666 17.6291 15.5416 18.6378 15.7749C19.6458 16.0082 20.5915 16.2666 21.4748 16.5499C21.9415 16.6999 22.1748 17.0166 22.1748 17.4999C22.1748 17.9832 21.9415 18.2999 21.4748 18.4499C21.2415 18.5332 21.0041 18.6082 20.7628 18.6749C20.5208 18.7416 20.2915 18.8082 20.0748 18.8749C19.8081 18.7916 19.5538 18.6872 19.3118 18.5619C19.0705 18.4372 18.8415 18.2832 18.6248 18.0999C18.4415 17.9499 18.2331 17.8749 17.9998 17.8749C17.7665 17.8749 17.5581 17.9499 17.3748 18.0999C17.0415 18.3666 16.6748 18.5832 16.2748 18.7499C15.8748 18.9166 15.4498 18.9999 14.9998 18.9999C14.5498 18.9999 14.1248 18.9166 13.7248 18.7499C13.3248 18.5832 12.9581 18.3666 12.6248 18.0999C12.4415 17.9499 12.2331 17.8749 11.9998 17.8749C11.7665 17.8749 11.5581 17.9499 11.3748 18.0999C11.0415 18.3666 10.6748 18.5832 10.2748 18.7499C9.8748 18.9166 9.4498 18.9999 8.9998 18.9999ZM14.0748 15.0749L15.0248 12.9499L13.4998 13.7499L11.7498 12.8499L11.0498 14.9999H11.9998C12.3498 14.9999 12.6998 15.0039 13.0498 15.0119C13.3998 15.0206 13.7415 15.0416 14.0748 15.0749Z" fill="currentColor"/>
</svg>
