<svg width="24" height="24" viewBox="0 0 24 24"  xmlns="http://www.w3.org/2000/svg">
<path fill-rule="evenodd" clip-rule="evenodd" d="M12.5 8L11.5 10.9999L1.5 9L4.10943 14.2189C4.14604 14.1888 4.18195 14.1575 4.21715 14.125C4.40946 13.975 4.61779 13.9 4.84215 13.9C5.06651 13.9 5.27484 13.975 5.46715 14.125C5.78766 14.3917 6.14023 14.604 6.52484 14.762C6.90946 14.9207 7.3101 15 7.72676 15C8.14343 15 8.54407 14.9207 8.92869 14.762C9.3133 14.604 9.66587 14.3917 9.98638 14.125C10.1787 13.975 10.387 13.9 10.6114 13.9C10.8357 13.9 11.0441 13.975 11.2364 14.125C11.5569 14.3917 11.9095 14.604 12.2941 14.762C12.6787 14.9207 13.0793 15 13.496 15C13.9127 15 14.3133 14.9207 14.6979 14.762C15.0825 14.604 15.4351 14.3917 15.7556 14.125C15.9479 13.975 16.1562 13.9 16.3806 13.9C16.605 13.9 16.8133 13.975 17.0056 14.125C17.1498 14.2583 17.3063 14.3707 17.4748 14.462C17.6428 14.554 17.8149 14.6417 17.9912 14.725C18.6539 15 20.2801 14.892 20.5769 14.5C20.5983 14.4778 20.6206 14.4528 20.6437 14.4251L21.5 11H17.5L16.5 8H12.5ZM13.5 9H15.5L15.75 10H13.25L13.5 9Z" fill="currentColor"/>
<path d="M3.025 18.612C2.525 18.7373 2.01667 18.8 1.5 18.8C1.21667 18.8 0.979333 18.704 0.788 18.512C0.596 18.3207 0.5 18.0833 0.5 17.8C0.5 17.5167 0.596 17.2793 0.788 17.088C0.979333 16.896 1.21667 16.8 1.5 16.8C1.93333 16.8 2.36267 16.7457 2.788 16.637C3.21267 16.529 3.61667 16.3583 4 16.125C4.15 16.0417 4.31667 16 4.5 16C4.68333 16 4.85 16.0417 5 16.125C5.38333 16.3583 5.78767 16.529 6.213 16.637C6.63767 16.7457 7.06667 16.8 7.5 16.8C7.93333 16.8 8.36267 16.7457 8.788 16.637C9.21267 16.529 9.61667 16.3583 10 16.125C10.15 16.0417 10.321 16 10.513 16C10.7043 16 10.8667 16.0417 11 16.125C11.3833 16.3583 11.7877 16.529 12.213 16.637C12.6377 16.7457 13.0667 16.8 13.5 16.8C13.9333 16.8 14.3627 16.7457 14.788 16.637C15.2127 16.529 15.6167 16.3583 16 16.125C16.1333 16.0417 16.3 16 16.5 16C16.7 16 16.8667 16.0417 17 16.125C17.3833 16.3583 17.7873 16.529 18.212 16.637C18.6373 16.7457 19.0667 16.8 19.5 16.8C19.7833 16.8 20.0207 16.896 20.212 17.088C20.404 17.2793 20.5 17.5167 20.5 17.8C20.5 18.0833 20.404 18.3207 20.212 18.512C20.0207 18.704 19.7833 18.8 19.5 18.8C18.9833 18.8 18.475 18.7373 17.975 18.612C17.475 18.4873 16.9833 18.3 16.5 18.05C16.0167 18.3 15.525 18.4873 15.025 18.612C14.525 18.7373 14.0167 18.8 13.5 18.8C12.9833 18.8 12.475 18.7373 11.975 18.612C11.475 18.4873 10.9833 18.3 10.5 18.05C10.0167 18.3 9.525 18.4873 9.025 18.612C8.525 18.7373 8.01667 18.8 7.5 18.8C6.98333 18.8 6.475 18.7373 5.975 18.612C5.475 18.4873 4.98333 18.3 4.5 18.05C4.01667 18.3 3.525 18.4873 3.025 18.612Z" fill="currentColor"/>
</svg>
