<svg width="24" height="24" viewBox="0 0 24 24"  xmlns="http://www.w3.org/2000/svg">
<path fill-rule="evenodd" clip-rule="evenodd" d="M15.5 7H14L11 9H11.1015C9.41073 9 7.76346 9.53567 6.3961 10.5301L4.375 12H1C1.08413 12.3365 1.24726 12.673 1.47096 13C2.21096 14.0817 3.6137 15.0591 5.01143 15.5874C5.09141 15.5465 5.17056 15.5047 5.24888 15.462C5.41683 15.3707 5.57292 15.2583 5.71715 15.125C5.90946 14.975 6.11779 14.9 6.34215 14.9C6.56651 14.9 6.77484 14.975 6.96715 15.125C7.28766 15.3917 7.64023 15.604 8.02484 15.762C8.40946 15.9207 8.8101 16 9.22676 16C9.64343 16 10.0441 15.9207 10.4287 15.762C10.8133 15.604 11.1659 15.3917 11.4864 15.125C11.6787 14.975 11.887 14.9 12.1114 14.9C12.3357 14.9 12.5441 14.975 12.7364 15.125C13.0569 15.3917 13.4095 15.604 13.7941 15.762C14.1787 15.9207 14.5793 16 14.996 16C15.4127 16 15.8133 15.9207 16.1979 15.762C16.5825 15.604 16.9351 15.3917 17.2556 15.125C17.4479 14.975 17.6562 14.9 17.8806 14.9C18.105 14.9 18.3133 14.975 18.5056 15.125C18.6498 15.2583 18.8063 15.3707 18.9748 15.462C19.1428 15.554 19.3149 15.6417 19.4912 15.725C20.0999 15.9776 21.5217 15.907 21.9792 15.59C21.9587 15.3886 21.9233 15.1915 21.874 15C21.4299 13.2748 19.8638 12 18 12H16.625L15.875 10H17V9H15L15.5 7ZM15.557 12H6.07518L6.76268 11.5H11.5V10.5H8.50339C9.32492 10.1716 10.2062 10 11.1015 10H14.807L15.557 12Z" fill="currentColor"/>
<path d="M4.525 19.612C4.025 19.7373 3.51667 19.8 3 19.8C2.71667 19.8 2.47933 19.704 2.288 19.512C2.096 19.3207 2 19.0833 2 18.8C2 18.5167 2.096 18.2793 2.288 18.088C2.47933 17.896 2.71667 17.8 3 17.8C3.43333 17.8 3.86267 17.7457 4.288 17.637C4.71267 17.529 5.11667 17.3583 5.5 17.125C5.65 17.0417 5.81667 17 6 17C6.18333 17 6.35 17.0417 6.5 17.125C6.88333 17.3583 7.28767 17.529 7.713 17.637C8.13767 17.7457 8.56667 17.8 9 17.8C9.43333 17.8 9.86267 17.7457 10.288 17.637C10.7127 17.529 11.1167 17.3583 11.5 17.125C11.65 17.0417 11.821 17 12.013 17C12.2043 17 12.3667 17.0417 12.5 17.125C12.8833 17.3583 13.2877 17.529 13.713 17.637C14.1377 17.7457 14.5667 17.8 15 17.8C15.4333 17.8 15.8627 17.7457 16.288 17.637C16.7127 17.529 17.1167 17.3583 17.5 17.125C17.6333 17.0417 17.8 17 18 17C18.2 17 18.3667 17.0417 18.5 17.125C18.8833 17.3583 19.2873 17.529 19.712 17.637C20.1373 17.7457 20.5667 17.8 21 17.8C21.2833 17.8 21.5207 17.896 21.712 18.088C21.904 18.2793 22 18.5167 22 18.8C22 19.0833 21.904 19.3207 21.712 19.512C21.5207 19.704 21.2833 19.8 21 19.8C20.4833 19.8 19.975 19.7373 19.475 19.612C18.975 19.4873 18.4833 19.3 18 19.05C17.5167 19.3 17.025 19.4873 16.525 19.612C16.025 19.7373 15.5167 19.8 15 19.8C14.4833 19.8 13.975 19.7373 13.475 19.612C12.975 19.4873 12.4833 19.3 12 19.05C11.5167 19.3 11.025 19.4873 10.525 19.612C10.025 19.7373 9.51667 19.8 9 19.8C8.48333 19.8 7.975 19.7373 7.475 19.612C6.975 19.4873 6.48333 19.3 6 19.05C5.51667 19.3 5.025 19.4873 4.525 19.612Z" fill="currentColor"/>
</svg>
