<svg width="24" height="24" viewBox="0 0 24 24"  xmlns="http://www.w3.org/2000/svg">
<path fill-rule="evenodd" clip-rule="evenodd" d="M17 9.9999V7H21V10H22V14.5709C21.9249 14.6239 21.8482 14.6753 21.7699 14.725C21.5654 14.6417 21.3658 14.554 21.1709 14.462C20.9754 14.3707 20.7939 14.2583 20.6266 14.125C20.4036 13.975 20.1619 13.9 19.9016 13.9C19.6414 13.9 19.3997 13.975 19.1766 14.125C18.8048 14.3917 18.3959 14.604 17.9497 14.762C17.5036 14.9207 17.0388 15 16.5555 15C16.0721 15 15.6074 14.9207 15.1612 14.762C14.7151 14.604 14.3061 14.3917 13.9343 14.125C13.7112 13.975 13.4696 13.9 13.2093 13.9C12.9491 13.9 12.7074 13.975 12.4843 14.125C12.1125 14.3917 11.7036 14.604 11.2574 14.762C10.8112 14.9207 10.3465 15 9.86317 15C9.37983 15 8.91509 14.9207 8.46894 14.762C8.02278 14.604 7.61381 14.3917 7.24201 14.125C7.01894 13.975 6.77727 13.9 6.51701 13.9C6.25676 13.9 6.01509 13.975 5.79201 14.125C5.62471 14.2583 5.44364 14.3707 5.24882 14.462C5.15717 14.5051 5.06455 14.5473 4.97094 14.5885C4.8015 13.4306 3.42223 11.8494 2.66383 11.3481C2.04118 10.9365 1.5 10.5788 1.5 10L6 9.99997V8.5C6 8.22386 6.22386 8 6.5 8H9.5C9.77614 8 10 8.22386 10 8.5V9.99994L11 9.99994V8.5C11 8.22386 11.2239 8 11.5 8H14.5C14.7761 8 15 8.22386 15 8.5V9.99991L17 9.9999ZM18 8H20V10H18V8Z" fill="currentColor"/>
<path d="M5.15125 18.7986C4.62625 18.9329 4.0925 19 3.55 19C3.2525 19 3.0033 18.8971 2.8024 18.6914C2.6008 18.4864 2.5 18.2321 2.5 17.9286C2.5 17.625 2.6008 17.3707 2.8024 17.1657C3.0033 16.96 3.2525 16.8571 3.55 16.8571C4.005 16.8571 4.4558 16.7989 4.9024 16.6825C5.3483 16.5668 5.7725 16.3839 6.175 16.1339C6.3325 16.0446 6.5075 16 6.7 16C6.8925 16 7.0675 16.0446 7.225 16.1339C7.6275 16.3839 8.05205 16.5668 8.49865 16.6825C8.94455 16.7989 9.395 16.8571 9.85 16.8571C10.305 16.8571 10.7558 16.7989 11.2024 16.6825C11.6483 16.5668 12.0725 16.3839 12.475 16.1339C12.6325 16.0446 12.812 16 13.0136 16C13.2145 16 13.385 16.0446 13.525 16.1339C13.9275 16.3839 14.352 16.5668 14.7986 16.6825C15.2445 16.7989 15.695 16.8571 16.15 16.8571C16.605 16.8571 17.0558 16.7989 17.5024 16.6825C17.9483 16.5668 18.3725 16.3839 18.775 16.1339C18.915 16.0446 19.09 16 19.3 16C19.51 16 19.685 16.0446 19.825 16.1339C20.2275 16.3839 20.6517 16.5668 21.0976 16.6825C21.5442 16.7989 21.995 16.8571 22.45 16.8571C22.7475 16.8571 22.9967 16.96 23.1976 17.1657C23.3992 17.3707 23.5 17.625 23.5 17.9286C23.5 18.2321 23.3992 18.4864 23.1976 18.6914C22.9967 18.8971 22.7475 19 22.45 19C21.9075 19 21.3737 18.9329 20.8487 18.7986C20.3237 18.665 19.8075 18.4643 19.3 18.1964C18.7925 18.4643 18.2762 18.665 17.7512 18.7986C17.2262 18.9329 16.6925 19 16.15 19C15.6075 19 15.0737 18.9329 14.5487 18.7986C14.0238 18.665 13.5075 18.4643 13 18.1964C12.4925 18.4643 11.9762 18.665 11.4512 18.7986C10.9262 18.9329 10.3925 19 9.85 19C9.3075 19 8.77375 18.9329 8.24875 18.7986C7.72375 18.665 7.2075 18.4643 6.7 18.1964C6.1925 18.4643 5.67625 18.665 5.15125 18.7986Z" fill="currentColor"/>
</svg>
