<svg width="24" height="24" viewBox="0 0 24 24"  xmlns="http://www.w3.org/2000/svg">
<path d="M20.05 13.5002C20.25 13.5002 20.3957 13.4129 20.487 13.2382C20.579 13.0629 20.5667 12.8919 20.45 12.7252L13.9 3.3002C13.7667 3.1002 13.5833 3.03753 13.35 3.1122C13.1167 3.18753 13 3.3502 13 3.6002V13.0002C13 13.1335 13.05 13.2502 13.15 13.3502C13.25 13.4502 13.3667 13.5002 13.5 13.5002H20.05ZM11.25 12.8002C11.0667 12.1835 10.896 11.3919 10.738 10.4252C10.5793 9.45853 10.5 8.48353 10.5 7.5002C10.5 6.5502 10.575 5.56686 10.725 4.5502C10.875 3.53353 11.0417 2.66686 11.225 1.9502C11.3083 1.66686 11.2833 1.46686 11.15 1.3502C11.0167 1.23353 10.825 1.23353 10.575 1.3502C9.65833 1.76686 8.75833 2.37086 7.875 3.1622C6.99167 3.9542 6.2 4.87086 5.5 5.9122C4.8 6.9542 4.22066 8.0792 3.762 9.2872C3.304 10.4959 3.05 11.7335 3 13.0002C3 13.1335 3.05 13.2502 3.15 13.3502C3.25 13.4502 3.36667 13.5002 3.5 13.5002H10.75C10.95 13.5002 11.1 13.4335 11.2 13.3002C11.3 13.1669 11.3167 13.0002 11.25 12.8002ZM12.65 18.1252C12.9833 18.3919 13.35 18.6042 13.75 18.7622C14.15 18.9209 14.5667 19.0002 15 19.0002C15.4333 19.0002 15.85 18.9209 16.25 18.7622C16.65 18.6042 17.0167 18.3919 17.35 18.1252C17.55 17.9752 17.7667 17.9002 18 17.9002C18.2333 17.9002 18.45 17.9752 18.65 18.1252C18.8 18.2585 18.9623 18.3709 19.137 18.4622C19.3123 18.5542 19.4917 18.6419 19.675 18.7252C20.075 18.4419 20.429 18.1042 20.737 17.7122C21.0457 17.3209 21.3083 16.8919 21.525 16.4252C21.6917 16.0585 21.6707 15.7295 21.462 15.4382C21.254 15.1462 20.9333 15.0002 20.5 15.0002H3.5C3.06667 15.0002 2.74567 15.1462 2.537 15.4382C2.329 15.7295 2.30833 16.0585 2.475 16.4252C2.69167 16.8919 2.954 17.3209 3.262 17.7122C3.57067 18.1042 3.925 18.4419 4.325 18.7252C4.50833 18.6419 4.68733 18.5542 4.862 18.4622C5.03733 18.3709 5.2 18.2585 5.35 18.1252C5.55 17.9752 5.76667 17.9002 6 17.9002C6.23333 17.9002 6.45 17.9752 6.65 18.1252C6.98333 18.3919 7.35 18.6042 7.75 18.7622C8.15 18.9209 8.56667 19.0002 9 19.0002C9.43333 19.0002 9.85 18.9209 10.25 18.7622C10.65 18.6042 11.0167 18.3919 11.35 18.1252C11.55 17.9752 11.7667 17.9002 12 17.9002C12.2333 17.9002 12.45 17.9752 12.65 18.1252ZM21 23.0002C20.4833 23.0002 19.975 22.9375 19.475 22.8122C18.975 22.6875 18.4833 22.5002 18 22.2502C17.5167 22.5002 17.025 22.6875 16.525 22.8122C16.025 22.9375 15.5167 23.0002 15 23.0002C14.4833 23.0002 13.975 22.9375 13.475 22.8122C12.975 22.6875 12.4833 22.5002 12 22.2502C11.5167 22.5002 11.025 22.6875 10.525 22.8122C10.025 22.9375 9.51667 23.0002 9 23.0002C8.48333 23.0002 7.975 22.9375 7.475 22.8122C6.975 22.6875 6.48333 22.5002 6 22.2502C5.51667 22.5002 5.025 22.6875 4.525 22.8122C4.025 22.9375 3.51667 23.0002 3 23.0002C2.71667 23.0002 2.47933 22.9042 2.288 22.7122C2.096 22.5209 2 22.2835 2 22.0002C2 21.7169 2.096 21.4795 2.288 21.2882C2.47933 21.0962 2.71667 21.0002 3 21.0002C3.43333 21.0002 3.86267 20.9459 4.288 20.8372C4.71267 20.7292 5.11667 20.5585 5.5 20.3252C5.63333 20.2419 5.8 20.2002 6 20.2002C6.2 20.2002 6.36667 20.2419 6.5 20.3252C6.88333 20.5585 7.28733 20.7292 7.712 20.8372C8.13733 20.9459 8.56667 21.0002 9 21.0002C9.43333 21.0002 9.86233 20.9459 10.287 20.8372C10.7123 20.7292 11.1167 20.5585 11.5 20.3252C11.6333 20.2419 11.7957 20.2002 11.987 20.2002C12.179 20.2002 12.35 20.2419 12.5 20.3252C12.8833 20.5585 13.2873 20.7292 13.712 20.8372C14.1373 20.9459 14.5667 21.0002 15 21.0002C15.4333 21.0002 15.8623 20.9459 16.287 20.8372C16.7123 20.7292 17.1167 20.5585 17.5 20.3252C17.65 20.2419 17.8167 20.2002 18 20.2002C18.1833 20.2002 18.35 20.2419 18.5 20.3252C18.8833 20.5585 19.2873 20.7292 19.712 20.8372C20.1373 20.9459 20.5667 21.0002 21 21.0002C21.2833 21.0002 21.5207 21.0962 21.712 21.2882C21.904 21.4795 22 21.7169 22 22.0002C22 22.2835 21.904 22.5209 21.712 22.7122C21.5207 22.9042 21.2833 23.0002 21 23.0002Z" fill="currentColor"/>
</svg>
