<svg width="24" height="24" viewBox="0 0 24 24" fill="currentColor" xmlns="http://www.w3.org/2000/svg">
<path d="M12 7H8V9H12V7Z" fill="currentColor"/>
<path d="M12 10H8V12H12V10Z" fill="currentColor"/>
<path d="M2 16.575V12.9999L22 13C22 14.9184 21.0348 16.1018 19.1043 16.6456C18.9847 16.5864 18.867 16.5252 18.7511 16.462C18.5832 16.3707 18.4271 16.2583 18.2829 16.125C18.0905 15.975 17.8822 15.9 17.6579 15.9C17.4335 15.9 17.2252 15.975 17.0328 16.125C16.7123 16.3917 16.3598 16.604 15.9752 16.762C15.5905 16.9207 15.1899 17 14.7732 17C14.3566 17 13.9559 16.9207 13.5713 16.762C13.1867 16.604 12.8341 16.3917 12.5136 16.125C12.3213 15.975 12.113 15.9 11.8886 15.9C11.6643 15.9 11.4559 15.975 11.2636 16.125C10.9431 16.3917 10.5905 16.604 10.2059 16.762C9.82131 16.9207 9.42067 17 9.004 17C8.58734 17 8.1867 16.9207 7.80208 16.762C7.41747 16.604 7.0649 16.3917 6.74439 16.125C6.55208 15.975 6.34375 15.9 6.11939 15.9C5.89503 15.9 5.6867 15.975 5.49439 16.125C5.35016 16.2583 5.19375 16.3707 5.02516 16.462C4.85721 16.554 4.6851 16.6417 4.50881 16.725C3.89057 16.9816 2.43359 16.9048 2 16.575Z" fill="currentColor"/>
<path d="M13 10H17V12H13V10Z" fill="currentColor"/>
<path d="M7 10H3V12H7V10Z" fill="currentColor"/>
<path d="M7 7H3V9H7V7Z" fill="currentColor"/>
<path d="M19.475 20.612C19.975 20.7373 20.4833 20.8 21 20.8C21.2833 20.8 21.5207 20.704 21.712 20.512C21.904 20.3207 22 20.0833 22 19.8C22 19.5167 21.904 19.2793 21.712 19.088C21.5207 18.896 21.2833 18.8 21 18.8C20.5667 18.8 20.1373 18.7457 19.712 18.637C19.2873 18.529 18.8833 18.3583 18.5 18.125C18.35 18.0417 18.1833 18 18 18C17.8167 18 17.65 18.0417 17.5 18.125C17.1167 18.3583 16.7123 18.529 16.287 18.637C15.8623 18.7457 15.4333 18.8 15 18.8C14.5667 18.8 14.1373 18.7457 13.712 18.637C13.2873 18.529 12.8833 18.3583 12.5 18.125C12.35 18.0417 12.179 18 11.987 18C11.7957 18 11.6333 18.0417 11.5 18.125C11.1167 18.3583 10.7123 18.529 10.287 18.637C9.86233 18.7457 9.43333 18.8 9 18.8C8.56667 18.8 8.13733 18.7457 7.712 18.637C7.28733 18.529 6.88333 18.3583 6.5 18.125C6.36667 18.0417 6.2 18 6 18C5.8 18 5.63333 18.0417 5.5 18.125C5.11667 18.3583 4.71267 18.529 4.288 18.637C3.86267 18.7457 3.43333 18.8 3 18.8C2.71667 18.8 2.47933 18.896 2.288 19.088C2.096 19.2793 2 19.5167 2 19.8C2 20.0833 2.096 20.3207 2.288 20.512C2.47933 20.704 2.71667 20.8 3 20.8C3.51667 20.8 4.025 20.7373 4.525 20.612C5.025 20.4873 5.51667 20.3 6 20.05C6.48333 20.3 6.975 20.4873 7.475 20.612C7.975 20.7373 8.48333 20.8 9 20.8C9.51667 20.8 10.025 20.7373 10.525 20.612C11.025 20.4873 11.5167 20.3 12 20.05C12.4833 20.3 12.975 20.4873 13.475 20.612C13.975 20.7373 14.4833 20.8 15 20.8C15.5167 20.8 16.025 20.7373 16.525 20.612C17.025 20.4873 17.5167 20.3 18 20.05C18.4833 20.3 18.975 20.4873 19.475 20.612Z" fill="currentColor"/>
</svg>
