<svg width="24" height="24" viewBox="0 0 24 24" fill="currentColor" xmlns="http://www.w3.org/2000/svg">
<path d="M20.475 18.612C20.975 18.7373 21.4833 18.8 22 18.8C22.2833 18.8 22.5207 18.704 22.712 18.512C22.904 18.3207 23 18.0833 23 17.8C23 17.5167 22.904 17.2793 22.712 17.088C22.5207 16.896 22.2833 16.8 22 16.8C21.5667 16.8 21.1373 16.7457 20.712 16.637C20.2873 16.529 19.8833 16.3583 19.5 16.125C19.35 16.0417 19.1833 16 19 16C18.8167 16 18.65 16.0417 18.5 16.125C18.1167 16.3583 17.7123 16.529 17.287 16.637C16.8623 16.7457 16.4333 16.8 16 16.8C15.5667 16.8 15.1373 16.7457 14.712 16.637C14.2873 16.529 13.8833 16.3583 13.5 16.125C13.35 16.0417 13.179 16 12.987 16C12.7957 16 12.6333 16.0417 12.5 16.125C12.1167 16.3583 11.7123 16.529 11.287 16.637C10.8623 16.7457 10.4333 16.8 10 16.8C9.56667 16.8 9.13733 16.7457 8.712 16.637C8.28733 16.529 7.88333 16.3583 7.5 16.125C7.36667 16.0417 7.2 16 7 16C6.8 16 6.63333 16.0417 6.5 16.125C6.11667 16.3583 5.71267 16.529 5.288 16.637C4.86267 16.7457 4.43333 16.8 4 16.8C3.71667 16.8 3.47933 16.896 3.288 17.088C3.096 17.2793 3 17.5167 3 17.8C3 18.0833 3.096 18.3207 3.288 18.512C3.47933 18.704 3.71667 18.8 4 18.8C4.51667 18.8 5.025 18.7373 5.525 18.612C6.025 18.4873 6.51667 18.3 7 18.05C7.48333 18.3 7.975 18.4873 8.475 18.612C8.975 18.7373 9.48333 18.8 10 18.8C10.5167 18.8 11.025 18.7373 11.525 18.612C12.025 18.4873 12.5167 18.3 13 18.05C13.4833 18.3 13.975 18.4873 14.475 18.612C14.975 18.7373 15.4833 18.8 16 18.8C16.5167 18.8 17.025 18.7373 17.525 18.612C18.025 18.4873 18.5167 18.3 19 18.05C19.4833 18.3 19.975 18.4873 20.475 18.612Z" fill="currentColor"/>
<path fill-rule="evenodd" clip-rule="evenodd" d="M15.5 11H22L20.2684 14.725C20.0921 14.6417 19.9197 14.554 19.7511 14.462C19.5832 14.3707 19.4271 14.2583 19.2829 14.125C19.0905 13.975 18.8822 13.9 18.6579 13.9C18.4335 13.9 18.2252 13.975 18.0329 14.125C17.7123 14.3917 17.3598 14.604 16.9752 14.762C16.5905 14.9207 16.1899 15 15.7732 15C15.3566 15 14.9559 14.9207 14.5713 14.762C14.1867 14.604 13.8341 14.3917 13.5136 14.125C13.3213 13.975 13.113 13.9 12.8886 13.9C12.6643 13.9 12.4559 13.975 12.2636 14.125C11.9431 14.3917 11.5905 14.604 11.2059 14.762C10.8213 14.9207 10.4207 15 10.004 15C9.58734 15 9.1867 14.9207 8.80208 14.762C8.41747 14.604 8.0649 14.3917 7.74439 14.125C7.55208 13.975 7.34375 13.9 7.11939 13.9C6.89503 13.9 6.6867 13.975 6.49439 14.125C6.35016 14.2583 6.19375 14.3707 6.02516 14.462C5.85721 14.554 5.6851 14.6417 5.50881 14.725C4.84615 15 3.71987 14.892 3.42307 14.5C3.37711 14.4522 3.32679 14.3913 3.2733 14.3199L2 11H8.5L10 9H11V8H13V9H14L15.5 11ZM13.5 10H10.5L9.75 11H14.25L13.5 10Z" fill="currentColor"/>
</svg>
