<svg width="24" height="24" viewBox="0 0 24 24"  xmlns="http://www.w3.org/2000/svg">
<path fill-rule="evenodd" clip-rule="evenodd" d="M7.75 10.3676L11.6708 8.75322C12.8785 8.25589 14.1721 8 15.4783 8H18.5L19.5 12L22.2154 14.7154C21.6148 14.9209 20.5089 14.9399 19.9912 14.725C19.8149 14.6417 19.6428 14.554 19.4748 14.462C19.3063 14.3707 19.1498 14.2583 19.0056 14.125C18.8133 13.975 18.605 13.9 18.3806 13.9C18.1562 13.9 17.9479 13.975 17.7556 14.125C17.4351 14.3917 17.0825 14.604 16.6979 14.762C16.3133 14.9207 15.9127 15 15.496 15C15.0793 15 14.6787 14.9207 14.2941 14.762C13.9095 14.604 13.5569 14.3917 13.2364 14.125C13.0441 13.975 12.8357 13.9 12.6114 13.9C12.387 13.9 12.1787 13.975 11.9864 14.125C11.6659 14.3917 11.3133 14.604 10.9287 14.762C10.5441 14.9207 10.1434 15 9.72676 15C9.3101 15 8.90946 14.9207 8.52484 14.762C8.14023 14.604 7.78766 14.3917 7.46715 14.125C7.27484 13.975 7.06651 13.9 6.84215 13.9C6.61779 13.9 6.40946 13.975 6.21715 14.125C6.1598 14.178 6.10058 14.2277 6.03948 14.2741C4.102 13.4468 2.47625 11.9525 1.5 10L7.75 10.3676ZM15.0426 10.7966L10.0481 10.5028L12.0515 9.6779C13.1385 9.2303 14.3027 9 15.4783 9H15.9409L15.0426 10.7966Z" fill="currentColor"/>
<path d="M5.025 18.612C4.525 18.7373 4.01667 18.8 3.5 18.8C3.21667 18.8 2.97933 18.704 2.788 18.512C2.596 18.3207 2.5 18.0833 2.5 17.8C2.5 17.5167 2.596 17.2793 2.788 17.088C2.97933 16.896 3.21667 16.8 3.5 16.8C3.93333 16.8 4.36267 16.7457 4.788 16.637C5.21267 16.529 5.61667 16.3583 6 16.125C6.15 16.0417 6.31667 16 6.5 16C6.68333 16 6.85 16.0417 7 16.125C7.38333 16.3583 7.78767 16.529 8.213 16.637C8.63767 16.7457 9.06667 16.8 9.5 16.8C9.93333 16.8 10.3627 16.7457 10.788 16.637C11.2127 16.529 11.6167 16.3583 12 16.125C12.15 16.0417 12.321 16 12.513 16C12.7043 16 12.8667 16.0417 13 16.125C13.3833 16.3583 13.7877 16.529 14.213 16.637C14.6377 16.7457 15.0667 16.8 15.5 16.8C15.9333 16.8 16.3627 16.7457 16.788 16.637C17.2127 16.529 17.6167 16.3583 18 16.125C18.1333 16.0417 18.3 16 18.5 16C18.7 16 18.8667 16.0417 19 16.125C19.3833 16.3583 19.7873 16.529 20.212 16.637C20.6373 16.7457 21.0667 16.8 21.5 16.8C21.7833 16.8 22.0207 16.896 22.212 17.088C22.404 17.2793 22.5 17.5167 22.5 17.8C22.5 18.0833 22.404 18.3207 22.212 18.512C22.0207 18.704 21.7833 18.8 21.5 18.8C20.9833 18.8 20.475 18.7373 19.975 18.612C19.475 18.4873 18.9833 18.3 18.5 18.05C18.0167 18.3 17.525 18.4873 17.025 18.612C16.525 18.7373 16.0167 18.8 15.5 18.8C14.9833 18.8 14.475 18.7373 13.975 18.612C13.475 18.4873 12.9833 18.3 12.5 18.05C12.0167 18.3 11.525 18.4873 11.025 18.612C10.525 18.7373 10.0167 18.8 9.5 18.8C8.98333 18.8 8.475 18.7373 7.975 18.612C7.475 18.4873 6.98333 18.3 6.5 18.05C6.01667 18.3 5.525 18.4873 5.025 18.612Z" fill="currentColor"/>
</svg>
