<svg width="24" height="24" viewBox="0 0 24 24" fill="currentColor" xmlns="http://www.w3.org/2000/svg">
<path fill-rule="evenodd" clip-rule="evenodd" d="M8.5 7H10L13 9H12.8985C14.5893 9 16.2365 9.53567 17.6039 10.5301L19.625 12H23C22.9159 12.3365 22.7527 12.673 22.529 13C21.789 14.0817 20.3863 15.0591 18.9886 15.5874C18.9086 15.5465 18.8294 15.5047 18.7511 15.462C18.5832 15.3707 18.4271 15.2583 18.2829 15.125C18.0905 14.975 17.8822 14.9 17.6579 14.9C17.4335 14.9 17.2252 14.975 17.0328 15.125C16.7123 15.3917 16.3598 15.604 15.9752 15.762C15.5905 15.9207 15.1899 16 14.7732 16C14.3566 16 13.9559 15.9207 13.5713 15.762C13.1867 15.604 12.8341 15.3917 12.5136 15.125C12.3213 14.975 12.113 14.9 11.8886 14.9C11.6643 14.9 11.4559 14.975 11.2636 15.125C10.9431 15.3917 10.5905 15.604 10.2059 15.762C9.82131 15.9207 9.42067 16 9.004 16C8.58734 16 8.1867 15.9207 7.80208 15.762C7.41747 15.604 7.0649 15.3917 6.74439 15.125C6.55208 14.975 6.34375 14.9 6.11939 14.9C5.89503 14.9 5.6867 14.975 5.49439 15.125C5.35016 15.2583 5.19375 15.3707 5.02516 15.462C4.85721 15.554 4.6851 15.6417 4.50881 15.725C3.90009 15.9776 2.47827 15.907 2.02075 15.59C2.04126 15.3886 2.07673 15.1915 2.12602 15C2.57006 13.2748 4.13616 12 6 12H7.375L8.125 10H7V9H9L8.5 7ZM8.443 12H17.9248L17.2373 11.5H12.5V10.5H15.4966C14.6751 10.1716 13.7938 10 12.8985 10H9.193L8.443 12Z" fill="currentColor"/>
<path d="M19.475 19.612C19.975 19.7373 20.4833 19.8 21 19.8C21.2833 19.8 21.5207 19.704 21.712 19.512C21.904 19.3207 22 19.0833 22 18.8C22 18.5167 21.904 18.2793 21.712 18.088C21.5207 17.896 21.2833 17.8 21 17.8C20.5667 17.8 20.1373 17.7457 19.712 17.637C19.2873 17.529 18.8833 17.3583 18.5 17.125C18.35 17.0417 18.1833 17 18 17C17.8167 17 17.65 17.0417 17.5 17.125C17.1167 17.3583 16.7123 17.529 16.287 17.637C15.8623 17.7457 15.4333 17.8 15 17.8C14.5667 17.8 14.1373 17.7457 13.712 17.637C13.2873 17.529 12.8833 17.3583 12.5 17.125C12.35 17.0417 12.179 17 11.987 17C11.7957 17 11.6333 17.0417 11.5 17.125C11.1167 17.3583 10.7123 17.529 10.287 17.637C9.86233 17.7457 9.43333 17.8 9 17.8C8.56667 17.8 8.13733 17.7457 7.712 17.637C7.28733 17.529 6.88333 17.3583 6.5 17.125C6.36667 17.0417 6.2 17 6 17C5.8 17 5.63333 17.0417 5.5 17.125C5.11667 17.3583 4.71267 17.529 4.288 17.637C3.86267 17.7457 3.43333 17.8 3 17.8C2.71667 17.8 2.47933 17.896 2.288 18.088C2.096 18.2793 2 18.5167 2 18.8C2 19.0833 2.096 19.3207 2.288 19.512C2.47933 19.704 2.71667 19.8 3 19.8C3.51667 19.8 4.025 19.7373 4.525 19.612C5.025 19.4873 5.51667 19.3 6 19.05C6.48333 19.3 6.975 19.4873 7.475 19.612C7.975 19.7373 8.48333 19.8 9 19.8C9.51667 19.8 10.025 19.7373 10.525 19.612C11.025 19.4873 11.5167 19.3 12 19.05C12.4833 19.3 12.975 19.4873 13.475 19.612C13.975 19.7373 14.4833 19.8 15 19.8C15.5167 19.8 16.025 19.7373 16.525 19.612C17.025 19.4873 17.5167 19.3 18 19.05C18.4833 19.3 18.975 19.4873 19.475 19.612Z" fill="currentColor"/>
</svg>
