<svg width="24" height="24" viewBox="0 0 24 24" fill="currentColor" xmlns="http://www.w3.org/2000/svg">
<path fill-rule="evenodd" clip-rule="evenodd" d="M11.5 8L12.5 10.9999L22.5 9L19.8906 14.2189C19.854 14.1888 19.818 14.1575 19.7829 14.125C19.5905 13.975 19.3822 13.9 19.1579 13.9C18.9335 13.9 18.7252 13.975 18.5329 14.125C18.2123 14.3917 17.8598 14.604 17.4752 14.762C17.0905 14.9207 16.6899 15 16.2732 15C15.8566 15 15.4559 14.9207 15.0713 14.762C14.6867 14.604 14.3341 14.3917 14.0136 14.125C13.8213 13.975 13.613 13.9 13.3886 13.9C13.1643 13.9 12.9559 13.975 12.7636 14.125C12.4431 14.3917 12.0905 14.604 11.7059 14.762C11.3213 14.9207 10.9207 15 10.504 15C10.0873 15 9.6867 14.9207 9.30208 14.762C8.91747 14.604 8.5649 14.3917 8.24439 14.125C8.05208 13.975 7.84375 13.9 7.61939 13.9C7.39503 13.9 7.1867 13.975 6.99439 14.125C6.85016 14.2583 6.69375 14.3707 6.52516 14.462C6.35721 14.554 6.1851 14.6417 6.00881 14.725C5.34615 15 3.71987 14.892 3.42307 14.5C3.40171 14.4778 3.37941 14.4528 3.35628 14.4251L2.5 11H6.5L7.5 8H11.5ZM10.5 9H8.5L8.25 10H10.75L10.5 9Z" fill="currentColor"/>
<path d="M20.975 18.612C21.475 18.7373 21.9833 18.8 22.5 18.8C22.7833 18.8 23.0207 18.704 23.212 18.512C23.404 18.3207 23.5 18.0833 23.5 17.8C23.5 17.5167 23.404 17.2793 23.212 17.088C23.0207 16.896 22.7833 16.8 22.5 16.8C22.0667 16.8 21.6373 16.7457 21.212 16.637C20.7873 16.529 20.3833 16.3583 20 16.125C19.85 16.0417 19.6833 16 19.5 16C19.3167 16 19.15 16.0417 19 16.125C18.6167 16.3583 18.2123 16.529 17.787 16.637C17.3623 16.7457 16.9333 16.8 16.5 16.8C16.0667 16.8 15.6373 16.7457 15.212 16.637C14.7873 16.529 14.3833 16.3583 14 16.125C13.85 16.0417 13.679 16 13.487 16C13.2957 16 13.1333 16.0417 13 16.125C12.6167 16.3583 12.2123 16.529 11.787 16.637C11.3623 16.7457 10.9333 16.8 10.5 16.8C10.0667 16.8 9.63733 16.7457 9.212 16.637C8.78733 16.529 8.38333 16.3583 8 16.125C7.86667 16.0417 7.7 16 7.5 16C7.3 16 7.13333 16.0417 7 16.125C6.61667 16.3583 6.21267 16.529 5.788 16.637C5.36267 16.7457 4.93333 16.8 4.5 16.8C4.21667 16.8 3.97933 16.896 3.788 17.088C3.596 17.2793 3.5 17.5167 3.5 17.8C3.5 18.0833 3.596 18.3207 3.788 18.512C3.97933 18.704 4.21667 18.8 4.5 18.8C5.01667 18.8 5.525 18.7373 6.025 18.612C6.525 18.4873 7.01667 18.3 7.5 18.05C7.98333 18.3 8.475 18.4873 8.975 18.612C9.475 18.7373 9.98333 18.8 10.5 18.8C11.0167 18.8 11.525 18.7373 12.025 18.612C12.525 18.4873 13.0167 18.3 13.5 18.05C13.9833 18.3 14.475 18.4873 14.975 18.612C15.475 18.7373 15.9833 18.8 16.5 18.8C17.0167 18.8 17.525 18.7373 18.025 18.612C18.525 18.4873 19.0167 18.3 19.5 18.05C19.9833 18.3 20.475 18.4873 20.975 18.612Z" fill="currentColor"/>
</svg>
