<svg width="24" height="24" viewBox="0 0 24 24"  xmlns="http://www.w3.org/2000/svg">
<path fill-rule="evenodd" clip-rule="evenodd" d="M14.5 7.0001V10.4648H2C2 12.2708 2.99148 13.8531 4.70751 14.7319L4.73157 14.725C4.90785 14.6417 5.08029 14.554 5.24888 14.462C5.41683 14.3707 5.57292 14.2583 5.71715 14.125C5.90946 13.975 6.11779 13.9 6.34215 13.9C6.56651 13.9 6.77484 13.975 6.96715 14.125C7.28766 14.3917 7.64023 14.604 8.02484 14.762C8.40946 14.9207 8.8101 15 9.22676 15C9.64343 15 10.0441 14.9207 10.4287 14.762C10.8133 14.604 11.1659 14.3917 11.4864 14.125C11.6787 13.975 11.887 13.9 12.1114 13.9C12.3357 13.9 12.5441 13.975 12.7364 14.125C13.0569 14.3917 13.4095 14.604 13.7941 14.762C14.1787 14.9207 14.5793 15 14.996 15C15.4127 15 15.8133 14.9207 16.1979 14.762C16.5825 14.604 16.9351 14.3917 17.2556 14.125C17.4479 13.975 17.6562 13.9 17.8806 13.9C18.105 13.9 18.3133 13.975 18.5056 14.125C18.6498 14.2583 18.8063 14.3707 18.9748 14.462C19.1428 14.554 19.3149 14.6417 19.4912 14.725C20.1094 14.9816 21.5664 14.9048 22 14.575V10.4648H20.5V7.5C20.5 7.22385 20.2761 7 20 7L14.5 7.0001ZM19 8.46483H16V10.4648H19V8.46483Z" fill="currentColor"/>
<path d="M4.525 18.612C4.025 18.7373 3.51667 18.8 3 18.8C2.71667 18.8 2.47933 18.704 2.288 18.512C2.096 18.3207 2 18.0833 2 17.8C2 17.5167 2.096 17.2793 2.288 17.088C2.47933 16.896 2.71667 16.8 3 16.8C3.43333 16.8 3.86267 16.7457 4.288 16.637C4.71267 16.529 5.11667 16.3583 5.5 16.125C5.65 16.0417 5.81667 16 6 16C6.18333 16 6.35 16.0417 6.5 16.125C6.88333 16.3583 7.28767 16.529 7.713 16.637C8.13767 16.7457 8.56667 16.8 9 16.8C9.43333 16.8 9.86267 16.7457 10.288 16.637C10.7127 16.529 11.1167 16.3583 11.5 16.125C11.65 16.0417 11.821 16 12.013 16C12.2043 16 12.3667 16.0417 12.5 16.125C12.8833 16.3583 13.2877 16.529 13.713 16.637C14.1377 16.7457 14.5667 16.8 15 16.8C15.4333 16.8 15.8627 16.7457 16.288 16.637C16.7127 16.529 17.1167 16.3583 17.5 16.125C17.6333 16.0417 17.8 16 18 16C18.2 16 18.3667 16.0417 18.5 16.125C18.8833 16.3583 19.2873 16.529 19.712 16.637C20.1373 16.7457 20.5667 16.8 21 16.8C21.2833 16.8 21.5207 16.896 21.712 17.088C21.904 17.2793 22 17.5167 22 17.8C22 18.0833 21.904 18.3207 21.712 18.512C21.5207 18.704 21.2833 18.8 21 18.8C20.4833 18.8 19.975 18.7373 19.475 18.612C18.975 18.4873 18.4833 18.3 18 18.05C17.5167 18.3 17.025 18.4873 16.525 18.612C16.025 18.7373 15.5167 18.8 15 18.8C14.4833 18.8 13.975 18.7373 13.475 18.612C12.975 18.4873 12.4833 18.3 12 18.05C11.5167 18.3 11.025 18.4873 10.525 18.612C10.025 18.7373 9.51667 18.8 9 18.8C8.48333 18.8 7.975 18.7373 7.475 18.612C6.975 18.4873 6.48333 18.3 6 18.05C5.51667 18.3 5.025 18.4873 4.525 18.612Z" fill="currentColor"/>
</svg>
