<svg width="24" height="24" viewBox="0 0 24 24" fill="currentColor" xmlns="http://www.w3.org/2000/svg">
<path d="M3 13.5L11 2V13.5H3ZM12.5 13.5C12.7 13.0333 12.9167 12.2167 13.15 11.05C13.3833 9.88333 13.5 8.7 13.5 7.5C13.5 6.3 13.3877 5.06667 13.163 3.8C12.9377 2.53333 12.7167 1.6 12.5 1C13.5167 1.3 14.5293 1.85833 15.538 2.675C16.546 3.49167 17.4543 4.46667 18.263 5.6C19.071 6.73333 19.7293 7.97933 20.238 9.338C20.746 10.696 21 12.0833 21 13.5H12.5ZM9 19C8.4 19 7.84167 18.8583 7.325 18.575C6.80833 18.2917 6.36667 17.9333 6 17.5C5.76667 17.75 5.51267 17.9833 5.238 18.2C4.96267 18.4167 4.65833 18.5917 4.325 18.725C3.74167 18.2917 3.246 17.754 2.838 17.112C2.42933 16.4707 2.15 15.7667 2 15H22C21.85 15.7667 21.571 16.4707 21.163 17.112C20.7543 17.754 20.2583 18.2917 19.675 18.725C19.3417 18.5917 19.0377 18.4167 18.763 18.2C18.4877 17.9833 18.2333 17.75 18 17.5C17.6167 17.9333 17.171 18.2917 16.663 18.575C16.1543 18.8583 15.6 19 15 19C14.4 19 13.8417 18.8583 13.325 18.575C12.8083 18.2917 12.3667 17.9333 12 17.5C11.6333 17.9333 11.1917 18.2917 10.675 18.575C10.1583 18.8583 9.6 19 9 19ZM2 23V21H3C3.53333 21 4.054 20.9167 4.562 20.75C5.07067 20.5833 5.55 20.3333 6 20C6.45 20.3333 6.92933 20.5793 7.438 20.738C7.946 20.896 8.46667 20.975 9 20.975C9.53333 20.975 10.05 20.896 10.55 20.738C11.05 20.5793 11.5333 20.3333 12 20C12.45 20.3333 12.9293 20.5793 13.438 20.738C13.946 20.896 14.4667 20.975 15 20.975C15.5333 20.975 16.05 20.896 16.55 20.738C17.05 20.5793 17.5333 20.3333 18 20C18.4667 20.3333 18.95 20.5833 19.45 20.75C19.95 20.9167 20.4667 21 21 21H22V23H21C20.4833 23 19.975 22.9373 19.475 22.812C18.975 22.6873 18.4833 22.5 18 22.25C17.5167 22.5 17.025 22.6873 16.525 22.812C16.025 22.9373 15.5167 23 15 23C14.4833 23 13.975 22.9373 13.475 22.812C12.975 22.6873 12.4833 22.5 12 22.25C11.5167 22.5 11.025 22.6873 10.525 22.812C10.025 22.9373 9.51667 23 9 23C8.48333 23 7.975 22.9373 7.475 22.812C6.975 22.6873 6.48333 22.5 6 22.25C5.51667 22.5 5.025 22.6873 4.525 22.812C4.025 22.9373 3.51667 23 3 23H2Z" fill="currentColor"/>
</svg>
