<svg width="24" height="24" viewBox="0 0 24 24" fill="currentColor" xmlns="http://www.w3.org/2000/svg">
<path d="M2 10.75C2.77305 10.75 3.28297 10.2674 3.60561 9.8028C3.91216 9.36136 4.14641 8.79888 4.34223 8.32866L4.35897 8.28846C4.57644 7.76655 4.75428 7.34871 4.95978 7.0528C5.15797 6.7674 5.27305 6.75 5.33333 6.75C5.39362 6.75 5.5087 6.7674 5.70689 7.0528C5.91239 7.34871 6.09023 7.76655 6.30769 8.28846L6.32443 8.32865C6.52026 8.79888 6.7545 9.36136 7.06106 9.8028C7.3837 10.2674 7.89362 10.75 8.66667 10.75C9.43971 10.75 9.94963 10.2674 10.2723 9.8028C10.5788 9.36136 10.8131 8.79889 11.0089 8.32866L11.0256 8.28846C11.2431 7.76655 11.4209 7.34871 11.6264 7.0528C11.8246 6.7674 11.9397 6.75 12 6.75C12.0603 6.75 12.1754 6.7674 12.3736 7.0528C12.5791 7.34871 12.7569 7.76655 12.9744 8.28846L12.9911 8.32867C13.1869 8.7989 13.4212 9.36137 13.7277 9.8028C14.0504 10.2674 14.5603 10.75 15.3333 10.75C16.1064 10.75 16.6163 10.2674 16.9389 9.8028C17.2455 9.36137 17.4797 8.7989 17.6756 8.32867L17.6923 8.28846C17.9098 7.76655 18.0876 7.34871 18.2931 7.0528C18.4913 6.7674 18.6064 6.75 18.6667 6.75C18.727 6.75 18.842 6.7674 19.0402 7.0528C19.2457 7.34871 19.4236 7.76655 19.641 8.28846L19.6578 8.32866C19.8536 8.79889 20.0878 9.36136 20.3944 9.8028C20.717 10.2674 21.227 10.75 22 10.75V9.25C21.9397 9.25 21.8246 9.2326 21.6264 8.9472C21.4209 8.65129 21.2431 8.23345 21.0256 7.71154L21.0089 7.67136C20.8131 7.20113 20.5788 6.63864 20.2723 6.1972C19.9496 5.7326 19.4397 5.25 18.6667 5.25C17.8936 5.25 17.3837 5.7326 17.0611 6.1972C16.7545 6.63863 16.5203 7.2011 16.3244 7.67132L16.3077 7.71154C16.0902 8.23345 15.9124 8.65129 15.7069 8.9472C15.5087 9.2326 15.3936 9.25 15.3333 9.25C15.273 9.25 15.158 9.2326 14.9598 8.9472C14.7543 8.65129 14.5764 8.23345 14.359 7.71154L14.3422 7.67134C14.1464 7.20111 13.9122 6.63863 13.6056 6.1972C13.283 5.7326 12.773 5.25 12 5.25C11.227 5.25 10.717 5.7326 10.3944 6.1972C10.0878 6.63863 9.8536 7.20111 9.65777 7.67134L9.64103 7.71154C9.42356 8.23345 9.24572 8.65129 9.04022 8.9472C8.84203 9.2326 8.72695 9.25 8.66667 9.25C8.60638 9.25 8.4913 9.2326 8.29311 8.9472C8.08761 8.65129 7.90977 8.23345 7.69231 7.71154L7.67556 7.67134C7.47974 7.20111 7.24549 6.63864 6.93894 6.1972C6.6163 5.7326 6.10638 5.25 5.33333 5.25C4.56029 5.25 4.05037 5.7326 3.72772 6.1972C3.42117 6.63864 3.18693 7.20111 2.9911 7.67134L2.97436 7.71154C2.75689 8.23345 2.57905 8.65129 2.37356 8.9472C2.17537 9.2326 2.06029 9.25 2 9.25V10.75Z" fill="currentColor"/>
<path d="M17.5627 12.9412L16.5662 14.0623L19.0274 16.25H2.25V17.75H19.0274L16.5662 19.9377L17.5627 21.0588L22.1289 17L17.5627 12.9412Z" fill="currentColor"/>
</svg>
