<svg width="24" height="24" viewBox="0 0 24 24" fill="currentColor" xmlns="http://www.w3.org/2000/svg">
<path d="M4.47379 3.47412L2.83999 1.84033L1.42578 3.25455L3.30916 5.13792C3.09275 5.52144 2.90209 5.91713 2.73715 6.325C2.24582 7.54167 2.00015 8.8 2.00015 10.1C2.00015 11.4 2.24582 12.6583 2.73715 13.875C3.22915 15.0917 3.95015 16.2 4.90015 17.2L6.10015 16C5.30015 15.2 4.70015 14.279 4.30015 13.237C3.90015 12.1957 3.70015 11.15 3.70015 10.1C3.70015 9.05 3.90015 8.004 4.30015 6.962C4.37642 6.76345 4.45995 6.5693 4.55076 6.37952L5.80014 7.62891C5.46681 8.43633 5.30015 9.26003 5.30015 10.1C5.30015 10.95 5.47082 11.7833 5.81215 12.6C6.15415 13.4167 6.65015 14.15 7.30015 14.8L8.50015 13.6C8.00015 13.1 7.62515 12.5417 7.37515 11.925C7.12515 11.3083 7.00015 10.7 7.00015 10.1C7.00015 9.71442 7.04414 9.33471 7.1321 8.96087L9.1707 10.9995C9.47193 11.8521 10.1477 12.5279 11.0002 12.8291V22H13.0002V14.8289L20.7842 22.6129L22.1984 21.1987L13.5616 12.562C13.5615 12.5621 13.5618 12.5619 13.5616 12.562L9.43832 8.43798C9.43823 8.43812 9.43841 8.43784 9.43832 8.43798L8.05796 7.0583C8.05786 7.05843 8.05807 7.05818 8.05796 7.0583L6.86969 5.86935C6.86958 5.86947 6.86979 5.86923 6.86969 5.86935L5.66716 4.6675C5.66705 4.66762 5.66726 4.66737 5.66716 4.6675L4.47379 3.47412C4.47389 3.474 4.47368 3.47425 4.47379 3.47412Z" fill="currentColor"/>
<path d="M20.0032 16.1744L18.7835 14.9547C19.1586 14.4242 19.4642 13.8517 19.7002 13.237C20.1002 12.1957 20.3001 11.15 20.3001 10.1C20.3001 9.05 20.1002 8.004 19.7002 6.962C19.3002 5.92067 18.7001 5 17.9002 4.2L19.1002 3C20.0502 4 20.7712 5.10833 21.2632 6.325C21.7545 7.54167 22.0002 8.8 22.0002 10.1C22.0002 11.4 21.7668 12.6583 21.3001 13.875C20.9875 14.6901 20.5552 15.4566 20.0032 16.1744Z" fill="currentColor"/>
<path d="M16.3645 12.5358L17.5724 13.7436C17.8148 13.3825 18.0201 13.0013 18.1882 12.6C18.5295 11.7833 18.7002 10.95 18.7002 10.1C18.6502 9.25 18.4668 8.41667 18.1502 7.6C17.8335 6.78333 17.3502 6.05 16.7002 5.4L15.5002 6.6C16.0002 7.1 16.3752 7.65833 16.6252 8.275C16.8752 8.89167 17.0002 9.5 17.0002 10.1C17.0002 10.75 16.8752 11.3833 16.6252 12C16.5497 12.1862 16.4628 12.3648 16.3645 12.5358Z" fill="currentColor"/>
<path d="M10.9996 7.17085L14.8292 11.0005C14.9399 10.6876 15.0002 10.3508 15.0002 10C15.0002 8.34326 13.6574 7 12.0002 7C11.6493 7 11.3125 7.06021 10.9996 7.17085Z" fill="currentColor"/>
</svg>
