<svg width="24" height="24" viewBox="0 0 24 24" fill="currentColor" xmlns="http://www.w3.org/2000/svg">
<path d="M3.16817 20.3326L1.75034 19.2585L4.19932 15.9717L5.1875 11.8471C5.25911 11.5178 5.40591 11.2242 5.62789 10.9664C5.84987 10.7086 6.13988 10.5224 6.49792 10.4078L14.6182 7.91589L16.4013 4.19945L19.0865 1.6001L20.2251 2.71718L17.9265 5.2306L16.4013 9.26927L12.0833 12.2768L7.05646 13.8665L5.78901 16.874L3.16817 20.3326ZM2.05109 13.2005C1.56416 13.2005 1.13809 13.0251 0.772896 12.6742C0.407697 12.3233 0.225098 11.8973 0.225098 11.396C0.225098 10.8948 0.407697 10.4687 0.772896 10.1178C1.13809 9.76694 1.56416 9.59151 2.05109 9.59151C2.55234 9.59151 2.98199 9.76694 3.34003 10.1178C3.69807 10.4687 3.87708 10.8948 3.87708 11.396C3.87708 11.8973 3.69807 12.3233 3.34003 12.6742C2.98199 13.0251 2.55234 13.2005 2.05109 13.2005ZM7.0135 9.09741C6.66978 9.21199 6.34039 9.17618 6.02531 8.99C5.71024 8.80382 5.50258 8.53171 5.40233 8.17368C5.30208 7.82996 5.33788 7.50056 5.50974 7.18549C5.6816 6.87042 5.94654 6.66276 6.30458 6.5625L10.4507 5.20912L11.1381 7.78699L7.0135 9.09741Z" fill="currentColor"/>
</svg>
