<svg width="24" height="24" viewBox="0 0 24 24" fill="currentColor" xmlns="http://www.w3.org/2000/svg">
<path d="M3.8685 4.57501C3.47798 4.18448 3.47798 3.55132 3.8685 3.1608L5.98982 1.03948C6.38034 0.648951 7.01351 0.648951 7.40403 1.03948L11.6467 5.28212C12.0372 5.67264 12.0372 6.30581 11.6467 6.69633L11.2931 7.04988L12.0002 7.75699L14.8287 4.92856C15.2192 4.53804 15.8523 4.53804 16.2429 4.92856L19.0713 7.75699C19.4618 8.14751 19.4618 8.78068 19.0713 9.1712L16.2429 11.9996L16.95 12.7067L17.3035 12.3532C17.6941 11.9627 18.3272 11.9627 18.7177 12.3532L22.9604 16.5958C23.3509 16.9863 23.3509 17.6195 22.9604 18.01L20.8391 20.1314C20.4485 20.5219 19.8154 20.5219 19.4248 20.1314L15.1822 15.8887C14.7917 15.4982 14.7917 14.865 15.1822 14.4745L15.5358 14.1209L14.8287 13.4138L13.4144 14.8281C13.0239 15.2186 12.3908 15.2186 12.0002 14.8281L9.1718 11.9996C8.78128 11.6091 8.78128 10.9759 9.1718 10.5854L10.586 9.1712L9.87891 8.4641L9.52535 8.81765C9.13483 9.20817 8.50166 9.20817 8.11114 8.81765L3.8685 4.57501Z" fill="currentColor"/>
<path d="M8.46416 15.5353C8.92846 15.9996 9.47965 16.3679 10.0863 16.6192C10.6929 16.8705 11.3431 16.9998 11.9997 16.9998V18.9998C11.0804 18.9998 10.1702 18.8188 9.32092 18.467C8.47164 18.1152 7.69996 17.5996 7.04995 16.9496C6.39994 16.2995 5.88433 15.5279 5.53254 14.6786C5.18076 13.8293 4.9997 12.9191 4.9997 11.9998L6.9997 11.9998C6.9997 12.6564 7.12903 13.3066 7.3803 13.9132C7.63157 14.5199 7.99987 15.0711 8.46416 15.5353Z" fill="currentColor"/>
<path d="M5.63604 18.364C6.47177 19.1997 7.46392 19.8626 8.55585 20.3149C9.64778 20.7672 10.8181 21 12 21L12 23C10.5555 23 9.12507 22.7155 7.79048 22.1627C6.4559 21.6099 5.24327 20.7996 4.22183 19.7782C3.20038 18.7567 2.39013 17.5441 1.83733 16.2095C1.28452 14.8749 1 13.4445 1 12L3 12C3 13.1819 3.23279 14.3522 3.68508 15.4441C4.13738 16.5361 4.80031 17.5282 5.63604 18.364Z" fill="currentColor"/>
</svg>
