<svg width="24" height="24" viewBox="0 0 24 24" fill="none" xmlns="http://www.w3.org/2000/svg">
<path d="M7 17H9.1L15.1 11.05L12.95 8.9L7 14.85V17ZM15.8 10.35L16.85 9.25C16.95 9.15 17 9.03333 17 8.9C17 8.76667 16.95 8.65 16.85 8.55L15.45 7.15C15.35 7.05 15.2333 7 15.1 7C14.9667 7 14.85 7.05 14.75 7.15L13.65 8.2L15.8 10.35ZM5 21C4.45 21 3.97917 20.8042 3.5875 20.4125C3.19583 20.0208 3 19.55 3 19V5C3 4.45 3.19583 3.97917 3.5875 3.5875C3.97917 3.19583 4.45 3 5 3H9.2C9.41667 2.4 9.77917 1.91667 10.2875 1.55C10.7958 1.18333 11.3667 1 12 1C12.6333 1 13.2042 1.18333 13.7125 1.55C14.2208 1.91667 14.5833 2.4 14.8 3H19C19.55 3 20.0208 3.19583 20.4125 3.5875C20.8042 3.97917 21 4.45 21 5V19C21 19.55 20.8042 20.0208 20.4125 20.4125C20.0208 20.8042 19.55 21 19 21H5ZM5 19H19V5H5V19ZM12 4.25C12.2167 4.25 12.3958 4.17917 12.5375 4.0375C12.6792 3.89583 12.75 3.71667 12.75 3.5C12.75 3.28333 12.6792 3.10417 12.5375 2.9625C12.3958 2.82083 12.2167 2.75 12 2.75C11.7833 2.75 11.6042 2.82083 11.4625 2.9625C11.3208 3.10417 11.25 3.28333 11.25 3.5C11.25 3.71667 11.3208 3.89583 11.4625 4.0375C11.6042 4.17917 11.7833 4.25 12 4.25Z" style="fill: var(--element-active-color)"/>
</svg>
