<svg width="24" height="24" viewBox="0 0 24 24" fill="none" xmlns="http://www.w3.org/2000/svg">
<path d="M11 7H13V11H17V13H13V17H11V13H7V11H11V7Z" style="fill: var(--element-active-color)"/>
<path fill-rule="evenodd" clip-rule="evenodd" d="M1.61214 10.516L10.516 1.61214C11.3322 0.795953 12.6678 0.795953 13.484 1.61214L22.3879 10.516C23.204 11.3322 23.204 12.6678 22.3879 13.484L13.484 22.3879C12.6678 23.204 11.3322 23.204 10.516 22.3879L1.61214 13.484C0.795953 12.6678 0.795953 11.3322 1.61214 10.516ZM12 3L3 12L12 21L21 12L12 3Z" style="fill: var(--element-active-color)"/>
</svg>
