<svg width="24" height="24" viewBox="0 0 24 24" fill="none" xmlns="http://www.w3.org/2000/svg">
<path fill-rule="evenodd" clip-rule="evenodd" d="M9 3H15L16.83 5H20C21.1 5 22 5.9 22 7V19C22 20.1 21.1 21 20 21H4C2.9 21 2 20.1 2 19V7C2 5.9 2.9 5 4 5H7.17L9 3ZM14.12 5L15.95 7H20V19H4V7H8.05L9.88 5H14.12Z" style="fill: var(--element-active-color)"/>
<path fill-rule="evenodd" clip-rule="evenodd" d="M7 13C7 10.24 9.24 8 12 8C14.76 8 17 10.24 17 13C17 15.76 14.76 18 12 18C9.24 18 7 15.76 7 13ZM15 13C15 11.35 13.65 10 12 10C10.35 10 9 11.35 9 13C9 14.65 10.35 16 12 16C13.65 16 15 14.65 15 13Z" style="fill: var(--element-active-color)"/>
</svg>
