<svg width="24" height="24" viewBox="0 0 24 24" fill="none" xmlns="http://www.w3.org/2000/svg">
<path fill-rule="evenodd" clip-rule="evenodd" d="M17.7191 11.6C17.7191 11.7904 17.7018 11.9696 17.6788 12.1488L18.8935 13.0728C19.0029 13.1568 19.0317 13.308 18.9626 13.4312L17.8112 15.3688C17.7421 15.492 17.5924 15.5424 17.46 15.492L16.0265 14.932C15.7271 15.1504 15.4047 15.3408 15.0536 15.4808L14.8348 16.9648C14.8175 17.0992 14.6966 17.2 14.5527 17.2H12.2499C12.1059 17.2 11.985 17.0992 11.9678 16.9648L11.749 15.4808C11.3978 15.3408 11.0754 15.156 10.776 14.932L9.34252 15.492C9.21586 15.5368 9.06042 15.492 8.99133 15.3688L7.83991 13.4312C7.77083 13.308 7.79962 13.1568 7.909 13.0728L9.12375 12.1488C9.10072 11.9696 9.08345 11.7848 9.08345 11.6C9.08345 11.4152 9.10072 11.2304 9.12375 11.0512L7.909 10.1272C7.79962 10.0432 7.76507 9.892 7.83991 9.7688L8.99133 7.8312C9.06042 7.708 9.2101 7.6576 9.34252 7.708L10.776 8.268C11.0754 8.0496 11.3978 7.8592 11.749 7.7192L11.9678 6.2352C11.985 6.1008 12.1059 6 12.2499 6H14.5527C14.6966 6 14.8175 6.1008 14.8348 6.2352L15.0536 7.7192C15.4047 7.8592 15.7271 8.044 16.0265 8.268L17.46 7.708C17.5867 7.6632 17.7421 7.708 17.8112 7.8312L18.9626 9.7688C19.0317 9.892 19.0029 10.0432 18.8935 10.1272L17.6788 11.0512C17.7018 11.2304 17.7191 11.4096 17.7191 11.6ZM11.3863 11.6C11.3863 12.6808 12.2901 13.56 13.4013 13.56C14.5124 13.56 15.4163 12.6808 15.4163 11.6C15.4163 10.5192 14.5124 9.64 13.4013 9.64C12.2901 9.64 11.3863 10.5192 11.3863 11.6Z" style="fill: var(--element-active-color)"/>
<path fill-rule="evenodd" clip-rule="evenodd" d="M9.37656 18.4C9.37656 18.5224 9.36546 18.6376 9.35065 18.7528L10.1316 19.3468C10.2019 19.4008 10.2204 19.498 10.176 19.5772L9.43578 20.8228C9.39136 20.902 9.29514 20.9344 9.21002 20.902L8.28847 20.542C8.09602 20.6824 7.88876 20.8048 7.663 20.8948L7.52236 21.8488C7.51126 21.9352 7.43354 22 7.34102 22H5.86062C5.76809 22 5.69037 21.9352 5.67927 21.8488L5.53863 20.8948C5.31287 20.8048 5.10562 20.686 4.91317 20.542L3.99162 20.902C3.9102 20.9308 3.81027 20.902 3.76586 20.8228L3.02566 19.5772C2.98125 19.498 2.99975 19.4008 3.07007 19.3468L3.85098 18.7528C3.83618 18.6376 3.82507 18.5188 3.82507 18.4C3.82507 18.2812 3.83618 18.1624 3.85098 18.0472L3.07007 17.4532C2.99975 17.3992 2.97755 17.302 3.02566 17.2228L3.76586 15.9772C3.81027 15.898 3.9065 15.8656 3.99162 15.898L4.91317 16.258C5.10562 16.1176 5.31287 15.9952 5.53863 15.9052L5.67927 14.9512C5.69037 14.8648 5.76809 14.8 5.86062 14.8H7.34102C7.43354 14.8 7.51126 14.8648 7.52236 14.9512L7.663 15.9052C7.88876 15.9952 8.09602 16.114 8.28847 16.258L9.21002 15.898C9.29144 15.8692 9.39136 15.898 9.43578 15.9772L10.176 17.2228C10.2204 17.302 10.2019 17.3992 10.1316 17.4532L9.35065 18.0472C9.36546 18.1624 9.37656 18.2776 9.37656 18.4ZM5.30547 18.4C5.30547 19.0948 5.88652 19.66 6.60081 19.66C7.31511 19.66 7.89616 19.0948 7.89616 18.4C7.89616 17.7052 7.31511 17.14 6.60081 17.14C5.88652 17.14 5.30547 17.7052 5.30547 18.4Z" style="fill: var(--element-active-color)"/>
<path d="M9.18657 5.19522C10.3575 4.43895 11.7526 4 13.2502 4C16.4834 4 19.2387 6.04581 20.2923 8.91354L22.1764 8.24067C20.8464 4.59938 17.3519 2 13.2502 2C11.2507 2 9.39543 2.61775 7.8649 3.6728L6 2L5.13507 7.39265L11 7L9.18657 5.19522Z" style="fill: var(--element-active-color)"/>
</svg>
