<svg width="24" height="24" viewBox="0 0 24 24" fill="none" xmlns="http://www.w3.org/2000/svg">
<path d="M11.6929 12.5122C11.6929 12.9136 11.5713 13.2549 11.3281 13.5361C11.085 13.8174 10.7437 14.0107 10.3042 14.1162V14.1426C10.8228 14.207 11.2153 14.3652 11.4819 14.6172C11.7485 14.8662 11.8818 15.2031 11.8818 15.6279C11.8818 16.2461 11.6577 16.728 11.2095 17.0737C10.7612 17.4165 10.1211 17.5879 9.28906 17.5879C8.5918 17.5879 7.97363 17.4722 7.43457 17.2407V16.085C7.68359 16.2109 7.95752 16.3135 8.25635 16.3926C8.55518 16.4717 8.85107 16.5112 9.14404 16.5112C9.59229 16.5112 9.92334 16.4351 10.1372 16.2827C10.3511 16.1304 10.458 15.8857 10.458 15.5488C10.458 15.2471 10.335 15.0332 10.0889 14.9072C9.84277 14.7812 9.4502 14.7183 8.91113 14.7183H8.42334V13.6768H8.91992C9.41797 13.6768 9.78125 13.6123 10.0098 13.4834C10.2412 13.3516 10.3569 13.1274 10.3569 12.811C10.3569 12.3247 10.0522 12.0815 9.44287 12.0815C9.23193 12.0815 9.0166 12.1167 8.79688 12.187C8.58008 12.2573 8.33838 12.3789 8.07178 12.5518L7.44336 11.6157C8.0293 11.1938 8.72803 10.9829 9.53955 10.9829C10.2046 10.9829 10.729 11.1177 11.1128 11.3872C11.4995 11.6567 11.6929 12.0317 11.6929 12.5122Z" style="fill: var(--element-active-color)"/>
<path d="M16.0762 17.5H14.7183V13.7822L14.7314 13.1714L14.7534 12.5034C14.5278 12.729 14.3711 12.877 14.2832 12.9473L13.5449 13.5405L12.8901 12.7231L14.96 11.0752H16.0762V17.5Z" style="fill: var(--element-active-color)"/>
<path d="M19 4C19.5304 4 20.0391 4.21071 20.4142 4.58579C20.7893 4.96086 21 5.46957 21 6V20C21 20.5304 20.7893 21.0391 20.4142 21.4142C20.0391 21.7893 19.5304 22 19 22H5C3.89 22 3 21.1 3 20V6C3 5.46957 3.21071 4.96086 3.58579 4.58579C3.96086 4.21071 4.46957 4 5 4H6V2H8V4H16V2H18V4H19ZM19 20V9H5V20H19Z" style="fill: var(--element-active-color)"/>
</svg>
