<svg width="24" height="24" viewBox="0 0 24 24" fill="none" xmlns="http://www.w3.org/2000/svg">
<path fill-rule="evenodd" clip-rule="evenodd" d="M22 12C22 17.5228 17.5228 22 12 22C6.47715 22 2 17.5228 2 12C2 6.47715 6.47715 2 12 2C17.5228 2 22 6.47715 22 12ZM19 12C19 15.866 15.866 19 12 19C8.13401 19 5 15.866 5 12C5 8.13401 8.13401 5 12 5C13.8728 5 15.5738 5.73546 16.83 6.93332L11.3822 11.2137C10.9479 11.5549 10.8725 12.1836 11.2137 12.6179C11.5549 13.0521 12.1836 13.1276 12.6179 12.7864L18.0666 8.50525C18.6603 9.53367 19 10.7272 19 12Z" style="fill: var(--element-active-color)"/>
</svg>
