<svg width="24" height="24" viewBox="0 0 24 24" fill="none" xmlns="http://www.w3.org/2000/svg">
<path fill-rule="evenodd" clip-rule="evenodd" d="M21.1024 4.18925L22 3.96783L21.5352 2L20.6376 2.22141L21.1024 4.18925ZM17.5119 5.0749L19.3072 4.63207L18.8424 2.66424L17.0471 3.10707L17.5119 5.0749ZM13.9215 5.96055L15.7167 5.51773L15.2519 3.54989L13.4567 3.99272L13.9215 5.96055ZM10.331 6.84621L12.1263 6.40338L11.6615 4.43555L9.86624 4.87837L10.331 6.84621ZM6.96165 11.5619L7.51879 9.66412L5.6214 9.08242L5.06426 10.9803L6.96165 11.5619ZM5.84738 15.3576L6.40452 13.4598L4.50712 12.8781L3.94998 14.7759L5.84738 15.3576ZM4.7331 19.1533L5.29024 17.2554L3.39285 16.6737L2.83571 18.5716L4.7331 19.1533ZM3.89739 22L4.17596 21.0511L2.27857 20.4694L2 21.4183L3.89739 22ZM9.42851 6.55479C9.42851 7.6728 8.54162 8.57914 7.44758 8.57914C6.35353 8.57914 5.46664 7.6728 5.46664 6.55479C5.46664 5.43677 6.35353 4.53044 7.44758 4.53044C8.54162 4.53044 9.42851 5.43677 9.42851 6.55479ZM21 9.72222H18.5L17.7857 9H14.2143L13.5 9.72222H11V11.1667H21V9.72222ZM11.7143 20.5556C11.7143 21.35 12.3571 22 13.1429 22H18.8571C19.6429 22 20.2857 21.35 20.2857 20.5556V11.8889H11.7143V20.5556ZM16 15.9487L14.4848 14.4167L13.4746 15.438L14.9899 16.9701L13.4746 18.5022L14.4848 19.5236L16 17.9915L17.5152 19.5235L18.5254 18.5022L17.0102 16.9701L18.5254 15.438L17.5153 14.4167L16 15.9487Z" style="fill: var(--element-active-color)"/>
</svg>
