<svg width="24" height="24" viewBox="0 0 24 24" fill="none" xmlns="http://www.w3.org/2000/svg">
<mask id="path-1-outside-1_21336_266087" maskUnits="userSpaceOnUse" x="4" y="1" width="16" height="19" style="fill: var(--automation-device-tertiary-color)">
<rect style="fill: var(--automation-device-primary-color)" x="4" y="1" width="16" height="19"/>
<path fill-rule="evenodd" clip-rule="evenodd" d="M7.83333 2C8.10948 2 8.33333 2.22398 8.33333 2.50012V5.68088L9.67027 5.20243C10.3979 4.94204 11.1816 4.8 12 4.8C15.8543 4.8 19 7.96703 19 11.9C19 15.833 15.8543 19 12 19C8.14568 19 5 15.833 5 11.9V2.5C5 2.22386 5.22386 2 5.5 2H7.83333ZM15 10C15 9.72386 14.7761 9.5 14.5 9.5L9.5 9.5C9.22386 9.5 9 9.72386 9 10C9 10.2761 9.22386 10.5 9.5 10.5H14.5C14.7761 10.5 15 10.2761 15 10ZM15 12C15 11.7239 14.7761 11.5 14.5 11.5H9.5C9.22386 11.5 9 11.7239 9 12C9 12.2761 9.22386 12.5 9.5 12.5H14.5C14.7761 12.5 15 12.2761 15 12ZM14.5 13.5C14.7761 13.5 15 13.7239 15 14C15 14.2761 14.7761 14.5 14.5 14.5H9.5C9.22386 14.5 9 14.2761 9 14C9 13.7239 9.22386 13.5 9.5 13.5H14.5Z"/>
</mask>
<path fill-rule="evenodd" clip-rule="evenodd" d="M7.83333 2C8.10948 2 8.33333 2.22398 8.33333 2.50012V5.68088L9.67027 5.20243C10.3979 4.94204 11.1816 4.8 12 4.8C15.8543 4.8 19 7.96703 19 11.9C19 15.833 15.8543 19 12 19C8.14568 19 5 15.833 5 11.9V2.5C5 2.22386 5.22386 2 5.5 2H7.83333ZM15 10C15 9.72386 14.7761 9.5 14.5 9.5L9.5 9.5C9.22386 9.5 9 9.72386 9 10C9 10.2761 9.22386 10.5 9.5 10.5H14.5C14.7761 10.5 15 10.2761 15 10ZM15 12C15 11.7239 14.7761 11.5 14.5 11.5H9.5C9.22386 11.5 9 11.7239 9 12C9 12.2761 9.22386 12.5 9.5 12.5H14.5C14.7761 12.5 15 12.2761 15 12ZM14.5 13.5C14.7761 13.5 15 13.7239 15 14C15 14.2761 14.7761 14.5 14.5 14.5H9.5C9.22386 14.5 9 14.2761 9 14C9 13.7239 9.22386 13.5 9.5 13.5H14.5Z" style="fill: var(--automation-device-primary-inverted-color)"/>
<path d="M8.33333 5.68088H7.33333V7.10085L8.67028 6.62241L8.33333 5.68088ZM9.67027 5.20243L9.33333 4.26091L9.33333 4.26091L9.67027 5.20243ZM14.5 9.5V10.5V9.5ZM9.5 9.5V8.5V9.5ZM9 12L10 12V12H9ZM9.33333 2.50012C9.33333 1.67202 8.66209 1 7.83333 1V3C7.55687 3 7.33333 2.77594 7.33333 2.50012H9.33333ZM9.33333 5.68088V2.50012H7.33333V5.68088H9.33333ZM9.33333 4.26091L7.99639 4.73935L8.67028 6.62241L10.0072 6.14396L9.33333 4.26091ZM12 3.8C11.065 3.8 10.1674 3.96242 9.33333 4.26091L10.0072 6.14396C10.6284 5.92167 11.2981 5.8 12 5.8V3.8ZM20 11.9C20 7.42599 16.4178 3.8 12 3.8V5.8C15.2909 5.8 18 8.50807 18 11.9H20ZM12 20C16.4178 20 20 16.374 20 11.9H18C18 15.2919 15.2909 18 12 18V20ZM4 11.9C4 16.374 7.58222 20 12 20V18C8.70914 18 6 15.2919 6 11.9H4ZM4 2.5V11.9H6V2.5H4ZM5.5 1C4.67157 1 4 1.67157 4 2.5H6C6 2.77614 5.77614 3 5.5 3V1ZM7.83333 1H5.5V3H7.83333V1ZM14.5 10.5C14.2239 10.5 14 10.2761 14 10H16C16 9.17157 15.3284 8.5 14.5 8.5V10.5ZM9.5 10.5L14.5 10.5V8.5L9.5 8.5V10.5ZM10 10C10 10.2761 9.77614 10.5 9.5 10.5V8.5C8.67157 8.5 8 9.17157 8 10H10ZM9.5 9.5C9.77614 9.5 10 9.72386 10 10H8C8 10.8284 8.67157 11.5 9.5 11.5V9.5ZM14.5 9.5H9.5V11.5H14.5V9.5ZM14 10C14 9.72386 14.2239 9.5 14.5 9.5V11.5C15.3284 11.5 16 10.8284 16 10H14ZM14.5 12.5C14.2239 12.5 14 12.2761 14 12H16C16 11.1716 15.3284 10.5 14.5 10.5V12.5ZM9.5 12.5H14.5V10.5H9.5V12.5ZM10 12C10 12.2761 9.77614 12.5 9.5 12.5V10.5C8.67157 10.5 8 11.1716 8 12H10ZM9.5 11.5C9.77614 11.5 10 11.7239 10 12L8 12C8 12.8284 8.67157 13.5 9.5 13.5V11.5ZM14.5 11.5H9.5V13.5H14.5V11.5ZM14 12C14 11.7239 14.2239 11.5 14.5 11.5V13.5C15.3284 13.5 16 12.8284 16 12H14ZM16 14C16 13.1716 15.3284 12.5 14.5 12.5V14.5C14.2239 14.5 14 14.2761 14 14H16ZM14.5 15.5C15.3284 15.5 16 14.8284 16 14H14C14 13.7239 14.2239 13.5 14.5 13.5V15.5ZM9.5 15.5H14.5V13.5H9.5V15.5ZM8 14C8 14.8284 8.67157 15.5 9.5 15.5V13.5C9.77614 13.5 10 13.7239 10 14H8ZM9.5 12.5C8.67157 12.5 8 13.1716 8 14H10C10 14.2761 9.77614 14.5 9.5 14.5V12.5ZM14.5 12.5H9.5V14.5H14.5V12.5Z" style="fill: var(--automation-device-tertiary-inverted-color)" mask="url(#path-1-outside-1_21336_266087)"/>
</svg>
