<svg width="24" height="24" viewBox="0 0 24 24" fill="none" xmlns="http://www.w3.org/2000/svg">
<path fill-rule="evenodd" clip-rule="evenodd" d="M6.13188 5.97665L17.3366 8.4437L5.65468 10.0662C3.37065 10.3834 3.34816 13.676 5.62776 14.0242L17.2442 15.799L6.15064 18.0195L6.54318 19.9806L17.6368 17.7601C19.8307 17.3209 19.7581 14.1598 17.5463 13.8219L5.92982 12.0472L17.6117 10.4247C19.8217 10.1177 19.9456 6.97025 17.7666 6.49048L6.56194 4.02344L6.13188 5.97665ZM5.91855 12.0504L5.91729 12.0493C5.91203 12.0504 5.90874 12.0514 5.90716 12.052C5.9046 12.0528 5.90527 12.0528 5.90813 12.0512C5.90995 12.0502 5.91212 12.0488 5.91447 12.0471C5.91214 12.0453 5.90999 12.0439 5.90818 12.0428L5.90563 12.0415L5.90721 12.0421C5.90879 12.0426 5.91207 12.0437 5.91732 12.0448L5.9186 12.0438C5.92238 12.0406 5.92554 12.0372 5.92801 12.0342C5.93301 12.0279 5.93362 12.0248 5.93259 12.0279C5.93145 12.0312 5.92989 12.0381 5.92982 12.0472C5.92976 12.0563 5.93124 12.0631 5.93233 12.0665C5.93268 12.0676 5.93286 12.0679 5.93271 12.0676C5.93245 12.067 5.93117 12.0644 5.92801 12.0604C5.92559 12.0573 5.92228 12.0537 5.91855 12.0504Z" style="fill: var(--element-active-color)"/>
<path fill-rule="evenodd" clip-rule="evenodd" d="M2 4C2 2.89543 2.89543 2 4 2H20C21.1046 2 22 2.89543 22 4V20C22 21.1046 21.1046 22 20 22H4C2.89543 22 2 21.1046 2 20V4ZM4 3H20C20.5523 3 21 3.44772 21 4V20C21 20.5523 20.5523 21 20 21H4C3.44772 21 3 20.5523 3 20V4C3 3.44772 3.44772 3 4 3Z" style="fill: var(--element-active-color)"/>
</svg>
