<svg width="24" height="24" viewBox="0 0 24 24" fill="none" xmlns="http://www.w3.org/2000/svg">
<path d="M6 13C6 13.8667 6.175 14.6875 6.525 15.4625C6.875 16.2375 7.375 16.9167 8.025 17.5C8.00833 17.4167 8 17.3417 8 17.275V17.05C8 16.5167 8.1 16.0167 8.3 15.55C8.5 15.0833 8.79167 14.6583 9.175 14.275L12 11.5L14.825 14.275C15.2083 14.6583 15.5 15.0833 15.7 15.55C15.9 16.0167 16 16.5167 16 17.05V17.275C16 17.3417 15.9917 17.4167 15.975 17.5C16.625 16.9167 17.125 16.2375 17.475 15.4625C17.825 14.6875 18 13.8667 18 13C18 12.1667 17.8458 11.3792 17.5375 10.6375C17.2292 9.89583 16.7833 9.23333 16.2 8.65C15.8667 8.86667 15.5167 9.02917 15.15 9.1375C14.7833 9.24583 14.4083 9.3 14.025 9.3C12.9917 9.3 12.0958 8.95833 11.3375 8.275C10.5792 7.59167 10.1417 6.75 10.025 5.75C9.375 6.3 8.8 6.87083 8.3 7.4625C7.8 8.05417 7.37917 8.65417 7.0375 9.2625C6.69583 9.87083 6.4375 10.4917 6.2625 11.125C6.0875 11.7583 6 12.3833 6 13ZM12 14.3L10.575 15.7C10.3917 15.8833 10.25 16.0917 10.15 16.325C10.05 16.5583 10 16.8 10 17.05C10 17.5833 10.1958 18.0417 10.5875 18.425C10.9792 18.8083 11.45 19 12 19C12.55 19 13.0208 18.8083 13.4125 18.425C13.8042 18.0417 14 17.5833 14 17.05C14 16.7833 13.95 16.5375 13.85 16.3125C13.75 16.0875 13.6083 15.8833 13.425 15.7L12 14.3ZM12 2V5.3C12 5.86667 12.1958 6.34167 12.5875 6.725C12.9792 7.10833 13.4583 7.3 14.025 7.3C14.325 7.3 14.6042 7.2375 14.8625 7.1125C15.1208 6.9875 15.35 6.8 15.55 6.55L16 6C17.2333 6.7 18.2083 7.675 18.925 8.925C19.6417 10.175 20 11.5333 20 13C20 15.2333 19.225 17.125 17.675 18.675C16.125 20.225 14.2333 21 12 21C9.76667 21 7.875 20.225 6.325 18.675C4.775 17.125 4 15.2333 4 13C4 10.85 4.72083 8.80833 6.1625 6.875C7.60417 4.94167 9.55 3.31667 12 2Z" fill="currentColor"/>
</svg>
