<svg width="24" height="24" viewBox="0 0 24 24" fill="none" xmlns="http://www.w3.org/2000/svg">
<path fill-rule="evenodd" clip-rule="evenodd" d="M15.6968 2.737C16.9054 3.229 17.9848 3.94167 18.9348 4.875L18.9602 4.9004L20.4587 4.03522L19.4234 7.89893L15.5597 6.86365L17.147 5.94727C16.6154 5.48566 16.028 5.09891 15.3848 4.787C14.3014 4.26233 13.1514 4 11.9348 4C11.0181 4 10.1514 4.14167 9.33477 4.425C8.5181 4.70833 7.76811 5.10833 7.08477 5.625L6.08477 3.875C6.91811 3.29167 7.82244 2.83333 8.79777 2.5C9.77244 2.16667 10.8098 2 11.9098 2C13.2264 2 14.4888 2.24567 15.6968 2.737ZM7.78477 21.125C6.05144 20.325 4.63877 19.1167 3.54677 17.5C2.45544 15.8833 1.90977 14.0583 1.90977 12.025C1.90977 11.5917 1.93477 11.1667 1.98477 10.75C2.03477 10.3333 2.10977 9.925 2.20977 9.525L2.25615 9.38933L0.5 8.89418L3.98985 6.93945L5.94457 10.4293L4.20809 9.93969C4.15527 10.132 4.11017 10.3271 4.07277 10.525C3.98077 11.0083 3.93477 11.5083 3.93477 12.025C3.93477 13.6417 4.37644 15.1127 5.25977 16.438C6.1431 17.7627 7.31811 18.7417 8.78477 19.375L7.78477 21.125ZM15.054 21.5121L15.2801 23.1301L12.0875 20.7202L14.4973 17.5276L14.7756 19.5191C15.9995 19.0657 17.0653 18.3216 17.9728 17.287C19.2808 15.7957 19.9348 14.0417 19.9348 12.025C19.9348 11.8417 19.9308 11.6667 19.9228 11.5C19.9141 11.3333 19.8931 11.1667 19.8598 11H21.8848C21.9014 11.1667 21.9141 11.3293 21.9228 11.488C21.9308 11.646 21.9348 11.8167 21.9348 12C21.9348 14.25 21.2641 16.2627 19.9228 18.038C18.6584 19.7099 17.0355 20.868 15.054 21.5121ZM12.0605 7C13.6964 7 15.1487 7.78555 16.0609 9H8.06018C8.97239 7.78555 10.4247 7 12.0605 7ZM16.9605 13C17.0261 12.6769 17.0605 12.3425 17.0605 12C17.0605 11.6575 17.0261 11.3231 16.9605 11H7.16056C7.09498 11.3231 7.06055 11.6575 7.06055 12C7.06055 12.3425 7.09498 12.6769 7.16056 13H16.9605ZM8.06018 15C8.97239 16.2144 10.4247 17 12.0605 17C13.6964 17 15.1487 16.2144 16.0609 15H8.06018Z" style="fill: var(--element-active-color)"/>
</svg>
