<svg width="24" height="24" viewBox="0 0 24 24" fill="none" xmlns="http://www.w3.org/2000/svg">
<path d="M19.9222 22.5C21.18 22.5 21.8792 21.0451 21.0935 20.063L18.6885 17.0568C17.2357 18.5641 15.2071 19.5 12.9626 19.5C10.718 19.5 8.6894 18.5641 7.23656 17.0567L4.83151 20.063C4.0458 21.0451 4.74506 22.5 6.00282 22.5H19.9222Z" style="fill: var(--automation-device-secondary-color)"/>
<path d="M21.9626 8.83333C22.5149 8.83333 22.9626 8.38562 22.9626 7.83333V4.5C22.9626 3.94772 22.5149 3.5 21.9626 3.5L13.0626 3.5C10.8617 3.5 8.86576 4.36697 7.40589 5.77399C5.89848 7.22683 4.96257 9.25547 4.96257 11.5C4.96257 13.7445 5.89845 15.7731 7.40582 17.2259C8.86569 18.633 10.8616 19.5 13.0626 19.5C17.5361 19.5 21.1626 15.9183 21.1626 11.5C21.1626 10.565 21.0002 9.66741 20.7017 8.83333H21.9626Z" style="fill: var(--automation-device-secondary-color)"/>
<path d="M7.97532 17.7339C9.34295 18.8393 11.0765 19.5 12.9626 19.5C14.8484 19.5 16.5819 18.8394 17.9494 17.7342L20.3124 20.6879C20.5743 21.0152 20.3412 21.5002 19.9219 21.5002H6.00257C5.58332 21.5002 5.35023 21.0152 5.61214 20.6879L7.97532 17.7339Z" style="fill: var(--automation-device-primary-color)"/>
<path fill-rule="evenodd" clip-rule="evenodd" d="M21.9626 7.83333H19.2817L19.7601 9.17028C20.0205 9.89789 20.1626 10.6816 20.1626 11.5C20.1626 15.3543 16.9955 18.5 13.0626 18.5C9.1296 18.5 5.96257 15.3543 5.96257 11.5C5.96257 7.64568 9.1296 4.5 13.0626 4.5L21.9626 4.5V7.83333ZM10.9626 11.5C10.9626 12.6046 11.858 13.5 12.9626 13.5C14.0671 13.5 14.9626 12.6046 14.9626 11.5C14.9626 10.3954 14.0671 9.5 12.9626 9.5C11.858 9.5 10.9626 10.3954 10.9626 11.5Z" style="fill: var(--automation-device-primary-color)"/>
</svg>
