<svg width="24" height="24" viewBox="0 0 24 24" fill="none" xmlns="http://www.w3.org/2000/svg">
<path d="M12.5 9H14.5V8H12.5V6H11.5V8H9.50005L9.5 9H11.5L11.5 11H12.5V9Z" style="fill: var(--element-active-color)"/>
<path d="M9.5 17H14.5V16H9.5V17Z" style="fill: var(--element-active-color)"/>
<path fill-rule="evenodd" clip-rule="evenodd" d="M3 2C2.44772 2 2 2.44772 2 3V21C2 21.5523 2.44772 22 3 22H21C21.5523 22 22 21.5523 22 21V3C22 2.44772 21.5523 2 21 2H3ZM21 3H3V21H21V3Z" style="fill: var(--element-active-color)"/>
</svg>
