<svg width="24" height="24" viewBox="0 0 24 24" fill="none" xmlns="http://www.w3.org/2000/svg">
<path d="M6.80902 2H17.191C17.5627 2 17.8044 2.39116 17.6382 2.72361L14 10L21.2764 6.3618C21.6088 6.19558 22 6.43733 22 6.80902V17.191C22 17.5627 21.6088 17.8044 21.2764 17.6382L14 14H10L2.72361 17.6382C2.39116 17.8044 2 17.5627 2 17.191V6.80902C2 6.43733 2.39116 6.19558 2.72361 6.3618L10 10L6.3618 2.72361C6.19558 2.39116 6.43733 2 6.80902 2Z" style="fill: var(--automation-device-tertiary-color)"/>
<path d="M18.9995 15.3816L21 16.3819V7.61794L18.9995 8.61818V15.3816Z" style="fill: var(--automation-device-secondary-color)"/>
<path d="M5 8.61792L3 7.61792L3 16.3819L5 15.3819L5 8.61792Z" style="fill: var(--automation-device-secondary-color)"/>
<path d="M13 9.76224L16.3811 3H7.61719L11 9.76562V11H9.76416L6 9.11792L6 14.8819L9.76371 13H14.2363L18 14.8819V9.11792L14.2358 11H13V9.76224Z" style="fill: var(--automation-device-primary-color)"/>
<path d="M10.5861 16.8787C10.3908 16.6835 10.0742 16.6835 9.87894 16.8787C9.68368 17.074 9.68368 17.3906 9.87894 17.5858L13.4145 21.1214C13.6097 21.3166 13.9263 21.3166 14.1216 21.1214C14.3168 20.9261 14.3168 20.6095 14.1216 20.4143L10.5861 16.8787Z" style="fill: var(--automation-device-primary-color)"/>
<path fill-rule="evenodd" clip-rule="evenodd" d="M9.17184 18.2929L12.7074 21.8285C13.2932 22.4143 14.2429 22.4143 14.8287 21.8285C15.4145 21.2427 15.4145 20.2929 14.8287 19.7072L11.2932 16.1716C10.7074 15.5858 9.75762 15.5858 9.17184 16.1716C8.58605 16.7574 8.58605 17.7072 9.17184 18.2929ZM9.87894 17.5858L13.4145 21.1214C13.6097 21.3166 13.9263 21.3166 14.1216 21.1214C14.3168 20.9261 14.3168 20.6095 14.1216 20.4143L10.5861 16.8787C10.3908 16.6835 10.0742 16.6835 9.87894 16.8787C9.68368 17.074 9.68368 17.3906 9.87894 17.5858Z" style="fill: var(--automation-device-tertiary-color)"/>
</svg>
