<svg width="24" height="24" viewBox="0 0 24 24" fill="none" xmlns="http://www.w3.org/2000/svg">
<path fill-rule="evenodd" clip-rule="evenodd" d="M2 5.87038V18.1293C2 18.5152 2.41861 18.7557 2.75194 18.5612L10.5714 13.9999H13.4286L21.2481 18.5612C21.5814 18.7557 22 18.5152 22 18.1293V5.87038C22 5.48449 21.5814 5.24405 21.2481 5.43849L13.4286 9.99986H10.5714L2.75193 5.43849C2.41861 5.24405 2 5.48449 2 5.87038ZM15 10.2407V13.7587L13.6989 12.9997H10.3011L9 13.7587V10.2407L10.3011 10.9997H13.6989L15 10.2407ZM3 6.74121L8 9.65788V14.3425L3 17.2591V6.74121ZM21 17.2591L16 14.3425V9.65788L21 6.74121V17.2591Z" style="fill: var(--automation-device-tertiary-color)"/>
<path fill-rule="evenodd" clip-rule="evenodd" d="M14.0954 16.9733L12.8013 21.803C12.5868 22.6032 11.7643 23.0781 10.9641 22.8636C10.1639 22.6492 9.68907 21.8267 9.90348 21.0265L11.1976 16.1969C11.412 15.3967 12.2345 14.9218 13.0347 15.1362C13.8349 15.3506 14.3098 16.1731 14.0954 16.9733ZM13.1294 16.7145L12.4824 19.1293L11.8353 21.5442C11.7639 21.8109 11.4897 21.9692 11.223 21.8977C10.9562 21.8262 10.7979 21.5521 10.8694 21.2853L12.1635 16.4557C12.235 16.189 12.5091 16.0307 12.7759 16.1022C13.0426 16.1736 13.2009 16.4478 13.1294 16.7145Z" style="fill: var(--automation-device-tertiary-color)"/>
<path d="M8 9.65788L3 6.74121V17.2591L8 14.3425V9.65788Z" style="fill: var(--automation-device-secondary-color)"/>
<path d="M15 13.7587V10.2407L13.6989 10.9997H10.3011L9 10.2407V13.7587L10.3011 12.9997H13.6989L15 13.7587Z" style="fill: var(--automation-device-primary-color)"/>
<path d="M16 14.3425L21 17.2591V6.74121L16 9.65788V14.3425Z" style="fill: var(--automation-device-secondary-color)"/>
<path d="M11.8353 21.5442L12.4824 19.1293L13.1294 16.7145C13.2009 16.4478 13.0426 16.1736 12.7759 16.1022C12.5091 16.0307 12.235 16.189 12.1635 16.4557L10.8694 21.2853C10.7979 21.5521 10.9562 21.8262 11.223 21.8977C11.4897 21.9692 11.7639 21.8109 11.8353 21.5442Z" style="fill: var(--automation-device-primary-color)"/>
</svg>
