<svg width="24" height="24" viewBox="0 0 24 24" fill="none" xmlns="http://www.w3.org/2000/svg">
<path d="M6.80902 2H17.191C17.5627 2 17.8044 2.39116 17.6382 2.72361L14 10L21.2764 6.3618C21.6088 6.19558 22 6.43733 22 6.80902V17.191C22 17.5627 21.6088 17.8044 21.2764 17.6382L14 14H10L2.72361 17.6382C2.39116 17.8044 2 17.5627 2 17.191V6.80902C2 6.43733 2.39116 6.19558 2.72361 6.3618L10 10L6.3618 2.72361C6.19558 2.39116 6.43733 2 6.80902 2Z" style="fill: var(--automation-device-tertiary-color)"/>
<path d="M12.8811 10L16.3811 3H7.61719L11.1172 10H12.8811Z" style="fill: var(--automation-device-secondary-color)"/>
<path d="M3 16.3819L9.7637 13H14.2363L21 16.3819V7.61792L14.2358 11H9.76416L3 7.61792V16.3819Z" style="fill: var(--automation-device-primary-color)"/>
<path d="M9.5 18.5C9.22386 18.5 9 18.7239 9 19C9 19.2761 9.22386 19.5 9.5 19.5H14.5C14.7761 19.5 15 19.2761 15 19C15 18.7239 14.7761 18.5 14.5 18.5H9.5Z" style="fill: var(--automation-device-primary-color)"/>
<path fill-rule="evenodd" clip-rule="evenodd" d="M9.5 20.5H14.5C15.3284 20.5 16 19.8284 16 19C16 18.1716 15.3284 17.5 14.5 17.5H9.5C8.67157 17.5 8 18.1716 8 19C8 19.8284 8.67157 20.5 9.5 20.5ZM9.5 19.5H14.5C14.7761 19.5 15 19.2761 15 19C15 18.7239 14.7761 18.5 14.5 18.5H9.5C9.22386 18.5 9 18.7239 9 19C9 19.2761 9.22386 19.5 9.5 19.5Z" style="fill: var(--automation-device-tertiary-color)"/>
</svg>
