<svg width="24" height="24" viewBox="0 0 24 24" fill="none" xmlns="http://www.w3.org/2000/svg">
<path d="M6.80902 2H17.191C17.5627 2 17.8044 2.39116 17.6382 2.72361L14 10L21.2764 6.3618C21.6088 6.19558 22 6.43733 22 6.80902V17.191C22 17.5627 21.6088 17.8044 21.2764 17.6382L14 14H10L2.72361 17.6382C2.39116 17.8044 2 17.5627 2 17.191V6.80902C2 6.43733 2.39116 6.19558 2.72361 6.3618L10 10L6.3618 2.72361C6.19558 2.39116 6.43733 2 6.80902 2Z" style="fill: var(--automation-device-tertiary-color)"/>
<path d="M14 12.8819L21 16.3819V7.61792L14 11.1179V12.8819Z" style="fill: var(--automation-device-secondary-color)"/>
<path d="M16.3811 3L13 9.76224V13H9.7637L3 16.3819V7.61792L9.76416 11H11V9.76562L7.61719 3H16.3811Z" style="fill: var(--automation-device-primary-color)"/>
<path d="M14.5 19.5002C14.7761 19.5002 15 19.2764 15 19.0002C15 18.7241 14.7761 18.5002 14.5 18.5002H9.5C9.22386 18.5002 9 18.7241 9 19.0002C9 19.2764 9.22386 19.5002 9.5 19.5002H14.5Z" style="fill: var(--automation-device-primary-color)"/>
<path fill-rule="evenodd" clip-rule="evenodd" d="M14.5 17.5002H9.5C8.67157 17.5002 8 18.1718 8 19.0002C8 19.8287 8.67157 20.5002 9.5 20.5002H14.5C15.3284 20.5002 16 19.8287 16 19.0002C16 18.1718 15.3284 17.5002 14.5 17.5002ZM14.5 18.5002H9.5C9.22386 18.5002 9 18.7241 9 19.0002C9 19.2764 9.22386 19.5002 9.5 19.5002H14.5C14.7761 19.5002 15 19.2764 15 19.0002C15 18.7241 14.7761 18.5002 14.5 18.5002Z" style="fill: var(--automation-device-tertiary-color)"/>
</svg>
