<svg width="24" height="24" viewBox="0 0 24 24" fill="none" xmlns="http://www.w3.org/2000/svg">
<path fill-rule="evenodd" clip-rule="evenodd" d="M12.5 3.5C11.1792 3.5 9.8953 3.93582 8.84743 4.73988C7.79957 5.54394 7.0463 6.67129 6.70445 7.94709L5.25556 7.55886C5.68287 5.96411 6.62446 4.55492 7.93429 3.54985C9.24412 2.54478 10.849 2 12.5 2C14.151 2 15.7559 2.54478 17.0657 3.54985C18.3755 4.55492 19.3171 5.96411 19.7444 7.55886L18.2956 7.94709C17.9537 6.67129 17.2004 5.54394 16.1526 4.73988C15.1047 3.93582 13.8208 3.5 12.5 3.5Z" style="fill: var(--element-active-color)"/>
<path fill-rule="evenodd" clip-rule="evenodd" d="M12.5 6.5C11.8396 6.5 11.1976 6.71791 10.6737 7.11994C10.1498 7.52197 9.77315 8.08564 9.60222 8.72354L8.15333 8.33531C8.40972 7.37846 8.97467 6.53295 9.76057 5.92991C10.5465 5.32687 11.5094 5 12.5 5C13.4906 5 14.4535 5.32687 15.2394 5.92991C16.0253 6.53295 16.5903 7.37847 16.8467 8.33532L15.3978 8.72354C15.2269 8.08564 14.8502 7.52197 14.3263 7.11994C13.8024 6.71791 13.1604 6.5 12.5 6.5Z" style="fill: var(--element-active-color)"/>
<path fill-rule="evenodd" clip-rule="evenodd" d="M13 10.8662V14L21 14C21.5523 14 22 14.4477 22 15V21C22 21.5523 21.5523 22 21 22H9C5.13401 22 2 18.866 2 15C2 14.4477 2.44772 14 3 14L12 14V10.8662C11.7011 10.6933 11.5 10.3701 11.5 10C11.5 9.44772 11.9477 9 12.5 9C13.0523 9 13.5 9.44772 13.5 10C13.5 10.3701 13.2989 10.6933 13 10.8662ZM9 20C6.58104 20 4.56329 18.2823 4.10002 16H20V20H9Z" style="fill: var(--element-active-color)"/>
<path fill-rule="evenodd" clip-rule="evenodd" d="M12.5 3.5C11.1792 3.5 9.8953 3.93582 8.84743 4.73988C7.79957 5.54394 7.0463 6.67129 6.70445 7.94709L5.25556 7.55886C5.68287 5.96411 6.62446 4.55492 7.93429 3.54985C9.24412 2.54478 10.849 2 12.5 2C14.151 2 15.7559 2.54478 17.0657 3.54985C18.3755 4.55492 19.3171 5.96411 19.7444 7.55886L18.2956 7.94709C17.9537 6.67129 17.2004 5.54394 16.1526 4.73988C15.1047 3.93582 13.8208 3.5 12.5 3.5Z" stroke="#1A1A1A"/>
<path fill-rule="evenodd" clip-rule="evenodd" d="M12.5 6.5C11.8396 6.5 11.1976 6.71791 10.6737 7.11994C10.1498 7.52197 9.77315 8.08564 9.60222 8.72354L8.15333 8.33531C8.40972 7.37846 8.97467 6.53295 9.76057 5.92991C10.5465 5.32687 11.5094 5 12.5 5C13.4906 5 14.4535 5.32687 15.2394 5.92991C16.0253 6.53295 16.5903 7.37847 16.8467 8.33532L15.3978 8.72354C15.2269 8.08564 14.8502 7.52197 14.3263 7.11994C13.8024 6.71791 13.1604 6.5 12.5 6.5Z" stroke="#1A1A1A"/>
<path fill-rule="evenodd" clip-rule="evenodd" d="M13 10.8662V14L21 14C21.5523 14 22 14.4477 22 15V21C22 21.5523 21.5523 22 21 22H9C5.13401 22 2 18.866 2 15C2 14.4477 2.44772 14 3 14L12 14V10.8662C11.7011 10.6933 11.5 10.3701 11.5 10C11.5 9.44772 11.9477 9 12.5 9C13.0523 9 13.5 9.44772 13.5 10C13.5 10.3701 13.2989 10.6933 13 10.8662ZM9 20C6.58104 20 4.56329 18.2823 4.10002 16H20V20H9Z" stroke="#1A1A1A"/>
</svg>
