<svg width="24" height="24" viewBox="0 0 24 24" fill="none" xmlns="http://www.w3.org/2000/svg">
<path fill-rule="evenodd" clip-rule="evenodd" d="M12 2C8.68286 2 6 4.50399 6 7.60001C6 11.8 12 18 12 18C12 18 18 11.8 18 7.60001C18 4.50399 15.3171 2 12 2ZM12 9.60001C10.8171 9.60001 9.85712 8.70399 9.85712 7.60001C9.85712 6.49601 10.8171 5.60001 12 5.60001C13.1829 5.60001 14.1429 6.49601 14.1429 7.60001C14.1429 8.70399 13.1829 9.60001 12 9.60001Z" style="fill: var(--element-active-color)"/>
<path d="M18.7633 18.3165L21.6616 18.6651C21.8823 18.2935 22 17.9029 22 17.5C22 17.0971 21.8823 16.7065 21.6616 16.3349L18.7633 16.6835C18.9171 16.9424 19 17.2158 19 17.5C19 17.7842 18.9171 18.0576 18.7633 18.3165Z" style="fill: var(--element-active-color)"/>
<path d="M18.065 15.9257L20.6617 15.2496C19.7837 14.5668 18.5183 13.9973 17.0008 13.6022L15.4984 14.7707C16.5617 15.0476 17.4498 15.4472 18.065 15.9257Z" style="fill: var(--element-active-color)"/>
<path d="M8.50162 14.7707L6.9992 13.6022C5.48168 13.9973 4.21631 14.5668 3.33828 15.2496L5.93496 15.9257C6.55021 15.4472 7.43827 15.0476 8.50162 14.7707Z" style="fill: var(--element-active-color)"/>
<path d="M2 17.5C2 17.0971 2.11768 16.7065 2.33843 16.3349L5.23667 16.6835C5.08287 16.9424 5 17.2158 5 17.5C5 17.7842 5.08287 18.0576 5.23667 18.3165L2.33843 18.6651C2.11768 18.2935 2 17.9029 2 17.5Z" style="fill: var(--element-active-color)"/>
<path d="M5.93496 19.0743L3.33828 19.7504C4.21631 20.4332 5.48168 21.0027 6.9992 21.3978L8.50162 20.2293C7.43827 19.9524 6.55021 19.5528 5.93496 19.0743Z" style="fill: var(--element-active-color)"/>
<path d="M10.1856 20.5435L9.41087 21.8477C10.2367 21.947 11.1046 22 12 22C12.8954 22 13.7633 21.947 14.5891 21.8477L13.8144 20.5435C13.239 20.6127 12.6315 20.65 12 20.65C11.3685 20.65 10.761 20.6127 10.1856 20.5435Z" style="fill: var(--element-active-color)"/>
<path d="M15.4984 20.2293L17.0008 21.3978C18.5183 21.0027 19.7837 20.4332 20.6617 19.7504L18.065 19.0743C17.4498 19.5528 16.5617 19.9524 15.4984 20.2293Z" style="fill: var(--element-active-color)"/>
</svg>
