<svg width="24" height="24" viewBox="0 0 24 24" fill="none" xmlns="http://www.w3.org/2000/svg">
<path d="M12 2C6.47715 2 2 6.47715 2 12H3.90476C3.90476 7.52912 7.52912 3.90476 12 3.90476V2Z" style="fill: var(--element-active-color)"/>
<path d="M22 12C22 6.47715 17.5228 2 12 2V3.90476C16.4709 3.90476 20.0952 7.52912 20.0952 12H22Z" style="fill: var(--element-active-color)"/>
<path d="M12 22C17.5228 22 22 17.5228 22 12H20.0952C20.0952 16.4709 16.4709 20.0952 12 20.0952V22Z" style="fill: var(--element-active-color)"/>
<path d="M2 12C2 17.5228 6.47715 22 12 22V20.0952C7.52912 20.0952 3.90476 16.4709 3.90476 12H2Z" style="fill: var(--element-active-color)"/>
</svg>
