<svg width="24" height="24" viewBox="0 0 24 24" fill="none" xmlns="http://www.w3.org/2000/svg">
<path fill-rule="evenodd" clip-rule="evenodd" d="M22 6L7 6V4L22 4V6Z" style="fill: var(--element-active-color)"/>
<path d="M3.5 7.5L6.5 19H13L7 6L3.5 7.5Z" style="fill: var(--element-active-color)"/>
<path fill-rule="evenodd" clip-rule="evenodd" d="M18 12V7H20V12H18Z" style="fill: var(--element-active-color)"/>
<path d="M15 12H23V16H15V12Z" style="fill: var(--element-active-color)"/>
<path d="M3 19H16V22H3V19Z" style="fill: var(--element-active-color)"/>
<path fill-rule="evenodd" clip-rule="evenodd" d="M5 8C6.65685 8 8 6.65685 8 5C8 3.34315 6.65685 2 5 2C3.34315 2 2 3.34315 2 5C2 6.65685 3.34315 8 5 8ZM5 6C5.55228 6 6 5.55228 6 5C6 4.44772 5.55228 4 5 4C4.44772 4 4 4.44772 4 5C4 5.55228 4.44772 6 5 6Z" style="fill: var(--element-active-color)"/>
</svg>
