<svg width="24" height="24" viewBox="0 0 24 24" fill="none" xmlns="http://www.w3.org/2000/svg">
<mask id="mask0_29002_245350" style="mask-type:alpha" maskUnits="userSpaceOnUse" x="0" y="0" width="24" height="24">
<rect width="24" height="24" fill="currentColor"/>
</mask>
<g mask="url(#mask0_29002_245350)">
<path d="M11.186 16.5258H9.82812V12.808C9.82812 12.7054 9.82959 12.5795 9.83252 12.4301C9.83545 12.2777 9.83984 12.1224 9.8457 11.9642C9.85156 11.8031 9.85742 11.6581 9.86328 11.5292C9.83105 11.5673 9.76514 11.6332 9.66553 11.7269C9.56885 11.8177 9.47803 11.8998 9.39307 11.973L8.65479 12.5663L8 11.7489L10.0698 10.101H11.186V16.5258Z" style="fill: var(--element-active-color)"/>
<path d="M16.9351 13.3134C16.9351 13.8319 16.894 14.2948 16.812 14.702C16.7329 15.1093 16.604 15.455 16.4253 15.7391C16.2495 16.0233 16.0181 16.2401 15.731 16.3895C15.4438 16.5389 15.0952 16.6136 14.6851 16.6136C14.1694 16.6136 13.7461 16.4833 13.415 16.2225C13.084 15.9589 12.8394 15.5809 12.6812 15.0887C12.5229 14.5936 12.4438 14.0018 12.4438 13.3134C12.4438 12.619 12.5156 12.0258 12.6592 11.5336C12.8057 11.0385 13.043 10.6591 13.3711 10.3954C13.6992 10.1317 14.1372 9.99988 14.6851 9.99988C15.1978 9.99988 15.6196 10.1317 15.9507 10.3954C16.2847 10.6561 16.5322 11.0341 16.6934 11.5292C16.8545 12.0214 16.9351 12.6161 16.9351 13.3134ZM13.793 13.3134C13.793 13.8026 13.8193 14.2113 13.8721 14.5394C13.9277 14.8646 14.02 15.1093 14.1489 15.2733C14.2778 15.4374 14.4565 15.5194 14.6851 15.5194C14.9106 15.5194 15.0879 15.4388 15.2168 15.2777C15.3486 15.1136 15.4424 14.869 15.498 14.5438C15.5537 14.2157 15.5815 13.8055 15.5815 13.3134C15.5815 12.8241 15.5537 12.4154 15.498 12.0873C15.4424 11.7592 15.3486 11.5131 15.2168 11.349C15.0879 11.182 14.9106 11.0985 14.6851 11.0985C14.4565 11.0985 14.2778 11.182 14.1489 11.349C14.02 11.5131 13.9277 11.7592 13.8721 12.0873C13.8193 12.4154 13.793 12.8241 13.793 13.3134Z" style="fill: var(--element-active-color)"/>
<path d="M12.5879 21.8804C11.3379 21.8804 10.1672 21.643 9.07589 21.1684C7.98389 20.693 7.03389 20.051 6.22589 19.2424C5.41722 18.4344 4.77522 17.4844 4.29989 16.3924C3.82522 15.301 3.58789 14.1304 3.58789 12.8804H5.58789C5.58789 14.8304 6.26722 16.4844 7.62589 17.8424C8.98389 19.201 10.6379 19.8804 12.5879 19.8804C14.5379 19.8804 16.1919 19.201 17.5499 17.8424C18.9086 16.4844 19.5879 14.8304 19.5879 12.8804C19.5879 10.9304 18.9086 9.27604 17.5499 7.91737C16.1919 6.55937 14.5379 5.88037 12.5879 5.88037H12.4379L13.9879 7.43037L12.5879 8.88037L8.58789 4.88037L12.5879 0.880371L13.9879 2.33037L12.4379 3.88037H12.5879C13.8379 3.88037 15.0089 4.11804 16.1009 4.59337C17.1922 5.06804 18.1422 5.70937 18.9509 6.51737C19.7589 7.32604 20.4006 8.27604 20.8759 9.36737C21.3506 10.4594 21.5879 11.6304 21.5879 12.8804C21.5879 14.1304 21.3506 15.301 20.8759 16.3924C20.4006 17.4844 19.7589 18.4344 18.9509 19.2424C18.1422 20.051 17.1922 20.693 16.1009 21.1684C15.0089 21.643 13.8379 21.8804 12.5879 21.8804Z" style="fill: var(--element-active-color)"/>
</g>
</svg>
