<svg width="24" height="24" viewBox="0 0 24 24" fill="none" xmlns="http://www.w3.org/2000/svg">
<path d="M2 20H22V22H2V20Z" style="fill: var(--element-active-color)"/>
<path d="M2 17H22V19H2V17Z" style="fill: var(--element-active-color)"/>
<path d="M2 14H22V16H2V14Z" style="fill: var(--element-active-color)"/>
<path fill-rule="evenodd" clip-rule="evenodd" d="M16.2428 11C17.0282 10.0491 17.5 8.82963 17.5 7.5C17.5 4.46243 15.0376 2 12 2C8.96243 2 6.5 4.46243 6.5 7.5C6.5 8.82963 6.97182 10.0491 7.75716 11H2V13H22V11H16.2428ZM14.75 7.5C14.75 9.01878 13.5188 10.25 12 10.25C10.4812 10.25 9.25 9.01878 9.25 7.5C9.25 5.98122 10.4812 4.75 12 4.75C13.5188 4.75 14.75 5.98122 14.75 7.5Z" style="fill: var(--element-active-color)"/>
</svg>
