<svg width="24" height="24" viewBox="0 0 24 24" fill="none" xmlns="http://www.w3.org/2000/svg">
<path d="M4 4C4 2.9 4.9 2 6 2C7.1 2 8 2.9 8 4C8 5.1 7.1 6 6 6C4.9 6 4 5.1 4 4Z" style="fill: var(--element-active-color)"/>
<path d="M8.78 7.58C7.93 7.21 6.99 7 6 7C5.01 7 4.07 7.21 3.22 7.58C2.48 7.9 2 8.62 2 9.43V10H10V9.43C10 8.62 9.52 7.9 8.78 7.58Z" style="fill: var(--element-active-color)"/>
<path d="M20 4C20 5.1 19.1 6 18 6C16.9 6 16 5.1 16 4C16 2.9 16.9 2 18 2C19.1 2 20 2.9 20 4Z" style="fill: var(--element-active-color)"/>
<path d="M20.78 7.58C19.93 7.21 18.99 7 18 7C17.01 7 16.07 7.21 15.22 7.58C14.48 7.9 14 8.62 14 9.43V10H22V9.43C22 8.62 21.52 7.9 20.78 7.58Z" style="fill: var(--element-active-color)"/>
<path d="M7.82637 12.5161C7.57568 12.0324 6.97198 11.8558 6.50019 12.1282C6.02839 12.4006 5.87944 13.0117 6.17297 13.4707L7.81711 16.0413C6.31257 17.1642 5.2747 18.8778 5.04706 20.8386L1.99897 20.7C1.45475 20.6753 1 21.1098 1 21.6546C1 21.7766 1.02279 21.893 1.06428 22H7.01175C7.00396 21.8859 7 21.7707 7 21.6545C7 18.8931 9.23858 16.6545 12 16.6545C14.7614 16.6545 17 18.8931 17 21.6545C17 21.7707 16.996 21.8859 16.9883 22H22.9357C22.9772 21.893 23 21.7766 23 21.6546C23 21.1098 22.5453 20.6753 22.001 20.7L18.9529 20.8386C18.7253 18.878 17.6875 17.1644 16.1831 16.0415L17.8274 13.4707C18.1209 13.0117 17.972 12.4006 17.5002 12.1282C17.0284 11.8558 16.4247 12.0324 16.174 12.5161L14.7704 15.2242C13.9208 14.8577 12.9841 14.6546 12 14.6546C11.016 14.6546 10.0795 14.8576 9.22991 15.2241L7.82637 12.5161Z" style="fill: var(--element-active-color)"/>
<path d="M9 21.5C9 21.6704 9.0142 21.8374 9.04148 22H14.9585C14.9858 21.8374 15 21.6704 15 21.5C15 19.8431 13.6569 18.5 12 18.5C10.3431 18.5 9 19.8431 9 21.5Z" style="fill: var(--element-active-color)"/>
</svg>
