<svg width="24" height="24" viewBox="0 0 24 24" fill="none" xmlns="http://www.w3.org/2000/svg">
<path d="M12 15.0001C13.6569 15.0001 15 13.657 15 12.0001C15 10.3432 13.6569 9.0001 12 9.0001C10.3431 9.0001 9 10.3432 9 12.0001C9 13.657 10.3431 15.0001 12 15.0001Z" style="fill: var(--element-active-color)"/>
<path fill-rule="evenodd" clip-rule="evenodd" d="M7.82637 2.88784C7.57568 2.40416 6.97198 2.22761 6.50019 2.5C6.02839 2.77239 5.87944 3.38349 6.17297 3.84243L7.81711 6.41304C6.31257 7.536 5.2747 9.24961 5.04706 11.2103L1.99897 11.0718C1.45475 11.047 1 11.4816 1 12.0264C1 12.5711 1.45475 13.0057 1.99897 12.981L5.04706 12.8424C5.2747 14.8031 6.31254 16.5167 7.81703 17.6396L6.17297 20.2101C5.87943 20.6691 6.02839 21.2802 6.50018 21.5526C6.97198 21.8249 7.57568 21.6484 7.82637 21.1647L9.22984 18.4569C10.0794 18.8233 11.016 19.0264 12 19.0264C12.9841 19.0264 13.9208 18.8233 14.7705 18.4567L16.174 21.1647C16.4247 21.6484 17.0284 21.825 17.5002 21.5526C17.972 21.2802 18.1209 20.6691 17.8274 20.2101L16.1832 17.6394C17.6876 16.5165 18.7253 14.803 18.9529 12.8424L22.001 12.981C22.5453 13.0057 23 12.5711 23 12.0264C23 11.4816 22.5453 11.047 22.001 11.0718L18.9529 11.2103C18.7253 9.24972 17.6875 7.53619 16.1831 6.41323L17.8274 3.84243C18.1209 3.38349 17.972 2.77239 17.5002 2.5C17.0284 2.22761 16.4247 2.40416 16.174 2.88784L14.7704 5.59597C13.9208 5.22944 12.9841 5.02637 12 5.02637C11.016 5.02637 10.0795 5.22939 9.22991 5.59584L7.82637 2.88784ZM17 12.0263C17 14.7877 14.7614 17.0263 12 17.0263C9.23858 17.0263 7 14.7877 7 12.0263C7 9.26489 9.23858 7.02631 12 7.02631C14.7614 7.02631 17 9.26489 17 12.0263Z" style="fill: var(--element-active-color)"/>
</svg>
