<svg width="24" height="24" viewBox="0 0 24 24" fill="none" xmlns="http://www.w3.org/2000/svg">
<path fill-rule="evenodd" clip-rule="evenodd" d="M4.96857 2L3.00006 3.28793L6.29448 7.80084C5.6282 8.7363 5.18623 9.8426 5.04706 11.0413L1.99897 10.9027C1.45475 10.878 1 11.3125 1 11.8573C1 12.4021 1.45475 12.8366 1.99897 12.8119L5.04706 12.6733C5.2747 14.634 6.31254 16.3476 7.81703 17.4706L6.17297 20.0411C5.87943 20.5 6.02839 21.1111 6.50018 21.3835C6.97198 21.6559 7.57568 21.4793 7.82637 20.9957L9.22984 18.2878C10.0794 18.6543 11.016 18.8573 12 18.8573C12.7411 18.8573 13.4554 18.7421 14.1258 18.5287L17.2858 22.8574L19.2535 21.5694L4.96857 2ZM7 11.8572C7 11.0223 7.20464 10.2352 7.56649 9.54332L12.8528 16.7848C12.5756 16.8324 12.2907 16.8572 12 16.8572C9.23858 16.8572 7 14.6187 7 11.8572Z" style="fill: var(--element-active-color)"/>
<path d="M17.7056 15.9137C18.3718 14.9782 18.8138 13.872 18.9529 12.6733L22.001 12.8119C22.5453 12.8366 23 12.4021 23 11.8573C23 11.3125 22.5453 10.878 22.001 10.9027L18.9529 11.0413C18.7253 9.08065 17.6875 7.36712 16.1831 6.24416L17.8274 3.67336C18.1209 3.21442 17.972 2.60332 17.5002 2.33093C17.0284 2.05854 16.4247 2.23509 16.174 2.71876L14.7704 5.4269C13.9208 5.06037 12.9841 4.8573 12 4.8573C11.2589 4.8573 10.5447 4.97247 9.87427 5.18589L11.1472 6.92967C11.4244 6.88205 11.7093 6.85724 12 6.85724C14.7614 6.85724 17 9.09582 17 11.8572C17 12.6921 16.7954 13.4793 16.4335 14.1712L17.7056 15.9137Z" style="fill: var(--element-active-color)"/>
</svg>
