<svg width="24" height="24" viewBox="0 0 24 24" fill="none" xmlns="http://www.w3.org/2000/svg">
<path fill-rule="evenodd" clip-rule="evenodd" d="M16.25 10.3676L12.3292 8.75322C11.1215 8.25589 9.82793 8 8.52175 8H5.5L4.5 12L1.78463 14.7154C2.38517 14.9209 3.49109 14.9399 4.00881 14.725C4.1851 14.6417 4.35721 14.554 4.52516 14.462C4.69375 14.3707 4.85016 14.2583 4.99439 14.125C5.1867 13.975 5.39503 13.9 5.61939 13.9C5.84375 13.9 6.05208 13.975 6.24439 14.125C6.5649 14.3917 6.91747 14.604 7.30208 14.762C7.6867 14.9207 8.08734 15 8.504 15C8.92067 15 9.32131 14.9207 9.70593 14.762C10.0905 14.604 10.4431 14.3917 10.7636 14.125C10.9559 13.975 11.1643 13.9 11.3886 13.9C11.613 13.9 11.8213 13.975 12.0136 14.125C12.3341 14.3917 12.6867 14.604 13.0713 14.762C13.4559 14.9207 13.8566 15 14.2732 15C14.6899 15 15.0905 14.9207 15.4752 14.762C15.8598 14.604 16.2123 14.3917 16.5328 14.125C16.7252 13.975 16.9335 13.9 17.1579 13.9C17.3822 13.9 17.5905 13.975 17.7829 14.125C17.8402 14.178 17.8994 14.2277 17.9605 14.2741C19.898 13.4468 21.5237 11.9525 22.5 10L16.25 10.3676ZM8.95737 10.7966L13.9519 10.5028L11.9485 9.6779C10.8615 9.2303 9.69731 9 8.52175 9H8.05906L8.95737 10.7966Z" fill="currentColor"/>
<path d="M18.975 18.612C19.475 18.7373 19.9833 18.8 20.5 18.8C20.7833 18.8 21.0207 18.704 21.212 18.512C21.404 18.3207 21.5 18.0833 21.5 17.8C21.5 17.5167 21.404 17.2793 21.212 17.088C21.0207 16.896 20.7833 16.8 20.5 16.8C20.0667 16.8 19.6373 16.7457 19.212 16.637C18.7873 16.529 18.3833 16.3583 18 16.125C17.85 16.0417 17.6833 16 17.5 16C17.3167 16 17.15 16.0417 17 16.125C16.6167 16.3583 16.2123 16.529 15.787 16.637C15.3623 16.7457 14.9333 16.8 14.5 16.8C14.0667 16.8 13.6373 16.7457 13.212 16.637C12.7873 16.529 12.3833 16.3583 12 16.125C11.85 16.0417 11.679 16 11.487 16C11.2957 16 11.1333 16.0417 11 16.125C10.6167 16.3583 10.2123 16.529 9.787 16.637C9.36233 16.7457 8.93333 16.8 8.5 16.8C8.06667 16.8 7.63733 16.7457 7.212 16.637C6.78733 16.529 6.38333 16.3583 6 16.125C5.86667 16.0417 5.7 16 5.5 16C5.3 16 5.13333 16.0417 5 16.125C4.61667 16.3583 4.21267 16.529 3.788 16.637C3.36267 16.7457 2.93333 16.8 2.5 16.8C2.21667 16.8 1.97933 16.896 1.788 17.088C1.596 17.2793 1.5 17.5167 1.5 17.8C1.5 18.0833 1.596 18.3207 1.788 18.512C1.97933 18.704 2.21667 18.8 2.5 18.8C3.01667 18.8 3.525 18.7373 4.025 18.612C4.525 18.4873 5.01667 18.3 5.5 18.05C5.98333 18.3 6.475 18.4873 6.975 18.612C7.475 18.7373 7.98333 18.8 8.5 18.8C9.01667 18.8 9.525 18.7373 10.025 18.612C10.525 18.4873 11.0167 18.3 11.5 18.05C11.9833 18.3 12.475 18.4873 12.975 18.612C13.475 18.7373 13.9833 18.8 14.5 18.8C15.0167 18.8 15.525 18.7373 16.025 18.612C16.525 18.4873 17.0167 18.3 17.5 18.05C17.9833 18.3 18.475 18.4873 18.975 18.612Z" fill="currentColor"/>
</svg>
