<svg width="24" height="24" viewBox="0 0 24 24" fill="none" xmlns="http://www.w3.org/2000/svg">
<path fill-rule="evenodd" clip-rule="evenodd" d="M12 16.2332C11.4112 16.5181 10.7589 16.7603 10 16.898C7.65254 17.3238 5.91737 16.4168 5.27359 14.1769H2V12.6769H5.02238C5.00754 12.4595 5 12.2338 5 12C5 11.7662 5.00753 11.5405 5.02237 11.3231H2V9.82311H5.27357C5.91735 7.5832 7.65253 6.6762 10 7.10204C10.7589 7.23972 11.4112 7.48188 12 7.76685C12.5888 7.48188 13.2411 7.23972 14 7.10204C16.3475 6.6762 18.0826 7.5832 18.7264 9.82311H22V11.3231H18.9776C18.9925 11.5405 19 11.7662 19 12C19 12.2338 18.9925 12.4595 18.9776 12.6769H22V14.1769H18.7264C18.0826 16.4168 16.3475 17.3238 14 16.898C13.2411 16.7603 12.5888 16.5181 12 16.2332ZM17.4737 12.6769C17.4908 12.4671 17.5 12.2418 17.5 12C17.5 11.7582 17.4908 11.5329 17.4737 11.3231H16.6667C15.0483 11.3231 13.8042 10.561 12.8509 9.97702L12.7927 9.94137C12.5202 9.77458 12.2591 9.61471 12 9.46589C11.7409 9.61471 11.4798 9.77458 11.2073 9.94137L11.1491 9.97702C10.1958 10.561 8.95171 11.3231 7.33335 11.3231H6.52628C6.50919 11.5329 6.5 11.7582 6.5 12C6.5 12.2418 6.50919 12.4671 6.52629 12.6769H7.33333C8.9517 12.6769 10.1958 13.439 11.1491 14.023L11.2073 14.0586C11.4798 14.2254 11.7409 14.3853 12 14.5341C12.2591 14.3853 12.5202 14.2254 12.7927 14.0586L12.8509 14.023C13.8042 13.439 15.0483 12.6769 16.6667 12.6769H17.4737ZM13.6694 15.2807C14.6363 14.6903 15.5336 14.1769 16.6667 14.1769H17.1395C16.9844 14.544 16.7946 14.805 16.6017 14.9848C16.1739 15.384 15.4564 15.6377 14.2677 15.422C14.0591 15.3842 13.8605 15.3367 13.6694 15.2807ZM6.86049 14.1769C7.01561 14.544 7.20545 14.805 7.39825 14.9848C7.82615 15.384 8.54363 15.6377 9.73226 15.422C9.94091 15.3842 10.1395 15.3367 10.3306 15.2807C9.36372 14.6903 8.46644 14.1769 7.33333 14.1769H6.86049ZM6.86047 9.82311H7.33333C8.46644 9.8231 9.36372 9.30974 10.3306 8.7193C10.1395 8.66331 9.94091 8.6158 9.73226 8.57795C8.54362 8.36233 7.82614 8.61595 7.39824 9.01515C7.20543 9.19502 7.0156 9.45599 6.86047 9.82311ZM13.6694 8.7193C14.6363 9.30974 15.5336 9.8231 16.6667 9.82311H17.1395C16.9844 9.45599 16.7946 9.19502 16.6018 9.01515C16.1739 8.61595 15.4564 8.36233 14.2677 8.57795C14.0591 8.6158 13.8605 8.66331 13.6694 8.7193Z" style="fill: var(--element-active-color)"/>
</svg>
