<svg width="24" height="24" viewBox="0 0 24 24" fill="none" xmlns="http://www.w3.org/2000/svg">
<path d="M19.95 12.8996C19.8358 13.9317 19.5208 14.9308 19.0235 15.8409L17.5947 14.1727C17.7657 13.7342 17.8858 13.2737 17.95 12.7996L17.9472 12.7995C17.982 12.5379 18 12.2709 18 11.9998C18 11.7285 17.982 11.4615 17.9471 11.1998L17.95 11.1996C17.8677 10.5918 17.6935 10.0062 17.4379 9.46074C16.673 7.82535 15.1921 6.59182 13.3985 6.16361C12.9508 6.05642 12.4825 5.99965 12 5.99965C11.5575 5.99965 11.127 6.04739 10.7133 6.13799L9.28433 4.4696C10.1549 4.15987 11.0734 4.00093 12 4.00093C13.1003 4.00093 14.1891 4.22505 15.2 4.65965L16.13 2.83965C16.41 2.35965 17 2.19965 17.5 2.46965C18 2.74965 18.14 3.35965 17.87 3.83965L16.75 5.55965C17.6376 6.21149 18.3803 7.04041 18.9311 7.994C19.4819 8.94759 19.8288 10.0051 19.95 11.0996L22 10.9996C22.2652 10.9996 22.5196 11.105 22.7071 11.2925C22.8946 11.4801 23 11.7344 23 11.9996C23 12.2649 22.8946 12.5192 22.7071 12.7068C22.5196 12.8943 22.2652 12.9996 22 12.9996L19.95 12.8996Z" style="fill: var(--element-active-color)"/>
<path d="M4.8155 8.46914L6.28024 10.1793C6.1746 10.5099 6.09719 10.8511 6.05 11.1996L6.05286 11.1998C6.018 11.4615 6 11.7285 6 11.9998C6 12.2709 6.01799 12.5379 6.05283 12.7995L6.05 12.7996C6.09596 13.1339 6.16897 13.4598 6.26694 13.7749C7.02379 16.222 9.30429 17.9998 12 17.9998C12.3123 17.9998 12.619 17.9759 12.9184 17.9299L14.383 19.64C13.6125 19.8771 12.8094 19.9984 12 19.9984C10.8997 19.9984 9.81087 19.7742 8.8 19.3396L7.87 21.1596C7.59 21.6396 7 21.7996 6.5 21.5296C6 21.2496 5.86 20.6396 6.13 20.1596L7.25 18.4396C6.36241 17.7878 5.61972 16.9589 5.06892 16.0053C4.51811 15.0517 4.17115 13.9942 4.05 12.8996L2 12.9996C1.73478 12.9996 1.48043 12.8943 1.29289 12.7068C1.10536 12.5192 1 12.2649 1 11.9996C1 11.7344 1.10536 11.4801 1.29289 11.2925C1.48043 11.105 1.73478 10.9996 2 10.9996L4.05 11.0996C4.15137 10.1838 4.41082 9.29392 4.8155 8.46914Z" style="fill: var(--element-active-color)"/>
<path d="M3.88122 4.30551L18.6003 21.4912L20.1193 20.1902L5.40024 3.00452L3.88122 4.30551Z" style="fill: var(--element-active-color)"/>
</svg>
