<svg width="24" height="24" viewBox="0 0 24 24" fill="none" xmlns="http://www.w3.org/2000/svg">
<path d="M11 21C9.33333 21 7.91667 20.4167 6.75 19.25C5.58333 18.0833 5 16.6667 5 15V9.6L9.4 14L8.35 15.075L6.5 13.225V15C6.5 16.25 6.94167 17.3125 7.825 18.1875C8.70833 19.0625 9.76667 19.5 11 19.5C12.25 19.5 13.3125 19.0625 14.1875 18.1875C15.0625 17.3125 15.5 16.25 15.5 15V11.65C14.9167 11.4667 14.4375 11.1292 14.0625 10.6375C13.6875 10.1458 13.5 9.6 13.5 9C13.5 8.4 13.6875 7.85417 14.0625 7.3625C14.4375 6.87083 14.9167 6.53333 15.5 6.35V2H17V6.35C17.5833 6.53333 18.0625 6.87083 18.4375 7.3625C18.8125 7.85417 19 8.4 19 9C19 9.6 18.8125 10.15 18.4375 10.65C18.0625 11.15 17.5833 11.4833 17 11.65V15C17 16.6667 16.4167 18.0833 15.25 19.25C14.0833 20.4167 12.6667 21 11 21ZM16.25 10.25C16.6 10.25 16.8958 10.125 17.1375 9.875C17.3792 9.625 17.5 9.33333 17.5 9C17.5 8.65 17.3792 8.35417 17.1375 8.1125C16.8958 7.87083 16.6 7.75 16.25 7.75C15.9167 7.75 15.625 7.87083 15.375 8.1125C15.125 8.35417 15 8.65 15 9C15 9.33333 15.125 9.625 15.375 9.875C15.625 10.125 15.9167 10.25 16.25 10.25Z" style="fill: var(--element-active-color)"/>
</svg>
