<svg width="24" height="24" viewBox="0 0 24 24" fill="none" xmlns="http://www.w3.org/2000/svg">
<path d="M3.86809 4.57501C3.47756 4.18448 3.47756 3.55132 3.86809 3.1608L5.98941 1.03948C6.37993 0.648951 7.0131 0.648951 7.40362 1.03948L11.6463 5.28212C12.0368 5.67264 12.0368 6.30581 11.6463 6.69633L11.2927 7.04988L11.9998 7.75699L14.8282 4.92856C15.2188 4.53804 15.8519 4.53804 16.2425 4.92856L19.0709 7.75699C19.4614 8.14751 19.4614 8.78068 19.0709 9.1712L16.2425 11.9996L16.9496 12.7067L17.3031 12.3532C17.6936 11.9627 18.3268 11.9627 18.7173 12.3532L22.96 16.5958C23.3505 16.9863 23.3505 17.6195 22.96 18.01L20.8386 20.1314C20.4481 20.5219 19.815 20.5219 19.4244 20.1314L15.1818 15.8887C14.7913 15.4982 14.7913 14.865 15.1818 14.4745L15.5354 14.1209L14.8282 13.4138L13.414 14.8281C13.0235 15.2186 12.3903 15.2186 11.9998 14.8281L9.17139 11.9996C8.78087 11.6091 8.78087 10.9759 9.17139 10.5854L10.5856 9.1712L9.8785 8.4641L9.52494 8.81765C9.13442 9.20817 8.50125 9.20817 8.11073 8.81765L3.86809 4.57501Z" fill="currentColor"/>
<path d="M10.0859 16.6192C9.47924 16.3679 8.92805 15.9996 8.46375 15.5353C7.99946 15.0711 7.63116 14.5199 7.37989 13.9132C7.12862 13.3066 6.99929 12.6564 6.99929 11.9998L4.99929 11.9998C4.99929 12.9191 5.18035 13.8293 5.53213 14.6786C5.88391 15.5279 6.39953 16.2995 7.04954 16.9496C7.69955 17.5996 8.47122 18.1152 9.32051 18.467C10.1698 18.8188 11.08 18.9998 11.9993 18.9998V16.9998C11.3427 16.9998 10.6925 16.8705 10.0859 16.6192Z" fill="currentColor"/>
</svg>
