<svg width="24" height="24" viewBox="0 0 24 24" fill="none" xmlns="http://www.w3.org/2000/svg">
<path d="M15.5355 8.46398C15.0712 7.99968 14.52 7.63139 13.9134 7.38011C13.3068 7.12884 12.6566 6.99951 12 6.99951V4.99951C12.9193 4.99951 13.8295 5.18057 14.6788 5.53235C15.5281 5.88414 16.2997 6.39975 16.9497 7.04976C17.5998 7.69977 18.1154 8.47145 18.4672 9.32073C18.8189 10.17 19 11.0803 19 11.9995L17 11.9995C17 11.3429 16.8707 10.6927 16.6194 10.0861C16.3681 9.47947 15.9998 8.92827 15.5355 8.46398Z" fill="currentColor"/>
<path d="M5.58481 18.3121L2 22.9999H16L14.0305 20.7678C13.3699 20.9208 12.689 20.9998 12 20.9998C9.61305 20.9998 7.32387 20.0516 5.63604 18.3637L5.58481 18.3121Z" fill="currentColor"/>
<path d="M12 18.9999C13.8565 18.9999 15.637 18.2624 16.9497 16.9496L12.4141 12.414L12.8409 11.9873C12.8927 11.9956 12.9458 11.9999 13 11.9999C13.5523 11.9999 14 11.5522 14 10.9999C14 10.4476 13.5523 9.99992 13 9.99992C12.4477 9.99992 12 10.4476 12 10.9999C12 11.1234 12.0224 11.2416 12.0633 11.3507L11.707 11.7069L7.05025 7.05015C5.7375 8.36291 5 10.1434 5 11.9999C5 13.8564 5.7375 15.6369 7.05025 16.9496C8.36301 18.2624 10.1435 18.9999 12 18.9999Z" fill="currentColor"/>
</svg>
